<svg xmlns="http://www.w3.org/2000/svg" viewBox="0 0 600 600" fill="currentColor" aria-hidden="true"><path d="M238.4 53.1L241.4 50.2L244.7 48.3L248 46.6L251.4 45.2L254.8 43.8L258.3 42.5L261.8 41.3L265.3 40.2L268.9 39.2L272.5 38.3L276.1 37.4L279.7 36.6L283.4 35.8L287 35.1L290.7 34.5L294.4 33.9L298.1 33.4L301.9 33L305.6 32.6L309.3 32.3L313.1 32.1L316.8 32.3L320.6 32.5L324.3 32.8L328 33.2L331.8 33.6L335.5 34.1L339.2 34.6L342.9 35.2L346.6 35.8L350.3 36.5L353.9 37.2L357.6 38L361.3 38.8L364.9 39.7L368.5 40.6L372.1 41.6L375.7 42.6L379.3 43.7L382.9 44.9L386.5 46.1L390 47.3L393.5 48.6L397 49.9L400.5 51.3L403.9 52.7L407.4 54.2L410.8 55.8L414.2 57.3L417.6 59L420.9 60.7L424.2 62.4L427.5 64.2L430.8 66L434 67.8L437.3 69.7L440.5 71.7L443.6 73.7L446.8 75.7L449.9 77.8L452.9 80L456 82.1L459 84.3L462 86.6L464.9 88.9L467.8 91.2L470.7 93.6L473.6 96L476.4 98.5L479.2 101L481.9 103.5L484.6 106.1L487.3 108.7L489.9 111.4L492.5 114.1L495.1 116.8L497.6 119.5L500.1 122.3L502.5 125.2L504.9 128L507.3 130.9L509.6 133.8L511.9 136.8L514.1 139.8L516.3 142.8L518.5 145.9L520.6 148.9L522.7 152.1L524.7 155.2L526.7 158.4L528.6 161.5L530.5 164.8L532.3 168L534.1 171.3L535.9 174.6L537.6 177.9L539.3 181.2L540.9 184.6L542.4 188L544 191.4L545.4 194.8L546.9 198.3L548.2 201.7L549.6 205.2L550.8 208.7L552.1 212.2L553.2 215.8L554.4 219.3L555.5 222.9L556.5 226.5L557.5 230L558.4 233.7L559.3 237.3L560.1 240.9L560.9 244.5L561.6 248.2L562.3 251.9L562.9 255.5L563.5 259.2L564 262.9L564.5 266.6L564.9 270.3L565.3 274L565.6 277.7L565.9 281.4L566.1 285.1L566.3 288.8L566.4 292.6L566.4 296.3L566.4 300L566.4 303.7L566.3 307.4L566.2 311.2L566 314.9L565.7 318.6L565.4 322.3L565.1 326L564.7 329.7L564.2 333.4L563.7 337.1L563.2 340.7L562.6 344.4L561.9 348.1L561.2 351.7L560.4 355.4L559.6 359L558.8 362.6L557.8 366.2L556.9 369.8L555.9 373.4L554.8 376.9L553.7 380.5L552.6 384L551.3 387.5L550.1 391L548.8 394.5L547.4 398L546 401.4L544.6 404.8L543.1 408.2L541.5 411.6L540 415L538.3 418.3L536.6 421.6L534.9 424.9L533.1 428.2L531.3 431.4L529.5 434.6L527.5 437.8L525.6 441L523.6 444.1L521.6 447.2L519.5 450.3L517.3 453.3L515.2 456.3L513 459.3L510.7 462.3L508.4 465.2L506.1 468.1L503.7 470.9L501.3 473.8L498.8 476.5L496.4 479.3L493.8 482L491.3 484.7L488.7 487.3L486 489.9L483.3 492.5L480.6 495.1L477.9 497.5L475.1 500L472.3 502.4L469.4 504.8L466.5 507.1L463.6 509.4L460.7 511.7L457.7 513.9L454.7 516.1L451.6 518.2L448.6 520.3L445.5 522.3L442.4 524.3L439.2 526.3L436 528.2L432.8 530L429.6 531.9L426.3 533.6L423 535.4L419.7 537L416.4 538.7L413.1 540.2L409.7 541.8L406.3 543.3L402.9 544.7L399.4 546.1L396 547.4L392.5 548.7L389 550L385.5 551.2L382 552.3L378.4 553.4L374.9 554.5L371.3 555.5L367.7 556.4L364.2 557.3L360.5 558.1L356.9 558.9L353.3 559.7L349.7 560.4L346 561L342.4 561.6L338.7 562.1L335 562.6L331.4 563L327.7 563.4L324 563.7L320.3 564L316.6 564.2L312.9 564.4L309.2 564.5L305.5 564.6L301.8 564.6L298.2 564.5L294.5 564.4L290.8 564.3L287.1 564.1L283.4 563.8L279.7 563.5L276.1 563.2L272.4 562.7L268.7 562.3L265.1 561.8L261.4 561.2L257.8 560.6L254.2 559.9L250.6 559.2L247 558.4L243.4 557.6L239.8 556.7L236.2 555.8L232.7 554.8L229.1 553.8L225.6 552.7L222.1 551.6L218.6 550.4L215.2 549.2L211.7 547.9L208.3 546.6L204.9 545.3L201.5 543.8L198.1 542.4L194.8 540.9L191.4 539.3L188.1 537.7L184.9 536L181.6 534.4L178.4 532.6L175.2 530.8L172 529L168.9 527.1L165.8 525.2L162.7 523.2L159.6 521.2L156.6 519.2L153.6 517.1L150.6 514.9L147.7 512.8L144.8 510.6L141.9 508.3L139.1 506L136.2 503.7L133.5 501.3L130.7 498.9L128 496.4L125.4 493.9L122.7 491.4L120.1 488.9L117.6 486.3L115.1 483.6L112.6 481L110.2 478.3L107.8 475.5L105.4 472.8L103.1 470L100.8 467.2L98.6 464.3L96.4 461.4L94.2 458.5L92.1 455.5L90 452.6L88 449.6L86 446.5L84.1 443.5L82.2 440.4L80.3 437.3L78.5 434.1L76.7 431L75 427.8L73.3 424.6L71.7 421.4L70.1 418.1L68.6 414.9L67.1 411.6L65.7 408.3L64.3 405L62.9 401.6L61.6 398.3L60.4 394.9L59.2 391.5L58 388.1L56.9 384.7L55.8 381.2L54.8 377.8L53.9 374.3L52.9 370.8L52.1 367.4L51.4 363.8L50.7 360.3L50.1 356.8L49.6 353.2L49.1 349.7L48.7 346.1L48.3 342.6L47.9 339L47.6 335.5L47.3 331.9L47.1 328.4L46.9 324.8L46.7 321.3L46.5 317.7L46.4 314.2L46.3 310.6L46.2 307.1L46.4 303.5L46.7 300L47.1 296.5L47.5 292.9L47.9 289.4L48.4 285.9L48.9 282.4L49.5 279L50 275.5L50.6 272L51.2 268.6L51.8 265.1L52.3 261.7L52.9 258.2L53.5 254.8L54.1 251.3L54.7 247.9L55.4 244.4L56.2 241L57.5 237.7L58.8 234.5L60.2 231.2L61.6 228L63 224.8L64.5 221.7L65.9 218.5L67.2 215.3L68.5 212.1L69.8 208.9L71.2 205.7L72.6 202.5L74 199.4L75.5 196.3L76.8 193.1L78.1 189.9L79.4 186.6L80.8 183.4L82.7 180.5L84.9 177.8L87.1 175.1L89 172.2L90.8 169.3L92.7 166.4L94.7 163.6L96.6 160.8L98.7 158L100.7 155.2L102.8 152.5L104.9 149.8L107.1 147.1L109.3 144.5L111.5 141.8L113.8 139.3L116.1 136.7L118.4 134.2L120.6 131.5L123.2 129.3L125.6 126.9L128.1 124.5L130.6 122.1L133.1 119.8L135.7 117.5L138.3 115.3L140.9 113.1L143.6 110.9L146.3 108.8L149 106.7L149 106.7L146.3 108.8L143.6 110.9L140.9 113.1L138.3 115.3L135.7 117.5L133.1 119.8L130.6 122.1L128.1 124.5L125.6 126.9L123.2 129.3L121 131.9L118.4 134.2L116.1 136.7L113.8 139.3L111.5 141.8L109.3 144.5L107.1 147.1L104.9 149.8L102.8 152.5L100.7 155.2L98.7 158L96.6 160.8L94.7 163.6L92.7 166.4L90.8 169.3L89 172.2L87.1 175.1L85.8 178.3L84.5 181.5L83.1 184.7L81.1 187.5L79.2 190.4L77.3 193.3L75.5 196.3L74 199.4L72.6 202.5L71.2 205.7L69.8 208.9L68.5 212.1L67.2 215.3L66 218.5L65.1 221.9L64.2 225.2L63.4 228.6L62.7 232L62.1 235.4L61.5 238.8L61 242.2L60.1 245.5L59 248.8L58.1 252.1L57.2 255.4L56.5 258.8L55.8 262.2L55.2 265.6L54.7 269L54.2 272.4L53.9 275.9L53.7 279.3L53.5 282.8L53.4 286.2L53.4 289.7L53.4 293.1L53.5 296.6L53.7 300L53.8 303.4L54 306.9L54 310.3L54.1 313.8L54.2 317.2L54.4 320.6L54.6 324.1L55 327.5L55.4 330.9L55.9 334.3L56.4 337.7L57 341.1L57.7 344.5L58.4 347.8L59.2 351.2L60 354.5L60.8 357.9L61.7 361.2L62.6 364.5L63.4 367.8L64.3 371.1L65.3 374.5L66.3 377.7L67.3 381L68.4 384.3L69.6 387.5L70.8 390.8L72 394L73.3 397.2L74.6 400.4L76 403.5L77.4 406.7L78.9 409.8L80.4 412.9L81.9 416L83.5 419L85.1 422.1L86.8 425.1L88.5 428.1L90.3 431L92.1 434L94 436.9L95.9 439.8L97.8 442.6L99.8 445.5L101.8 448.3L103.9 451.1L105.9 453.8L108.1 456.5L110.3 459.2L112.5 461.9L114.7 464.5L117 467.1L119.3 469.6L121.7 472.2L124.1 474.7L126.5 477.1L129 479.5L131.5 481.9L134.1 484.3L136.6 486.6L139.2 488.9L141.9 491.1L144.6 493.3L147.3 495.5L150 497.6L152.8 499.7L155.6 501.8L158.4 503.8L161.2 505.7L164.1 507.6L167 509.5L170 511.4L172.9 513.2L175.9 514.9L178.9 516.6L182 518.3L185 519.9L188.1 521.5L191.2 523.1L194.3 524.5L197.5 526L200.7 527.4L203.8 528.8L207 530.1L210.3 531.3L213.5 532.5L216.8 533.7L220.1 534.8L223.3 535.9L226.7 536.9L230 537.9L233.3 538.9L236.7 539.7L240 540.6L243.4 541.4L246.8 542.1L250.2 542.8L253.6 543.4L257 544L260.4 544.6L263.8 545.1L267.2 545.5L270.7 545.9L274.1 546.3L277.6 546.6L281 546.8L284.5 547L287.9 547.2L291.4 547.3L294.8 547.3L298.3 547.3L301.7 547.3L305.2 547.2L308.6 547L312.1 546.8L315.5 546.6L319 546.3L322.4 545.9L325.8 545.6L329.2 545.1L332.6 544.6L336 544.1L339.4 543.5L342.8 542.9L346.2 542.2L349.6 541.5L352.9 540.7L356.3 539.9L359.6 539L362.9 538.1L366.2 537.1L369.5 536.1L372.8 535L376 533.9L379.2 532.8L382.5 531.6L385.7 530.4L388.8 529.1L392 527.7L395.2 526.4L398.3 524.9L401.4 523.5L404.5 522L407.5 520.4L410.5 518.8L413.6 517.2L416.5 515.5L419.5 513.8L422.4 512.1L425.4 510.3L428.2 508.4L431.1 506.6L433.9 504.6L436.7 502.7L439.5 500.7L442.2 498.7L444.9 496.6L447.6 494.5L450.3 492.4L452.9 490.2L455.5 488L458.1 485.7L460.6 483.4L463.1 481.1L465.5 478.8L468 476.4L470.3 474L472.7 471.5L475 469L477.3 466.5L479.6 464L481.8 461.4L483.9 458.8L486.1 456.1L488.2 453.5L490.3 450.8L492.3 448.1L494.3 445.3L496.2 442.6L498.1 439.8L500 436.9L501.8 434.1L503.6 431.2L505.4 428.3L507.1 425.4L508.7 422.5L510.4 419.5L511.9 416.5L513.5 413.5L515 410.5L516.5 407.4L517.9 404.4L519.2 401.3L520.6 398.2L521.9 395.1L523.1 392L524.3 388.8L525.5 385.6L526.6 382.5L527.6 379.3L528.7 376.1L529.6 372.8L530.6 369.6L531.5 366.4L532.3 363.1L533.1 359.9L533.9 356.6L534.6 353.3L535.2 350L535.9 346.7L536.4 343.4L537 340.1L537.5 336.8L537.9 333.4L538.3 330.1L538.6 326.8L538.9 323.4L539.2 320.1L539.4 316.7L539.6 313.4L539.7 310L539.8 306.7L539.8 303.3L539.8 300L539.7 296.7L539.6 293.3L539.4 290L539.2 286.6L539 283.3L538.7 280L538.3 276.6L538 273.3L537.5 270L537.1 266.7L536.5 263.4L536 260.1L535.4 256.8L534.7 253.5L534 250.3L533.3 247L532.5 243.8L531.7 240.5L530.8 237.3L529.9 234.1L528.9 230.9L527.9 227.7L526.9 224.5L525.8 221.4L524.6 218.2L523.5 215.1L522.2 212L521 208.9L519.7 205.8L518.3 202.8L516.9 199.8L515.5 196.7L514.1 193.7L512.5 190.8L511 187.8L509.4 184.9L507.8 182L506.1 179.1L504.4 176.2L502.6 173.4L500.9 170.6L499 167.8L497.2 165L495.3 162.2L493.3 159.5L491.4 156.8L489.4 154.2L487.3 151.5L485.2 148.9L483.1 146.4L480.9 143.8L478.8 141.3L476.5 138.8L474.3 136.3L472 133.9L469.7 131.5L467.3 129.2L464.9 126.8L462.5 124.5L460 122.3L457.5 120L455 117.8L452.5 115.7L449.9 113.5L447.3 111.5L444.7 109.4L442 107.4L439.3 105.4L436.6 103.4L433.9 101.5L431.1 99.7L428.3 97.8L425.5 96L422.6 94.3L419.8 92.6L416.9 90.9L413.9 89.3L411 87.7L408 86.1L405.1 84.6L402.1 83.1L399 81.7L396 80.3L392.9 79L389.8 77.7L386.7 76.4L383.6 75.2L380.5 74L377.3 72.9L374.2 71.8L371 70.7L367.8 69.7L364.6 68.8L361.3 67.9L358.1 67L354.8 66.2L351.6 65.4L348.3 64.7L345 64L341.7 63.4L338.4 62.8L335.1 62.2L331.8 61.7L328.5 61.3L325.1 60.9L321.8 60.5L318.5 60.2L315.1 59.9L311.8 59.7L308.4 59.2L305.1 58.6L301.7 58.1L298.3 57.7L294.9 57.3L291.5 56.9L288.1 56.6L284.7 56.3L281.2 56L277.8 55.8L274.3 55.6L270.8 55.4L267.3 55.3L263.8 55.2L260.3 55.1L256.8 55L253.2 54.9L249.7 54.8L246.1 54.7L242.4 54.4L238.4 53.1Z"/><circle cx="141.1" cy="116.8" r="1.5"/><circle cx="54.2" cy="314.8" r="1.5"/><circle cx="38.5" cy="290.7" r="1.9"/><circle cx="57.9" cy="205.9" r="1.4"/><circle cx="47.1" cy="371.8" r="1.6"/><circle cx="55.6" cy="370" r="2.9"/><circle cx="124.5" cy="141.4" r="1.5"/><circle cx="34.6" cy="302.3" r="1.3"/><circle cx="53.4" cy="240.5" r="3.1"/><circle cx="107.7" cy="131.8" r="2.4"/><circle cx="47.1" cy="269.3" r="2.4"/><circle cx="39.8" cy="261.8" r="0.9"/><circle cx="136.5" cy="94.9" r="1.2"/><circle cx="68.8" cy="382.2" r="2"/></svg>