<svg xmlns="http://www.w3.org/2000/svg" version="1.1" viewBox="175 584 1699 910">
<path d="M 561.009 698.206 C 573.823 689.163 590.857 676.008 604.602 669.202 C 662.878 640.343 743.493 603.949 802.693 648.718 L 799.835 650.05 C 795.369 647.627 791.947 645.686 787.204 643.766 C 792.793 648.049 803.613 656.569 809.484 659.601 C 837.077 681.002 874.118 726.871 877.652 762.548 C 881.415 800.543 847.48 852.311 827.099 882.951 C 821.256 891.737 821.785 902.967 815.726 908.963 L 802.459 916.473 C 805.703 913.498 811.02 909.478 811.472 905.438 L 809.078 903.969 C 802.444 908.689 791.97 915.329 787.714 921.764 C 788.153 923.4 789.242 925.873 788.45 926.852 C 785.827 930.095 778.936 934.801 775.566 937.257 C 774.86 936.569 773.226 934.535 772.689 934.125 C 768.309 937.817 762.861 939.668 760.379 944.246 L 757.868 943.254 C 759.669 931.996 780.539 921.875 789.67 914.869 C 791.847 913.034 799.865 902.696 802.305 899.715 C 794.416 903.752 792.505 908.485 789.085 910.306 L 787.821 909.804 C 789.753 906.425 792.388 903.816 795.013 898.935 L 794.275 898.347 L 791.129 900.08 C 789.724 900.299 788.597 900.481 787.173 900.602 L 792.687 894.758 C 796.995 889.115 796.125 888.332 803.371 889.65 C 805.501 886.408 805.18 881.847 807.113 877.282 C 808.897 873.07 813.09 868.897 813.335 865.452 C 806.61 866.398 797.104 879.952 791.118 884.514 C 786.836 887.777 784.708 888.702 779.78 890.965 C 778.547 893.461 778.088 894.425 775.604 897.857 C 772.233 902.514 761.282 907.013 761.65 913.087 C 762.632 929.311 736.642 923.171 732.403 940.047 C 733.284 942.047 733.575 942.567 734.756 944.41 C 733.502 946.356 734.123 945.773 732.219 947.056 L 730.527 946.032 C 720.113 948.333 718.067 956.413 711.226 962.878 C 707.717 965.688 701.926 967.358 698.625 970.254 C 686.711 980.706 674.771 991.535 662.597 1001.67 C 642.916 1018.06 624.615 1035.38 606.737 1053.72 C 600.853 1059.76 590.86 1066.93 586.575 1074.02 L 586.946 1074.91 C 590.347 1074.63 629.559 1039.43 643.954 1033.47 C 636.581 1043.26 623.663 1054.39 614.727 1063.33 C 600.08 1077.98 584.177 1091.92 569.179 1106.14 C 563.536 1111.49 556.557 1121.46 550.981 1127.57 C 547.614 1131.26 541.513 1137.28 538.764 1140.77 L 541.586 1142.04 C 544.385 1140.93 544.904 1140.61 547.484 1139.01 L 549.142 1139.62 C 546.764 1145 542.348 1147.6 536.764 1144.87 C 532.144 1148.21 529.161 1150.82 523.737 1152.64 L 523.79 1152.26 C 512.601 1158.85 487.815 1181.14 479.958 1190.73 C 498.774 1194.64 506.549 1188.18 524.149 1186.08 C 565.317 1181.19 621.98 1161.76 663.143 1168 C 671.207 1163.36 674.833 1165.29 684.4 1164.88 C 691.507 1164.57 701.04 1163.9 707.909 1164.35 C 719.052 1165.09 731.593 1167.73 742.742 1167.91 C 752.296 1168.07 756.629 1165.22 767.046 1166.8 L 767.958 1167.84 L 765.123 1172.37 L 765.661 1173.58 C 788.559 1177.53 814.64 1171.23 837.383 1177.83 C 836.189 1177.48 855.165 1186.68 853.372 1185.08 L 849.42 1186.46 C 852.267 1189.95 866.587 1187.67 871.997 1189.34 L 871.342 1192.65 C 874.823 1195.88 900.984 1196.4 908.191 1197.17 C 907.268 1199.58 906.585 1199.01 905.843 1201.65 C 912.601 1204.33 921.46 1205 928.892 1206.19 C 928.434 1207.86 928.187 1207.34 927.754 1208.6 C 928.07 1208.82 928.387 1209.03 928.704 1209.25 C 930.215 1209.16 931.48 1209.09 933.007 1209.03 L 934.893 1208.93 L 936.55 1210.72 C 933.933 1216 913.532 1212.1 907.07 1212.79 C 887.577 1214.86 867.44 1213.74 848.031 1215.32 C 868.25 1220.5 881.191 1215.98 901.37 1217.42 C 912.136 1218.19 920.046 1222.14 932.035 1222.93 C 940.605 1223.37 949.181 1224.54 957.403 1227.05 C 947.329 1226.64 935.934 1225.99 925.934 1226.27 C 917.355 1226.97 913.263 1227.16 904.728 1226.65 C 899.667 1226.59 884.254 1225.57 881.276 1228.43 L 881.554 1230.42 C 879.174 1232.02 850.233 1231.8 844.547 1232.24 C 839.435 1232.01 838.661 1233.23 834.756 1230.38 L 846.002 1227.59 C 842.207 1225.27 840.151 1226.13 835.581 1225.88 C 828.346 1226.21 816.248 1226.33 809.644 1228.03 C 808.765 1230.14 808.908 1229.65 808.469 1231.74 C 802.109 1233.57 798.145 1232.74 792.801 1229.22 L 791.144 1229.53 L 789.057 1233.55 C 781.698 1233.41 765.115 1232.47 759.189 1235.49 L 759.103 1236.9 L 763.669 1240.07 C 758.891 1242.56 705.762 1244.01 694.987 1245.14 L 694.303 1244.11 L 695.634 1240.45 C 689.375 1237.59 570.575 1252.98 562.077 1259.35 C 568.312 1266.58 644.9 1246.57 657.968 1246.92 C 666.394 1245.73 675.408 1245.74 683.916 1246.07 C 679.87 1246.96 674.808 1248.3 670.771 1248.42 C 662.179 1250.45 663.059 1253.82 657.709 1255.22 C 655.017 1255.93 644.465 1253.15 639.436 1253.88 C 624.106 1256.09 607.528 1260.91 592.579 1263.31 C 567.752 1267.31 547.15 1271.16 522.842 1277.33 C 501.056 1282.86 492.847 1287.6 473.351 1294.45 C 445.66 1304.17 419.68 1312.16 393.511 1326.61 C 388.751 1329.23 379.069 1333.41 375.227 1336.69 C 364.881 1345.52 358.017 1360.21 349.171 1370.5 C 340.473 1380.61 332.32 1380.49 320.288 1381.25 C 318.217 1385.59 313.554 1397.28 309.561 1398.86 C 308.408 1397.36 307.228 1395.88 306.023 1394.43 C 297.182 1393.95 291.425 1391.75 283.144 1388.95 C 281.043 1390.45 281.719 1390.09 279.264 1391.08 C 273.904 1387.79 273.931 1386.77 270.393 1381.95 C 266.494 1376.64 253.978 1376.24 247.613 1375.69 C 195.213 1325.09 238.998 1337.28 221.322 1290.62 C 230.282 1257.85 261.208 1249.92 290.425 1242.19 C 296.01 1234.73 312.957 1209.98 319.656 1206.12 C 332.736 1199.87 342.182 1184.91 353.579 1175.39 C 383.238 1150.6 409.75 1121.07 438.194 1095.38 C 465.06 1073.95 488.438 1047.96 514.87 1026.23 C 574.57 977.167 629.062 922.575 687.809 872.18 C 707.085 855.644 734.208 822.597 750.936 802.361 C 766.875 783.08 795.598 727.526 783.84 703.308 C 781.697 697.502 766.123 700.063 762.32 703.511 L 764.386 705.563 C 763.747 707.645 749.922 710.925 746.266 712.686 C 723.654 723.579 697.659 745.889 677.703 761.371 C 680.341 757.316 681.819 755.775 685.119 752.142 C 687.441 750.071 687.998 749.896 689.287 747.036 C 686.736 746.788 686.174 748.062 683.405 750.095 C 679.274 753.167 668.065 757.876 668.315 762.911 L 671.331 761.588 L 671.637 762.588 C 648.064 788.388 623.758 809.222 604.306 838.268 C 600.423 843.342 598.069 849.607 594.26 854.671 C 579.254 875.029 570.413 894.333 557.1 915.984 C 545.771 934.41 519.016 919.92 502.762 916.286 C 493.853 914.295 487.471 887.17 481.967 878.462 C 473.082 864.404 448.805 850.781 444.052 835.755 L 443.574 834.224 C 439.385 829.778 431.946 833.674 427.417 821.322 C 424.504 813.377 431.623 797.592 438.112 794.821 L 440.643 795.852 C 443.992 794.21 439.9 776.772 441.072 771.576 C 442.946 763.27 446.563 756.716 448.775 748.571 C 450.64 741.701 446.902 733.032 450.904 727.016 C 454.446 725.112 458.774 725.451 462.903 725.319 L 463.212 742.233 C 467.352 746.623 474.272 755.581 480.346 754.555 C 482.561 752.13 483.018 751.297 486.115 750.061 C 488.16 750.804 489.724 751.347 491.815 751.938 C 508.353 736.654 524.699 723.294 542.514 709.662 C 544.105 708.445 539.416 699 542.85 695.84 C 549.875 689.376 555.524 691.573 561.009 698.206 z" fill="rgb(30,26,22)" transform="translate(0,0)"></path>
<path d="M 835.581 1225.88 C 837.919 1225.45 850.818 1223.96 851.527 1225.83 L 851.371 1225.99 L 851.361 1226.12 C 849.566 1227.28 848.256 1227.29 846.002 1227.59 C 842.207 1225.27 840.151 1226.13 835.581 1225.88 z" fill="rgb(188,181,169)" transform="translate(0,0)"></path>
<path d="M 558.161 1075.05 L 558.407 1076.12 C 556.202 1079.98 539.283 1095.71 535.23 1099.71 C 499.954 1134.57 463.836 1168.57 426.91 1201.68 L 425.989 1199.02 C 430.548 1188.49 540.914 1088.58 558.161 1075.05 z" fill="rgb(243,236,220)" transform="translate(0,0)"></path>
<path d="M 712.562 1230.36 C 715.38 1230.08 719.729 1228.89 721.926 1231.18 L 721.777 1232.47 C 719.323 1234.04 656.532 1239.7 648.703 1240.33 C 648.373 1240.34 641.489 1240.58 641.505 1240.59 C 638.185 1238.51 645.802 1237.18 646.497 1237.07 C 658.674 1235.21 670.8 1233.15 682.991 1231.42 C 686.349 1230.94 690.534 1232.57 694.001 1232.18 C 700.469 1232.05 706.157 1231.23 712.562 1230.36 z" fill="rgb(243,236,220)" transform="translate(0,0)"></path>
<path d="M 737.618 1228.38 C 740.293 1227.87 739.62 1227.99 739.983 1228 C 755.206 1228.52 771.391 1227.46 786.399 1228.4 C 786.464 1228.4 786.413 1228.65 786.412 1228.66 C 785.366 1230.14 780.279 1230.5 778.791 1230.73 C 772.851 1230.99 728.997 1233.88 727.365 1230.37 C 728.041 1228.8 736.137 1228.56 737.618 1228.38 z" fill="rgb(243,236,220)" transform="translate(0,0)"></path>
<path d="M 727.075 1219.43 C 731.733 1219.35 736.366 1219.65 741.009 1219.94 C 741.813 1219.99 743.459 1220.14 743.849 1221.02 C 744.296 1222.02 741.952 1222.09 741.467 1222.11 C 731.829 1222.57 722.185 1222.92 712.539 1223.15 C 709.712 1223.32 698.188 1224.99 696.556 1223.07 C 696.622 1220.31 723.783 1219.62 727.075 1219.43 z" fill="rgb(243,236,220)" transform="translate(0,0)"></path>
<path d="M 736.694 1236.54 C 738.79 1236.41 750.937 1235.17 751.635 1236.46 C 748.5 1238.83 739.719 1238.44 735.782 1238.53 C 734.074 1238.52 720.818 1238.58 720.481 1238.42 C 719.447 1235.72 734.596 1236.54 736.694 1236.54 z" fill="rgb(111,106,97)" transform="translate(0,0)"></path>
<path d="M 695.67 1186.59 L 697.215 1188.28 C 686.494 1189.61 685.067 1191.59 673.853 1190.13 L 678.271 1187.84 C 682.872 1187.97 691.161 1187.13 695.67 1186.59 z" fill="rgb(243,236,220)" transform="translate(0,0)"></path>
<path d="M 657.313 1189.54 C 659.037 1189.19 675.431 1187.95 678.271 1187.84 L 673.853 1190.13 C 669.244 1189.92 667.58 1190.89 663.424 1191.01 C 661.395 1190.49 659.358 1190 657.313 1189.54 z" fill="rgb(111,106,97)" transform="translate(0,0)"></path>
<path d="M 657.313 1189.54 C 659.358 1190 661.395 1190.49 663.424 1191.01 C 661.09 1191.48 651.455 1193.96 649.643 1191.65 C 649.521 1189.91 656.123 1189.74 657.313 1189.54 z" fill="rgb(243,236,220)" transform="translate(0,0)"></path>
<path d="M 785.331 923.851 C 784.317 927.065 781.022 931.65 777.064 929.73 C 780.373 927.154 781.663 925.967 785.331 923.851 z" fill="rgb(188,181,169)" transform="translate(0,0)"></path>
<path d="M 695.67 1186.59 C 697.648 1186.16 700.591 1185.5 702.197 1187.13 C 702.365 1188.43 697.806 1188.24 697.215 1188.28 L 695.67 1186.59 z" fill="rgb(81,76,70)" transform="translate(0,0)"></path>
<path d="M 1730.31 650.047 C 1732.18 640.357 1735.38 634.936 1746.51 640.077 C 1763.63 647.988 1779.73 659.367 1793.79 671.848 C 1802.98 680.336 1811.37 691.452 1821.09 699.277 C 1832.76 708.667 1831.39 717.676 1834.51 730.831 C 1836.03 737.23 1840.7 742.345 1836.76 749.484 C 1825.99 767.826 1801.9 768.724 1786.08 780.355 C 1744.43 815.401 1699.18 848.039 1669.26 894.402 C 1666.05 899.365 1658.89 906.608 1657.15 911.866 L 1658.27 912.945 C 1667.36 912.153 1680.84 907.515 1689.5 907.354 L 1688.87 907.621 C 1700.88 907.521 1707.81 907.311 1719.27 902.259 C 1723.88 900.289 1724.69 899.984 1729.63 899.371 L 1730.53 900.184 L 1728.81 901.464 L 1727.01 904.709 C 1737.38 901.09 1773.21 891.947 1784.72 894.598 C 1789.13 895.613 1787.08 895.653 1793.11 894.669 L 1792.29 897.586 C 1796.23 896.26 1798.87 895.648 1803.07 895.239 C 1803.73 897.481 1804.33 896.065 1804.94 898.563 C 1800.62 899.877 1797.2 900.878 1792.8 901.83 L 1781.92 904.271 C 1783.82 909.702 1814.32 901.688 1807.85 906.687 C 1802.7 907.057 1796.44 908.151 1791.97 908.089 L 1792.04 909.532 C 1797.31 910.175 1801.47 910.017 1806.74 909.968 L 1807.51 909.469 C 1821.9 908.784 1837.52 909.458 1850.99 908.748 C 1851.9 908.942 1853.07 908.986 1853.67 909.803 C 1853.72 911.451 1846.27 911.066 1845.32 911.079 C 1841.46 911.252 1839.2 912.018 1835.25 911.768 C 1815.08 914.815 1784.2 920.993 1765.6 922.877 C 1762.76 924.039 1758.29 926.042 1755.44 926.705 L 1750.29 928.185 L 1751.18 930.557 L 1752.01 930.783 C 1747.32 933.494 1723.58 938.999 1716.15 941.106 C 1704.57 944.391 1693.48 947.887 1681.91 951.571 C 1680.37 949.911 1680.83 950.536 1679.87 948.494 C 1675.32 949.225 1673.37 950 1668.95 951.529 L 1668.17 954.071 L 1670.16 954.434 L 1670.44 955.638 C 1664.27 961.628 1654.67 963.158 1646.54 966.359 C 1630.66 972.612 1608.2 977.955 1596.23 990.372 C 1594.74 991.925 1590.76 1000.08 1589.69 1002.24 C 1612.96 995.743 1626.11 983.528 1656 978.075 C 1647.67 983.584 1632.85 990.266 1623.49 994.87 C 1611.08 1001.03 1598.81 1007.47 1586.68 1014.17 C 1580.16 1017.71 1569.33 1022.74 1564.6 1028.16 C 1527 1071.25 1499.72 1121.32 1468.99 1169.13 C 1464.47 1176.16 1448.7 1200.26 1448.8 1207.55 C 1455.05 1200.84 1459.01 1191.95 1464.5 1185.81 C 1477.13 1171.69 1489.23 1150.43 1502.04 1137.36 L 1503.08 1136.32 C 1487.89 1167.09 1464.43 1197.85 1447.63 1228.17 C 1445.92 1231.25 1437.42 1231.49 1435.33 1235.71 C 1425.79 1254.96 1416.48 1273.95 1404.37 1291.76 C 1397.09 1302.83 1391.21 1315.69 1383.03 1326.47 C 1369.31 1344.55 1364.64 1366.27 1359.52 1387.78 C 1358.53 1391.98 1341.65 1405.6 1337.88 1409.64 C 1334.42 1413.34 1331.56 1417.26 1328.43 1421.7 C 1327.46 1419.84 1323.76 1412.61 1322.61 1412.45 C 1311.02 1410.85 1301.78 1418.8 1289.26 1411.94 C 1281.06 1407.45 1276.83 1399.82 1273.49 1391.35 C 1269.91 1382.28 1273.98 1370.93 1272.62 1363.25 C 1269.49 1344.83 1269.58 1326.44 1273.52 1308.15 C 1275.31 1299.82 1279.76 1290.64 1283.54 1283.23 C 1294.82 1262.56 1305.21 1239.66 1318.07 1219.99 C 1330.2 1201.45 1342.93 1183.3 1354.26 1164.11 C 1361.53 1151.78 1372.7 1140.36 1379.32 1127.53 L 1379.93 1126.33 C 1366.45 1123.69 1338.94 1119.86 1329.87 1110.41 C 1321.35 1098.83 1317.95 1092.57 1303.78 1086.45 C 1291.83 1081.29 1295.77 1069.75 1288.18 1061.44 C 1282.09 1054.76 1288.13 1047.69 1295.44 1044.07 C 1332.01 1025.94 1372.24 1016.31 1409.12 999.065 C 1434.17 986.915 1461.45 977.853 1486.55 966.227 C 1494.96 962.33 1513.7 932.94 1520.03 923.977 C 1535.76 901.376 1552.05 879.172 1568.89 857.387 C 1593.45 826.221 1618.91 795.778 1645.24 766.098 C 1654.06 756.202 1668.04 739.841 1677.16 731.374 L 1675.86 729.562 C 1618.23 745.571 1561.68 748.803 1507.24 781.327 C 1502.81 783.971 1497.11 792.057 1494.37 793.32 C 1475.74 801.901 1462.49 805.448 1451.11 825.109 C 1450.93 827.721 1451.21 827.732 1452.34 830.175 C 1436.13 848.458 1424.26 863.44 1401.03 873.241 C 1394.77 875.882 1387.11 880.252 1380.1 880.449 C 1353.87 881.187 1307.21 858.556 1293.91 836.044 L 1294.24 834.625 L 1297.1 833.124 C 1296.84 828.778 1281.28 812.961 1278.26 807.795 C 1268.93 791.855 1268.43 786.961 1276.51 770.943 C 1278.87 766.278 1278.4 754.273 1284.89 750.43 C 1296.7 744.004 1311.41 745.206 1324.11 742.712 C 1355.27 736.592 1384.24 725.098 1414.14 715.432 C 1456.02 701.795 1498.19 689.052 1540.61 677.211 C 1559.89 671.802 1579 665.721 1598.67 661.761 C 1632.64 654.922 1679.58 648.988 1714.1 649.369 C 1719.51 649.465 1724.91 649.692 1730.31 650.047 z" fill="rgb(30,26,22)" transform="translate(0,0)"></path>
<path d="M 1635.2 960.369 L 1635.63 959.105 C 1653.67 946.415 1739.39 925.255 1765.6 922.877 C 1762.76 924.039 1758.29 926.042 1755.44 926.705 C 1750.25 925.601 1741.84 927.633 1736.36 928.779 C 1718.21 932.601 1700.35 937.681 1682.9 943.981 C 1674.54 947.038 1643.07 958.913 1635.2 960.369 z" fill="rgb(188,181,169)" transform="translate(0,0)"></path>
<path d="M 1636.9 963.895 C 1647.88 960.393 1658.22 955.708 1668.95 951.529 L 1668.17 954.071 C 1662.96 956.436 1656.02 958.431 1650.51 960.522 C 1636.73 965.808 1623.01 971.253 1609.36 976.857 C 1608.61 977.168 1606.91 977.965 1606.16 977.276 C 1606.91 974.84 1632.99 965.337 1636.9 963.895 z" fill="rgb(154,148,137)" transform="translate(0,0)"></path>
<path d="M 1807.51 909.469 C 1821.9 908.784 1837.52 909.458 1850.99 908.748 C 1851.9 908.942 1853.07 908.986 1853.67 909.803 C 1853.72 911.451 1846.27 911.066 1845.32 911.079 C 1841.46 911.252 1839.2 912.018 1835.25 911.768 C 1830.06 907.583 1817.45 911.066 1806.74 909.968 L 1807.51 909.469 z" fill="rgb(81,76,70)" transform="translate(0,0)"></path>
<path d="M 1850.99 908.748 C 1851.9 908.942 1853.07 908.986 1853.67 909.803 C 1853.72 911.451 1846.27 911.066 1845.32 911.079 C 1847.26 910.241 1849 909.445 1850.99 908.748 z" fill="rgb(154,148,137)" transform="translate(0,0)"></path>
<path d="M 1772.63 907.072 C 1776.71 905.33 1777.35 904.864 1781.92 904.271 C 1783.82 909.702 1814.32 901.688 1807.85 906.687 C 1802.7 907.057 1796.44 908.151 1791.97 908.089 C 1787.98 906.078 1777.9 907.063 1772.63 907.072 z" fill="rgb(154,148,137)" transform="translate(0,0)"></path>
<path d="M 1751.18 930.557 C 1748.53 930.706 1736.49 933.667 1736.58 931.682 C 1737.68 930.778 1748.4 928.349 1750.29 928.185 L 1751.18 930.557 z" fill="rgb(154,148,137)" transform="translate(0,0)"></path>
<path d="M 1792.29 897.586 C 1796.23 896.26 1798.87 895.648 1803.07 895.239 C 1803.73 897.481 1804.33 896.065 1804.94 898.563 C 1800.49 897.863 1796.71 898.251 1792.29 897.586 z" fill="rgb(188,181,169)" transform="translate(0,0)"></path>
<path d="M 1675.08 725.076 C 1678.71 724.702 1683.85 723.232 1680.18 728.004 L 1676.4 727.776 L 1675.08 725.076 z" fill="rgb(243,236,220)" transform="translate(0,0)"></path>
<path d="M 1722.05 904.35 C 1724.12 902.96 1726.48 902.306 1728.81 901.464 L 1727.01 904.709 C 1724.47 905.073 1724.12 905.393 1722.05 904.35 z" fill="rgb(154,148,137)" transform="translate(0,0)"></path>
<path d="M 1676.4 727.776 L 1680.18 728.004 C 1679.16 729.322 1678.32 730.162 1677.16 731.374 L 1675.86 729.562 C 1676.01 728.966 1676.14 728.311 1676.4 727.776 z" fill="rgb(81,76,70)" transform="translate(0,0)"></path>
<path d="M 1676.4 727.776 C 1675.82 727.625 1671.21 726.901 1671.48 725.718 C 1672.04 725.178 1672.89 725.156 1673.62 725.146 L 1675.08 725.076 L 1676.4 727.776 z" fill="rgb(154,148,137)" transform="translate(0,0)"></path>
<path d="M 1744.98 917.743 L 1746.31 919.063 C 1743.44 919.634 1741.3 920.05 1738.48 920.737 L 1736.51 921.205 C 1719.86 925.297 1703.56 930.326 1686.99 934.485 C 1694.01 929.892 1722.44 921.83 1731.53 920.105 L 1736.56 919.175 L 1744.98 917.743 z" fill="rgb(188,181,169)" transform="translate(0,0)"></path>
<path d="M 1744.98 917.743 C 1749.94 916.271 1752.42 918.054 1746.31 919.063 L 1744.98 917.743 z" fill="rgb(111,106,97)" transform="translate(0,0)"></path>
<path d="M 1714.98 937.629 C 1716.43 937.131 1716.04 936.887 1716.8 937.915 C 1715.83 938.191 1715.67 938.366 1714.98 937.629 z" fill="rgb(154,148,137)" transform="translate(0,0)"></path>
<path d="M 1709.26 939.493 C 1710.21 939.189 1710.12 939.278 1711.25 939.497 C 1710.25 939.619 1710.21 939.688 1709.26 939.493 z" fill="rgb(154,148,137)" transform="translate(0,0)"></path>
<path d="M 1729.2 933.784 C 1729.69 933.702 1730.18 933.62 1730.67 933.537 C 1730.46 933.877 1730.63 933.66 1730 934.216 C 1729.31 934.421 1729.51 934.427 1729.24 934.37 C 1729.14 934.107 1729.17 934.284 1729.2 933.784 z" fill="rgb(154,148,137)" transform="translate(0,0)"></path>
<path d="M 1127.78 665.642 C 1127.02 659.337 1119.13 638.199 1121.41 635.053 C 1122.72 634.581 1125.54 633.619 1126.94 633.661 C 1162.18 634.714 1204.45 632.89 1232.62 657.616 C 1251.57 674.245 1262.94 689.96 1265.11 714.322 C 1265.03 718.149 1265.54 721.72 1263.83 724.738 L 1263.31 724.908 C 1262.92 724.31 1261.02 718.165 1260.68 717.124 L 1259.08 726.661 C 1254.24 761.843 1229.62 776.967 1209.82 803.352 C 1208.95 804.505 1207.79 810.772 1207.48 812.426 C 1206.9 815.901 1206.64 819.145 1205.07 822.265 L 1203.81 820.97 L 1204.05 823.315 C 1202.44 819.726 1204.14 817.297 1204.25 812.993 C 1197.1 815.423 1178.61 868.113 1172.12 878.52 C 1172.27 871.117 1179.52 853.324 1178.11 849.485 C 1166.9 868.812 1161.7 889.432 1153.38 909.61 C 1139.04 944.409 1123.49 978.744 1112.55 1014.85 C 1109.51 1024.88 1104.34 1036.25 1103.77 1046.83 L 1105.19 1046.91 C 1107.32 1044.23 1114.21 1023.77 1115.93 1019.13 L 1144.22 945.128 C 1151.65 925.902 1156.82 906.279 1169.23 888.422 C 1164.33 908.56 1160.43 913.291 1154.47 930.636 L 1119.43 1032.33 C 1114.14 1047.64 1110.77 1064.42 1105.6 1079.88 C 1099.49 1098.18 1093.4 1116.51 1087.23 1134.79 C 1059.71 1226.94 1016.06 1312.03 998.756 1407.42 C 998.499 1408.83 996.537 1410.24 995.785 1411.18 C 989.6 1418.96 987.485 1437.87 985.826 1447.07 C 982.694 1445.9 984.268 1440.76 983.969 1436.77 C 984.383 1416.5 988.969 1387.55 993.542 1367.9 C 997.329 1351.63 1002.19 1336.73 1004.59 1320.03 C 1000.01 1330.32 996.947 1340.12 993.752 1350.84 L 991.927 1350.03 C 993.179 1340.39 1000.26 1315.49 1003.01 1305.57 C 1004.43 1301.42 1005.69 1297.45 1007.48 1293.45 C 1006.87 1300.39 1006.01 1304.14 1007.6 1310.89 C 1007.85 1310.84 1008.14 1310.86 1008.36 1310.73 C 1013.38 1307.73 1032.11 1239.32 1034.69 1229.48 C 1035.31 1225.13 1035.82 1223.9 1034.59 1219.85 L 1033.61 1220.2 L 1032.15 1225.01 C 1027.03 1240.41 1021.91 1256.52 1016.27 1271.68 C 1015.22 1277.2 1012.86 1281.98 1010.61 1287.11 C 1010.47 1279.74 1012.1 1274.86 1011.94 1267.63 C 1008.74 1270.61 1008.61 1270.98 1006.41 1274.85 C 1005.48 1273.77 1005.04 1273.36 1004.34 1272.23 C 1006.07 1265.73 1008.21 1258.99 1008.86 1252.28 C 1009.55 1245.24 1009.25 1237.75 1010.42 1230.81 C 1011.84 1222.47 1016.87 1220.16 1016.57 1210.01 C 1015.88 1186.53 1041.28 1112.12 1049.13 1085.9 C 1051.07 1079.41 1052.26 1072.71 1054.16 1066.21 C 1056.34 1058.78 1063.82 1044.13 1062.37 1036.66 C 1062.28 1036.19 1062.14 1035.73 1062.03 1035.26 L 1062.15 1035.3 C 1056.91 1038.04 1057.48 1048.72 1054.68 1053.56 C 1048.38 1064.45 1045.49 1075.94 1041.02 1087.39 C 1040.17 1087.61 1037.03 1088.38 1036.73 1088.93 C 1034.32 1093.32 1030.82 1104.59 1029.91 1109.02 L 1027.84 1107.23 C 1029.01 1101.43 1030.56 1095.72 1029.85 1089.87 L 1028.87 1089.61 C 1022.31 1101.72 1019.69 1122.38 1015.62 1135.89 C 1013.83 1141.82 1008.27 1140.63 1009.87 1145 C 1014.38 1157.27 1004.54 1164.83 999.009 1177.45 L 997.032 1176.99 C 999.437 1169.45 1008.74 1135.35 1007.58 1128.34 C 1004.02 1132.34 1001.07 1143.37 999.326 1149.04 L 998.292 1148.86 C 997.054 1142.77 1002.73 1131.64 1004.39 1122.7 L 1004.63 1121.31 C 1011.49 1096.65 1023.08 1048.25 1025.04 1023.72 C 1034.55 1011.7 1031.28 1000.91 1036.31 988.203 C 1043.54 969.9 1048.94 953.166 1054.31 934.233 C 1057.92 921.457 1065.46 910.753 1065.99 896.34 L 1064.71 895.071 C 1050.83 894.933 1035.07 924.666 1031.14 936.113 C 1019.98 945.578 1017.89 943.897 1004.1 944.299 C 985.219 944.85 972.15 945.36 955.387 935.111 C 949.87 931.707 944.803 927.621 940.306 922.951 C 932.867 915.264 925.791 904.632 919.289 896.636 C 907.499 882.138 889.778 870.509 889.983 850.168 C 890.025 845.949 888.004 838.406 886.935 833.983 C 899.196 839.602 914 844.002 927.018 838.638 C 966.687 822.29 1000.7 787.579 1032.64 759.605 C 1048.58 745.615 1064.43 731.515 1080.18 717.305 C 1096.68 702.545 1118.2 685.599 1127.78 665.642 z" fill="rgb(30,26,22)" transform="translate(0,0)"></path>
<path d="M 1074.33 1122.72 C 1075.77 1124.24 1075.56 1124.04 1074.84 1126.44 C 1067.91 1149.57 1058.07 1172.8 1052.13 1195.99 C 1050.62 1201.93 1049.41 1198.63 1048.47 1195.08 C 1049.44 1187.42 1049.82 1177.13 1055.54 1171.38 C 1056.54 1170.38 1059.14 1165.6 1057.39 1164.87 C 1055.82 1165.38 1055.34 1167.97 1054.18 1168.41 C 1053.74 1167.36 1072.92 1124.48 1074.33 1122.72 z" fill="rgb(243,236,220)" transform="translate(0,0)"></path>
<path d="M 1068.27 885.703 C 1068.47 885.656 1068.67 885.609 1068.87 885.563 C 1068.95 885.682 1069.04 885.801 1069.12 885.92 C 1068.95 885.994 1068.78 886.069 1068.61 886.143 C 1068.36 886.003 1068.48 886.122 1068.27 885.703 z" fill="rgb(154,148,137)" transform="translate(0,0)"></path>
<path d="M 635.834 1283.58 C 608.136 1289.09 563.976 1299 535.138 1303.55 C 533.2 1303.86 531.735 1301.91 530.594 1300.53 C 530.749 1298.7 530.874 1296.76 532.994 1295.94 C 552.068 1288.58 610.986 1275.64 629.118 1278.68 L 628.799 1279.65 L 621.757 1280.38 C 627.774 1281.24 634.815 1280.88 640.916 1280.87 L 640.839 1282.81 L 635.834 1283.58 z" fill="rgb(30,26,22)" transform="translate(0,0)"></path>
<path d="M 635.834 1283.58 C 630.339 1280.44 621.333 1284.15 618.924 1281.21 L 618.975 1281.05 L 619.236 1280.95 L 619.57 1280.39 L 619.431 1280.94 L 619.688 1280.96 L 620.225 1280.26 C 620.735 1280.3 621.246 1280.34 621.757 1280.38 C 627.774 1281.24 634.815 1280.88 640.916 1280.87 L 640.839 1282.81 L 635.834 1283.58 z" fill="rgb(81,76,70)" transform="translate(0,0)"></path>
<path d="M 1177.5 907.942 C 1178.83 908.198 1180.16 908.465 1181.49 908.742 C 1190.18 919.321 1179.25 936.881 1176.75 949.987 C 1169.77 986.638 1152.17 958.804 1164.63 939.407 C 1170.55 930.184 1173.64 918.346 1177.5 907.942 z" fill="rgb(30,26,22)" transform="translate(0,0)"></path>
<path d="M 217.397 1404.84 C 222.947 1404.82 227.481 1409.05 226.886 1414.99 C 226.476 1419.08 218.748 1424.62 215.185 1426.83 C 208.455 1425.95 203.666 1424.16 204.187 1415.99 C 204.453 1411.81 213.953 1407.42 217.397 1404.84 z" fill="rgb(30,26,22)" transform="translate(0,0)"></path>
<path d="M 1504.62 792.329 C 1508.21 791.171 1512.15 792.05 1514.91 794.625 C 1517.66 797.2 1518.81 801.067 1517.89 804.728 C 1516.98 808.389 1514.16 811.268 1510.52 812.249 C 1505.07 813.717 1499.45 810.573 1497.85 805.165 C 1496.25 799.758 1499.26 794.061 1504.62 792.329 z" fill="rgb(30,26,22)" transform="translate(0,0)"></path>
<path d="M 992.226 1195.15 L 993.438 1197.9 C 992.232 1204.02 993 1209.44 993.521 1215.63 C 986.002 1225.33 986.148 1226.33 982.737 1238.91 L 980.805 1237.15 C 982.442 1222.41 981.037 1218.9 980.855 1205.05 C 985.61 1200.88 987.437 1199.96 992.226 1195.15 z" fill="rgb(30,26,22)" transform="translate(0,0)"></path>
<path d="M 802.887 1156.85 C 810.827 1155.23 830.012 1148.73 833.974 1157.99 C 837.3 1165.77 807.703 1160.39 803.901 1160.32 C 797.593 1160.35 792.147 1160.33 785.865 1159.92 C 784.535 1156.95 787.778 1158.08 790.046 1158.34 C 794.588 1157.93 798.359 1157.18 802.887 1156.85 z" fill="rgb(30,26,22)" transform="translate(0,0)"></path>
<path d="M 785.865 1159.92 C 784.535 1156.95 787.778 1158.08 790.046 1158.34 C 788.476 1159.28 787.652 1159.39 785.865 1159.92 z" fill="rgb(154,148,137)" transform="translate(0,0)"></path>
<path d="M 464.269 683.407 C 467.117 682.166 470.414 682.577 472.87 684.479 C 475.325 686.381 476.548 689.471 476.058 692.538 C 475.568 695.605 473.445 698.161 470.519 699.204 C 466.205 700.742 461.447 698.585 459.762 694.325 C 458.077 690.066 460.07 685.237 464.269 683.407 z" fill="rgb(30,26,22)" transform="translate(0,0)"></path>
<path d="M 701.3 1270.29 C 710.121 1268.79 720.921 1270.53 729.632 1272.31 C 725.847 1273.18 721.792 1274.17 717.994 1274.83 C 714.954 1275.38 711.901 1275.86 708.84 1276.27 C 698.387 1277.07 690.785 1275.7 680.488 1274.24 C 687.573 1272.88 694.15 1271.47 701.3 1270.29 z" fill="rgb(30,26,22)" transform="translate(0,0)"></path>
<path d="M 1835.74 778.578 C 1838.51 778.223 1841.25 779.451 1842.83 781.758 C 1844.41 784.065 1844.57 787.063 1843.24 789.523 C 1841.9 791.982 1839.31 793.489 1836.51 793.425 C 1832.61 793.336 1829.44 790.257 1829.24 786.362 C 1829.03 782.467 1831.87 779.073 1835.74 778.578 z" fill="rgb(30,26,22)" transform="translate(0,0)"></path>
<path d="M 1627.85 1004.75 C 1643 1005.06 1607.72 1024.2 1606.04 1025.36 C 1605.65 1025.43 1605.26 1025.51 1604.86 1025.59 C 1604.53 1025.55 1604.2 1025.51 1603.86 1025.48 C 1605.48 1020.94 1621.55 1008.58 1624.42 1006.82 L 1627.85 1004.75 z" fill="rgb(30,26,22)" transform="translate(0,0)"></path>
<path d="M 252.906 1190.64 C 255.252 1189.9 257.817 1190.5 259.59 1192.2 C 261.363 1193.91 262.06 1196.45 261.407 1198.82 C 260.754 1201.2 258.855 1203.02 256.458 1203.58 C 252.945 1204.4 249.411 1202.3 248.456 1198.82 C 247.501 1195.34 249.466 1191.73 252.906 1190.64 z" fill="rgb(30,26,22)" transform="translate(0,0)"></path>
<path d="M 467.974 897.592 C 471.443 896.341 475.268 898.141 476.517 901.61 C 477.766 905.08 475.964 908.905 472.494 910.151 C 469.026 911.397 465.206 909.597 463.958 906.131 C 462.71 902.664 464.508 898.842 467.974 897.592 z" fill="rgb(30,26,22)" transform="translate(0,0)"></path>
<path d="M 1309.8 702.747 C 1311.88 701.608 1314.42 701.703 1316.41 702.994 C 1318.4 704.284 1319.52 706.563 1319.33 708.927 C 1319.13 711.291 1317.66 713.36 1315.49 714.314 C 1312.33 715.703 1308.63 714.355 1307.11 711.256 C 1305.58 708.156 1306.77 704.406 1309.8 702.747 z" fill="rgb(30,26,22)" transform="translate(0,0)"></path>
<path d="M 1542.79 1096.99 C 1545.57 1100.06 1530.76 1118.41 1528.04 1122.13 C 1527.05 1121.04 1527.04 1120.73 1527.33 1119.27 C 1528.88 1110.98 1533.55 1103.6 1540.38 1098.66 C 1540.65 1098.47 1540.92 1098.29 1541.19 1098.11 L 1542.79 1096.99 z" fill="rgb(30,26,22)" transform="translate(0,0)"></path>
<path d="M 705.566 980.971 C 716.904 970.102 717.734 966.43 731.932 957.277 C 724.535 968.939 717.929 974.563 706.474 982.318 L 705.566 980.971 z" fill="rgb(30,26,22)" transform="translate(0,0)"></path>
<path d="M 1674.06 971.129 C 1678.94 968.952 1713.49 957.976 1717.36 958.815 C 1717.38 958.895 1717.4 958.975 1717.42 959.055 C 1714.04 961.723 1688.51 968.951 1683.13 970.407 L 1681.49 970.862 C 1679.64 971.35 1677.9 971.961 1676.12 972.662 L 1674.06 971.129 z" fill="rgb(81,76,70)" transform="translate(0,0)"></path>
<path d="M 1262.58 611.531 C 1264.35 610.392 1266.6 610.327 1268.43 611.363 C 1270.26 612.399 1271.36 614.364 1271.29 616.463 C 1271.22 618.563 1269.99 620.45 1268.09 621.361 C 1265.41 622.653 1262.18 621.634 1260.72 619.034 C 1259.26 616.433 1260.08 613.148 1262.58 611.531 z" fill="rgb(30,26,22)" transform="translate(0,0)"></path>
<path d="M 676.304 1002.63 C 681.268 1004.74 677.991 1005.28 674.831 1009.12 C 670.221 1014.71 663.701 1019.61 657.72 1023.68 C 651.336 1022.86 667.624 1011.85 666.901 1012.9 C 669.862 1008.61 672.044 1005.86 676.304 1002.63 z" fill="rgb(30,26,22)" transform="translate(0,0)"></path>
<path d="M 1793.11 894.669 C 1794.83 893.858 1795.09 894.048 1796.98 893.773 C 1806.83 892.344 1816.62 891.11 1826.5 889.847 C 1829.65 889.584 1833.53 888.176 1836.61 889.39 C 1836.58 889.394 1836.87 889.636 1836.8 889.724 C 1835.16 891.547 1826.42 891.729 1824 892.087 C 1816.86 893.143 1810.1 893.891 1803.07 895.239 C 1798.87 895.648 1796.23 896.26 1792.29 897.586 L 1793.11 894.669 z" fill="rgb(111,106,97)" transform="translate(0,0)"></path>
<path d="M 1455.35 844.629 C 1457.76 843.197 1460.88 843.991 1462.32 846.404 C 1463.76 848.817 1462.98 851.939 1460.57 853.385 C 1458.15 854.837 1455.01 854.048 1453.57 851.625 C 1452.12 849.202 1452.92 846.067 1455.35 844.629 z" fill="rgb(30,26,22)" transform="translate(0,0)"></path>
<path d="M 426.4 1352.57 C 427.914 1351.49 429.909 1351.35 431.563 1352.2 C 433.217 1353.06 434.25 1354.77 434.236 1356.64 C 434.222 1358.5 433.164 1360.2 431.498 1361.03 C 429.187 1362.18 426.377 1361.37 425.043 1359.16 C 423.71 1356.94 424.3 1354.08 426.4 1352.57 z" fill="rgb(30,26,22)" transform="translate(0,0)"></path>
<path d="M 1006.41 1274.85 C 1004.98 1281.2 1001.45 1287.92 1000.16 1294.52 C 1000.01 1295.26 997.754 1305.95 997.213 1306.28 C 996.783 1306.28 996.969 1306.34 996.648 1306.1 C 995.274 1302.69 1002.72 1276.68 1004.34 1272.23 C 1005.04 1273.36 1005.48 1273.77 1006.41 1274.85 z" fill="rgb(111,106,97)" transform="translate(0,0)"></path>
<path d="M 1177.5 907.942 C 1178.5 904.578 1187.64 880.178 1189.7 880.334 C 1189.98 880.774 1182.03 903.183 1181.49 908.742 C 1180.16 908.465 1178.83 908.198 1177.5 907.942 z" fill="rgb(81,76,70)" transform="translate(0,0)"></path>
<path d="M 1711.58 866.862 C 1719.7 868.638 1696.02 876.197 1693.32 877.604 C 1691.83 877.018 1689.1 876.482 1689.96 874.339 C 1688.93 875.162 1710 867.551 1711.58 866.862 z" fill="rgb(30,26,22)" transform="translate(0,0)"></path>
<path d="M 983.969 1436.77 C 984.268 1440.76 982.694 1445.9 985.826 1447.07 C 985.694 1453.5 982.925 1467.03 981.81 1474 C 980.423 1467.42 982.585 1443.83 983.969 1436.77 z" fill="rgb(81,76,70)" transform="translate(0,0)"></path>
<path d="M 928.892 1206.19 C 932.669 1206.08 949.437 1204.83 951.414 1207.3 C 950.98 1208.86 938.555 1206.88 934.893 1208.93 L 933.007 1209.03 C 931.48 1209.09 930.215 1209.16 928.704 1209.25 C 928.387 1209.03 928.07 1208.82 927.754 1208.6 C 928.187 1207.34 928.434 1207.86 928.892 1206.19 z" fill="rgb(111,106,97)" transform="translate(0,0)"></path>
<path d="M 813.32 1235.9 C 819.775 1234.03 828.126 1231.12 834.756 1230.38 C 838.661 1233.23 839.435 1232.01 844.547 1232.24 C 835.41 1233.86 822.621 1235.27 813.32 1235.9 z" fill="rgb(111,106,97)" transform="translate(0,0)"></path>
<path d="M 908.191 1197.17 C 913.11 1197.06 922.415 1199.23 927.452 1200.59 C 927.431 1200.87 927.441 1201.15 927.37 1201.42 C 921.838 1203.45 913.593 1197.53 905.843 1201.65 C 906.585 1199.01 907.268 1199.58 908.191 1197.17 z" fill="rgb(111,106,97)" transform="translate(0,0)"></path>
<path d="M 699.327 986.958 L 699.951 988.187 C 694.564 991.703 685.054 1000.6 679.649 1005.29 C 685.969 995.036 688.299 992.842 699.327 986.958 z" fill="rgb(81,76,70)" transform="translate(0,0)"></path>
<path d="M 757.868 943.254 L 760.379 944.246 C 757.015 947.299 752.645 950.063 749.025 952.898 C 748.428 953.535 747.727 953.882 747.018 954.267 C 746.432 954.586 744.948 954.388 745.298 953.676 C 747.283 949.63 753.873 947.787 756.732 944.552 L 757.868 943.254 z" fill="rgb(81,76,70)" transform="translate(0,0)"></path>
<path d="M 866.151 1157.05 C 865.187 1157.12 852.352 1159.34 852.859 1154.92 C 853.258 1151.45 860.021 1154.97 861.373 1154.78 C 862.122 1154.89 862.871 1155 863.621 1155.1 L 866.151 1157.05 z" fill="rgb(30,26,22)" transform="translate(0,0)"></path>
<path d="M 997.032 1176.99 L 999.009 1177.45 C 997.284 1184.84 994.973 1189.79 993.438 1197.9 L 992.226 1195.15 C 994.551 1188.88 994.603 1182.46 997.032 1176.99 z" fill="rgb(154,148,137)" transform="translate(0,0)"></path>
<path d="M 442.305 907.584 C 443.657 906.632 445.525 906.959 446.474 908.313 C 447.422 909.667 447.091 911.534 445.735 912.48 C 444.383 913.422 442.524 913.092 441.579 911.743 C 440.633 910.393 440.958 908.533 442.305 907.584 z" fill="rgb(30,26,22)" transform="translate(0,0)"></path>
<path d="M 988.394 1365.31 C 989.549 1359.72 990.131 1355.53 991.927 1350.03 L 993.752 1350.84 C 992.61 1356.13 991.254 1360.69 988.394 1365.31 z" fill="rgb(111,106,97)" transform="translate(0,0)"></path>
<path d="M 730.527 946.032 L 732.219 947.056 C 731.038 948.52 724.752 956.389 723.205 956.546 L 722.905 956.151 C 723.694 952.381 728.053 950.178 729.69 947.453 L 730.527 946.032 z" fill="rgb(111,106,97)" transform="translate(0,0)"></path>
<path d="M 1283.35 713.616 C 1284.66 712.991 1286.24 713.543 1286.88 714.855 C 1287.53 716.167 1286.99 717.751 1285.69 718.409 C 1284.83 718.842 1283.81 718.78 1283.01 718.247 C 1282.21 717.713 1281.76 716.791 1281.83 715.833 C 1281.9 714.874 1282.48 714.028 1283.35 713.616 z" fill="rgb(30,26,22)" transform="translate(0,0)"></path>
<path d="M 1809.09 836.522 C 1810.01 836.263 1811 836.52 1811.68 837.195 C 1812.36 837.87 1812.62 838.858 1812.37 839.781 C 1812.11 840.704 1811.38 841.417 1810.45 841.649 C 1809.04 842 1807.62 841.157 1807.25 839.756 C 1806.87 838.355 1807.7 836.915 1809.09 836.522 z" fill="rgb(30,26,22)" transform="translate(0,0)"></path>
<path d="M 360.067 839.476 C 361.406 839.155 362.76 839.948 363.135 841.273 C 363.511 842.597 362.775 843.983 361.466 844.412 C 360.571 844.707 359.586 844.487 358.901 843.839 C 358.217 843.192 357.941 842.221 358.184 841.311 C 358.428 840.4 359.15 839.696 360.067 839.476 z" fill="rgb(30,26,22)" transform="translate(0,0)"></path>
<path d="M 489.363 659.565 C 490.651 659.355 491.879 660.185 492.165 661.458 C 492.451 662.732 491.696 664.007 490.442 664.368 C 489.561 664.622 488.613 664.366 487.979 663.705 C 487.345 663.044 487.13 662.086 487.421 661.217 C 487.711 660.348 488.459 659.712 489.363 659.565 z" fill="rgb(30,26,22)" transform="translate(0,0)"></path>
<path d="M 802.693 648.718 C 805.379 650.558 806.764 652.158 809.031 654.512 C 804.959 653.106 803.577 652.45 799.835 650.05 L 802.693 648.718 z" fill="rgb(81,76,70)" transform="translate(0,0)"></path>
<path d="M 699.327 986.958 L 699.707 986.541 C 701.605 984.427 703.397 982.801 705.566 980.971 L 706.474 982.318 C 703.912 984.966 702.881 986.259 699.951 988.187 L 699.327 986.958 z" fill="rgb(188,181,169)" transform="translate(0,0)"></path>
<path d="M 1025.3 1120.63 C 1028.01 1122.96 1026.68 1124.36 1025.6 1127.78 L 1025.34 1128.73 C 1022.08 1127.27 1024.37 1123.51 1025.3 1120.63 z" fill="rgb(81,76,70)" transform="translate(0,0)"></path>
<path d="M 1246.51 1409.63 C 1248.75 1410.24 1251.49 1410.19 1249.66 1412.73 C 1247.04 1413.9 1246.23 1414.18 1246.44 1410.99 L 1246.51 1409.63 z" fill="rgb(30,26,22)" transform="translate(0,0)"></path>
<path d="M 1027.84 1107.23 L 1029.91 1109.02 C 1029.24 1111.04 1028.97 1111.94 1027.84 1113.74 L 1028.05 1113.29 L 1027.22 1114.45 C 1027.05 1114.48 1026.89 1114.5 1026.72 1114.53 C 1025.98 1113.47 1027.55 1108.39 1027.84 1107.23 z" fill="rgb(81,76,70)" transform="translate(0,0)"></path>
<path d="M 990.821 1163.55 C 994.461 1162.75 992.363 1164.98 991.355 1168.37 C 988.616 1167.74 989.784 1165.59 990.821 1163.55 z" fill="rgb(81,76,70)" transform="translate(0,0)"></path>
<path d="M 982.737 1238.91 C 982.469 1239.95 982.214 1243.14 980.656 1243.34 C 979.182 1242.26 980.483 1238.5 980.805 1237.15 L 982.737 1238.91 z" fill="rgb(111,106,97)" transform="translate(0,0)"></path>
<path d="M 640.916 1280.87 C 648.776 1279.39 650.927 1280.67 640.839 1282.81 L 640.916 1280.87 z" fill="rgb(154,148,137)" transform="translate(0,0)"></path>
<path d="M 649.856 1027.39 C 650.206 1027.2 650.795 1026.72 651.262 1026.77 C 651.334 1027.29 650.908 1028.01 650.737 1028.43 C 650.207 1028.92 649.918 1029.32 649.527 1029.35 C 649.539 1028.67 649.692 1028.09 649.856 1027.39 z" fill="rgb(30,26,22)" transform="translate(0,0)"></path>
<path d="M 784.511 904.395 C 785.586 902.458 785.595 901.988 787.173 900.602 C 788.597 900.481 789.724 900.299 791.129 900.08 C 788.847 902.029 787.323 903.734 784.511 904.395 z" fill="rgb(111,106,97)" transform="translate(0,0)"></path>
<path d="M 863.621 1155.1 C 865.001 1155.05 868.643 1154.58 869.57 1155.99 C 869.37 1156.98 867.475 1156.91 866.823 1156.98 L 866.151 1157.05 L 863.621 1155.1 z" fill="rgb(154,148,137)" transform="translate(0,0)"></path>
<path d="M 381.284 826.01 C 381.918 825.84 382.645 825.462 383.306 825.566 C 383.299 826.022 382.649 826.596 382.469 826.817 C 382.029 826.879 381.315 827.04 380.964 826.868 C 381.011 826.453 380.942 826.72 381.284 826.01 z" fill="rgb(81,76,70)" transform="translate(0,0)"></path>
<path d="M 1676.12 972.662 C 1671.43 973.336 1668.49 971.855 1674.06 971.129 L 1676.12 972.662 z" fill="rgb(154,148,137)" transform="translate(0,0)"></path>
<metadata><recraft-signature>{"signed_by": "recraft", "signature_b64": "k2a1V6ovPr+70kIgFna1sAKQtay8ocJYeoF1imLxeUfGrYnA6CmrGaew60gzx2VoqKcqCVpkrfvfqpWMxFbUBw==", "signing_algo": "Ed25519", "generation_timestamp": 1784211510, "identifier": "8410409c-e7c9-4257-82b0-f65babeae673"}</recraft-signature></metadata></svg>