<svg xmlns="http://www.w3.org/2000/svg" height="2048" preserveAspectRatio="none" style="display: block;" version="1.1" viewBox="0 0 2048 2048" width="2048">
<path d="M 1717.59 375.277 C 1723.36 376.203 1738.98 379.209 1741.72 384.411 C 1740.79 386.248 1741.39 385.527 1740.06 386.679 C 1758.61 399.941 1777.29 388.031 1788.36 420.386 C 1802.48 436.321 1817.14 452.224 1821.87 473.761 C 1823.13 479.526 1818.75 486.481 1816.93 492.543 C 1815.16 498.412 1814.12 510.803 1808.97 515.352 C 1793.11 529.377 1771.7 549.411 1751.09 554.912 C 1747.29 555.628 1736.2 554.257 1732.34 556.402 C 1732.39 561.322 1733.09 559.21 1730.49 563.069 C 1727.3 564.509 1725.23 565.304 1721.92 566.442 C 1717.86 574.098 1708.75 594.583 1700.44 597.109 C 1693.44 598.346 1688.94 599.885 1683.87 605.44 C 1651.68 640.698 1626.56 681.827 1598.65 720.491 C 1589.29 733.46 1578.65 751.944 1571.25 766.401 C 1567.11 774.492 1558.86 798.653 1553.15 804.165 L 1551.66 804.383 C 1551.37 799.352 1556.06 789.41 1557.68 783.283 C 1548.3 795.966 1544.61 806.743 1537.63 820.347 C 1533.46 826.005 1529.69 828.598 1526.21 835.046 C 1503.73 876.723 1484.59 920.081 1465.87 963.44 C 1440.11 1022.48 1413.82 1082.24 1395.99 1144.2 C 1392.33 1156.91 1385.31 1172.26 1382.59 1184.68 C 1376.17 1213.97 1381.67 1243.09 1368.77 1272.05 C 1362 1287.25 1352.77 1299.92 1344.47 1314.26 C 1335.82 1332.9 1327.25 1352.32 1318.38 1370.94 C 1316.87 1374.1 1314.13 1378.16 1310.62 1379.23 L 1308.97 1378.51 C 1307.01 1371.65 1315.7 1355.78 1317 1347.26 C 1312.49 1353.85 1309.57 1360.8 1306.41 1368.13 C 1305.96 1369.82 1305.03 1371.2 1304.28 1373.2 L 1302.56 1371.31 C 1302.72 1370.73 1302.95 1369.7 1303.37 1369.23 C 1306.13 1366.1 1303.76 1362.97 1305.38 1359.2 C 1313.3 1323 1323.84 1317.86 1307.48 1283.06 C 1308.71 1280.68 1309.53 1277.75 1310.36 1275.17 C 1312.53 1263.61 1316.57 1251.93 1318.66 1240.32 C 1326.33 1197.65 1338.43 1156.16 1348.25 1113.99 C 1355.16 1084.29 1370.65 1050.83 1375.19 1020.99 C 1360.45 1040.66 1339.37 1115.38 1329.57 1141.45 C 1323.38 1159.93 1315.31 1177.98 1309.36 1196.5 C 1306.89 1204.21 1307.75 1211.77 1304.83 1220.55 C 1301.23 1215.81 1303.84 1217.57 1301.96 1213.31 C 1293.91 1212.43 1286.58 1209.49 1280.41 1213.55 C 1275.69 1219.81 1275.15 1239.19 1271.86 1241.32 C 1271.18 1240 1274.28 1196.24 1274.94 1192.54 C 1280.84 1159.09 1296.52 1127.26 1307.75 1095.75 C 1316.69 1070.63 1323.06 1045.61 1335.62 1021.37 C 1339.51 1011.02 1343.06 1000.76 1347.31 990.534 C 1353.99 974.113 1366.34 956.96 1372.95 940.967 C 1393.8 890.503 1423.01 847.501 1451.17 801.088 C 1490.37 736.475 1537.34 675.802 1579.94 613.188 C 1595.44 590.409 1610.93 568.779 1627.1 546.503 C 1604.88 547.767 1582.22 549.415 1560.11 552.204 C 1548.19 553.708 1536.99 557.116 1525.34 558.929 C 1512.51 560.925 1484.55 564.377 1473.22 569.247 C 1457.01 577.176 1440.21 586.107 1425.02 595.805 C 1405.83 608.351 1383.02 630.904 1360.56 635.757 C 1352.15 637.575 1314.36 628.758 1308.74 621.87 C 1299.02 609.946 1298.23 610.495 1281.02 605.591 C 1274.64 603.775 1259.92 596.77 1253.46 593.699 C 1250.14 592.014 1245.55 584.658 1243.14 581.625 C 1231.17 566.575 1220.23 543.975 1219.82 524.598 C 1219.58 513.292 1221.7 498.043 1227.06 487.651 C 1251.09 473.056 1277.73 467.39 1302.83 456.142 C 1323.19 446.169 1344.8 450.116 1366.41 444.69 C 1430.68 428.551 1495.78 417.308 1561.14 406.964 C 1587.02 400.362 1611.25 392.962 1638.4 395.45 C 1647.28 396.264 1672.82 401.064 1680 396.952 C 1690.24 391.092 1707.83 381.726 1717.59 375.277 z" fill="rgb(26,26,26)" transform="translate(0,0)"></path>
<path d="M 1302.56 1371.31 C 1302.72 1370.73 1302.95 1369.7 1303.37 1369.23 C 1306.13 1366.1 1303.76 1362.97 1305.38 1359.2 C 1306.04 1362.11 1305.91 1364.85 1306.41 1368.13 C 1305.96 1369.82 1305.03 1371.2 1304.28 1373.2 L 1302.56 1371.31 z" fill="rgb(175,174,173)" transform="translate(0,0)"></path>
<path d="M 1427.43 990.424 C 1420.24 1016 1416.38 1039.84 1407.2 1065.23 C 1403.3 1076.04 1399.05 1070.48 1395.94 1085.38 C 1394.13 1095.83 1389.11 1106.19 1386.48 1116.88 L 1388.31 1118.2 C 1390.18 1112.68 1397.18 1090.89 1400.6 1087.66 L 1402.67 1088.95 C 1394.72 1105.29 1386.66 1159.85 1377.03 1169.19 L 1375.41 1169.05 C 1369.71 1157.62 1380.43 1108.94 1383.27 1095.3 C 1387.47 1075.18 1402.4 1060.24 1403.74 1038.39 C 1404.21 1030.65 1422.85 997.526 1427.43 990.424 z" fill="rgb(243,236,220)" transform="translate(0,0)"></path>
<path d="M 1386.48 1116.88 L 1388.31 1118.2 C 1384.8 1128.05 1383.49 1125.11 1386.48 1116.88 z" fill="rgb(112,110,110)" transform="translate(0,0)"></path>
<path d="M 1559.87 674.784 C 1550.2 698.856 1532.9 718.951 1519.17 740.733 C 1512.1 751.938 1506.66 749.986 1503.22 765.964 C 1506.09 765.211 1506.92 764.671 1509.35 763.119 C 1509.06 766.214 1507.13 769.289 1505.69 772.158 L 1503.98 773.329 C 1501.72 771.529 1502.72 772.56 1501.5 769.625 C 1494.81 780.252 1488.76 789.555 1481.51 799.801 L 1482.12 800.583 L 1484.75 800.829 C 1484.55 803.976 1481.46 810.629 1479.13 812.69 L 1475.99 811.325 C 1466.91 815.834 1471.25 831.899 1458.65 838.953 C 1456.78 844.311 1454.09 848.122 1451.08 852.873 C 1452.08 846.213 1453.06 843.393 1455.14 837.016 C 1459.76 824.999 1465.52 816.544 1471.21 805.529 C 1487.24 774.455 1506.94 747.461 1526.93 719.108 C 1539.74 700.931 1542.7 691.283 1559.87 674.784 z" fill="rgb(243,236,220)" transform="translate(0,0)"></path>
<path d="M 1622.58 585.515 C 1630.26 587.508 1608.78 614.096 1605.48 617.911 C 1593.13 632.183 1577.33 659.095 1565.76 672.009 C 1559.64 667.701 1565.47 664.229 1568.88 659.257 C 1577.27 647.982 1585.96 636.991 1594.16 625.577 C 1601.55 615.28 1612.99 592.66 1622.58 585.515 z" fill="rgb(243,236,220)" transform="translate(0,0)"></path>
<path d="M 1467.61 795.932 C 1468.07 800.926 1431.4 866.126 1425.55 875.297 C 1423.86 867.968 1454.38 813.358 1460.06 803.552 C 1461.63 800.835 1465.1 797.911 1467.61 795.932 z" fill="rgb(243,236,220)" transform="translate(0,0)"></path>
<path d="M 1407.23 931.458 C 1407.34 931.558 1409.15 933.006 1409.49 933.49 C 1409.37 934.304 1406.99 935.846 1406.13 937.985 C 1401.07 950.67 1397.72 963.679 1393.42 976.621 C 1391.77 981.603 1387.02 986.135 1386.71 991.48 C 1386.82 996.817 1385.11 997.151 1381.4 1001.65 L 1380.83 1002.36 C 1377.79 1001.95 1380.78 998.327 1381.88 994.988 C 1388.47 975.048 1398.51 950.435 1407.23 931.458 z" fill="rgb(243,236,220)" transform="translate(0,0)"></path>
<path d="M 1620.5 576.745 C 1620.63 576.875 1621.81 577.895 1621.7 578.121 C 1612.83 595.108 1598.07 611.268 1586.88 626.97 C 1586.65 627.281 1585.09 630.145 1585.1 630.132 C 1581.42 623.77 1585.49 622.817 1591.47 615.984 C 1602.38 603.533 1608.68 588.1 1620.5 576.745 z" fill="rgb(243,236,220)" transform="translate(0,0)"></path>
<path d="M 1543.59 676.043 C 1543.24 682.983 1524.3 711.314 1518.85 717.327 C 1518.9 717.458 1518.09 715.667 1518.2 715.345 C 1520.93 707.394 1539 681.422 1543.59 676.043 z" fill="rgb(243,236,220)" transform="translate(0,0)"></path>
<path d="M 1606.56 630.819 C 1607.27 635.422 1599.27 643.366 1595.75 646.077 C 1593.98 640.458 1602.34 633.775 1606.56 630.819 z" fill="rgb(243,236,220)" transform="translate(0,0)"></path>
<path d="M 1395.43 927.689 C 1398.47 930.612 1393.16 938.845 1391.43 942.208 C 1387.09 937.789 1392.67 931.493 1395.43 927.689 z" fill="rgb(243,236,220)" transform="translate(0,0)"></path>
<path d="M 1587.85 653.901 C 1587.95 659.741 1584.5 662.29 1579.91 665.26 C 1579 661.517 1585.21 656.712 1587.85 653.901 z" fill="rgb(243,236,220)" transform="translate(0,0)"></path>
<path d="M 1489.05 759.989 C 1489.95 762.772 1485.57 770.049 1484.07 772.603 C 1483.01 768.306 1483.52 766.17 1486.64 762.658 L 1489.05 759.989 z" fill="rgb(243,236,220)" transform="translate(0,0)"></path>
<path d="M 1443.67 822.534 C 1444.16 822.669 1444.68 822.679 1444.98 823.05 C 1444.58 823.499 1444.18 823.733 1443.64 824.079 C 1443.17 823.765 1442.63 823.554 1442.4 823.078 C 1442.7 822.703 1443.17 822.688 1443.67 822.534 z" fill="rgb(243,236,220)" transform="translate(0,0)"></path>
<path d="M 1400.88 918.229 C 1401.93 918.046 1401.59 917.782 1402.32 918.292 C 1402.19 918.939 1401.69 919.121 1401.11 919.563 C 1400.67 919.832 1400.13 920.319 1399.64 919.935 C 1399.57 919.262 1400.35 918.887 1400.88 918.229 z" fill="rgb(243,236,220)" transform="translate(0,0)"></path>
<path d="M 445.303 473.643 C 482.754 430.746 511.876 400.829 566.443 378.503 C 592.261 367.94 608.847 364.387 637.234 361.783 C 655.149 360.139 674.93 365.283 692.145 370.109 C 696.673 371.378 702.32 375.035 707.106 376.54 C 712.522 378.243 719.713 378.504 724.386 381.202 C 740.295 390.385 757.389 403.633 771.096 415.8 C 787.601 430.45 802.729 447.269 817.751 463.326 C 821.416 467.244 832.832 475.936 837.538 479.633 C 837.378 480.731 836.896 483.573 837.434 484.5 C 848.259 503.158 856.421 522.633 864.691 542.496 C 868.396 551.396 871.859 560.503 873.655 570.026 C 874.584 574.55 870.253 572.572 870.653 577.985 C 869.507 604.059 867.641 629.769 860.718 655.087 C 859.512 659.498 857.816 666.956 855.944 670.912 C 854.861 669.657 854.189 668.785 853.217 667.441 C 850.471 670.594 848.42 684.998 847.281 690.149 C 843.801 705.902 838.816 720.515 830.212 734.257 C 827.419 724.59 835.413 718.71 834.133 713.795 C 829.212 716.713 822.416 739.829 819.406 746.774 C 814.142 758.919 808.679 771.365 803.497 783.551 L 802.029 785.75 C 806.16 791.904 803.166 795.996 799.332 801.982 L 796.988 803.16 C 797.365 797.129 802.519 795.795 800.457 789.622 C 798.638 792.689 795.958 796.868 794.557 800.004 C 792.31 803.624 783.282 819.687 781.901 821.213 C 785.959 822.361 787.246 821.981 789.723 824.547 C 789.401 827.434 789.131 827.376 787.465 829.848 C 785.336 824.825 784.826 825.674 780.004 825.319 C 779.003 827.184 777.991 829.16 776.929 830.978 C 767.161 848.486 756.657 866.554 747.261 884.137 C 744.99 887.74 742.711 891.468 740.349 894.998 C 736.91 900.262 728.023 915.53 723.595 918.214 C 723.436 914.594 727.583 908.926 729.632 905.574 C 757.012 855.362 789.526 793.268 808.376 739.246 C 807.88 735.652 808.264 733.391 806.615 730.217 C 803.458 735.033 801.136 738.626 797.436 743.12 C 807.111 717.713 812.547 701.988 818.587 675.578 C 812.215 688.569 805.38 701.446 799.258 714.545 C 792.785 728.392 784.395 756.839 775.72 768.347 C 774.918 767.386 772.496 765.14 772.922 764.033 C 778.879 748.563 786.521 737.195 790.193 720.548 C 779.47 736.285 772.734 758.506 764.13 775.913 C 760.595 783.066 741.193 818.693 741.483 823.359 L 742.729 823.322 C 752.625 811.191 764.045 776.563 772.614 769.398 L 774.696 770.083 C 759.345 796.771 747.909 827.512 732.775 854.463 C 731.938 855.953 731.488 860.292 731.407 862.008 C 728.641 864.747 729.596 863.891 725.319 864.942 C 724.204 867.353 724.384 866.574 723.963 869.158 C 723.536 875.594 715.054 886.396 713.848 893.572 C 713.474 895.794 713.224 896.055 712.01 897.826 L 712.958 899.878 C 725.249 882.777 730.085 876.287 740.945 857.356 L 742.353 859.409 C 729.966 886.344 712.423 913.551 695.239 937.673 C 692.759 941.154 686.999 949.925 684.072 952.485 C 678.217 957.608 677.197 954.496 672.034 962.769 C 666.062 969.146 651.955 989.463 649.335 997.992 C 658.347 988.413 663.419 978.328 671.265 968.378 L 673.462 969.453 C 663.704 984.689 652.318 1002.18 643.315 1018.08 C 642.706 1019.16 642.879 1022.11 642.882 1023.4 C 637.218 1024.02 637.75 1023.36 633.978 1028.17 C 605.553 1064.48 576.788 1101.13 546.094 1135.58 C 538.904 1143.65 532.588 1152.58 524.955 1160.26 C 519.142 1166.1 496.845 1183.66 490.005 1184.84 C 488.516 1183.01 487.776 1182.16 485.803 1180.87 C 482.048 1181.3 481.42 1181.96 478.271 1183.92 C 472.886 1188.32 468.974 1190.57 463.017 1194.15 C 467.724 1189.64 471.815 1186.02 475.652 1180.73 C 459.343 1182.3 455.027 1192.16 442.125 1199.25 L 441.385 1198.56 L 442.211 1194.87 C 439.04 1194.96 418.388 1209 412.959 1212.06 C 401.544 1221.04 388.106 1230.75 376.177 1239.11 L 374.015 1238.36 C 381.025 1233.11 407.265 1215.19 409.101 1208.93 L 409.586 1206.81 C 410.486 1206.54 414.885 1205.52 415.136 1205.3 C 426.634 1195.06 438.352 1187.79 443.773 1172.78 C 434.661 1178.07 426.821 1184.62 417.117 1189.17 C 419.542 1186.38 424.277 1181.65 425.124 1178.41 L 423.825 1177.4 L 417.969 1178.36 C 415.215 1181.42 396.234 1196.4 393.19 1196.32 C 393.821 1193.6 412.358 1179.45 415.76 1176.71 C 418.941 1172.82 422.16 1169.05 425.014 1164.91 C 413.326 1172.34 395.961 1187.97 383.906 1186.47 C 390.682 1173.77 400.089 1173.85 408.678 1160.44 C 408.4 1158.72 408.415 1159.35 405.826 1158.82 C 415.763 1149.99 448.365 1122.49 450.17 1110 C 450.448 1109.21 450.231 1105.27 450.672 1104.82 C 464.143 1090.84 475.796 1075.43 487.974 1060.35 C 503.738 1040.83 518.707 1020.67 533.162 1000.16 C 542.664 986.684 553.362 974.062 562.139 960.064 C 612.356 886.229 651.88 805.443 688.907 724.376 C 693.85 713.554 698.898 702.598 704.009 691.895 C 713.501 672.672 721.801 653.219 727.643 632.634 C 735.272 605.749 740.712 580.837 741.079 552.823 C 741.161 546.624 744.841 536.404 746.028 529.458 C 748.205 516.709 750.122 497.228 741.506 486.453 C 736.574 480.682 730.515 478.071 726.282 470.775 C 706.952 462.762 704.087 464.429 683.169 467.016 C 675.197 468.001 657.166 464.828 649.671 467.113 C 629.328 473.313 607.892 482.25 588.504 491.033 C 564.322 506.708 540.842 535.245 524.616 559.645 C 494.508 604.92 460.086 669.809 465.72 725.402 C 468.817 744.656 486.44 784.152 503.682 795.754 C 509.266 796.984 511.349 798.2 516.353 800.683 C 510.511 799.707 504.679 798.676 498.856 797.592 C 498.514 799.31 497.654 801.445 498.472 802.329 C 503.454 807.707 522.972 811.275 530.093 812.918 L 527.196 814.648 C 509.14 810.552 497.218 807.783 478.547 807.97 C 448.959 808.266 422.071 789.899 398.261 774.519 C 395.058 772.65 383.962 772.619 381.872 770.166 C 369.97 756.197 355.32 739.37 349.61 721.742 C 344.316 705.4 345.556 683.853 333.48 671.585 C 337.27 628.421 344.784 588.408 363.87 549.296 C 366.734 543.427 371.066 532.098 375.025 527.676 L 376.667 527.748 C 375.224 536.919 366.229 555.237 362.879 563.293 C 357.623 575.934 347.447 640.285 351.694 649.905 L 352.966 649.598 C 362.661 633.957 369.374 590.349 377.359 574.003 C 382.49 563.712 391.072 548.305 397.249 538.82 C 399.166 535.674 400.204 533.447 403.063 531.094 L 404.663 532.743 C 410.446 524.804 415.642 515.45 420.652 506.923 C 428.603 495.75 436.536 484.156 445.303 473.643 z" fill="rgb(26,26,26)" transform="translate(0,0)"></path>
<path d="M 806.615 730.217 C 807.265 728.35 813.976 708.166 816.285 709.021 C 817.203 710.518 810.131 727.309 809.528 729.897 C 808.811 732.977 808.804 736.272 808.376 739.246 C 807.88 735.652 808.264 733.391 806.615 730.217 z" fill="rgb(243,236,220)" transform="translate(0,0)"></path>
<path d="M 712.01 897.826 L 712.958 899.878 C 702.468 915.123 703.376 907.433 712.01 897.826 z" fill="rgb(175,174,173)" transform="translate(0,0)"></path>
<path d="M 591.181 380.059 C 592.407 379.473 592.705 379.287 593.982 378.95 L 594.384 380.153 C 591.143 381.593 588.242 381.739 591.675 383.523 C 599.836 381.882 607.953 379.986 616.264 379.667 L 618.015 381.299 L 617.324 379.67 L 619.192 380.265 C 615.565 384.855 574.903 395.889 562.481 402.037 C 495.473 435.202 425.407 523.398 394.46 589.814 C 389.646 600.902 386.065 611.395 381.825 622.658 C 382.573 607.713 386.751 571.754 399.686 562.974 C 399.693 559.383 399.534 559.242 398.624 555.912 C 398.256 552.274 400.55 549.154 402.376 545.81 C 411.769 532.916 426.696 503.146 435.002 492.01 C 456.932 462.604 557.308 373.075 591.181 380.059 z" fill="rgb(243,236,220)" transform="translate(0,0)"></path>
<path d="M 591.181 380.059 C 592.407 379.473 592.705 379.287 593.982 378.95 L 594.384 380.153 C 591.143 381.593 588.242 381.739 591.675 383.523 C 590.069 384.293 588.13 384.802 586.351 385.469 L 583.818 383.599 C 587.466 382.369 588.034 382.198 591.181 380.059 z" fill="rgb(84,82,81)" transform="translate(0,0)"></path>
<path d="M 586.351 385.469 C 585.072 385.753 582.281 386.622 581.31 386.68 C 577.629 386.901 580.82 385 582.017 384.466 L 583.818 383.599 L 586.351 385.469 z" fill="rgb(112,110,110)" transform="translate(0,0)"></path>
<path d="M 393.281 578.76 L 395.179 580.165 C 393.997 583.724 393.142 586.074 391.246 589.241 C 391.119 589.526 390.811 590.354 390.567 590.456 C 389.248 589.163 392.675 580.805 393.281 578.76 z" fill="rgb(150,148,146)" transform="translate(0,0)"></path>
<path d="M 399.158 568.9 C 397.854 574.166 397.426 575.224 395.179 580.165 L 393.281 578.76 C 394.609 575.005 395.16 572.896 398.074 570.015 L 399.158 568.9 z" fill="rgb(26,26,26)" transform="translate(0,0)"></path>
<path d="M 405.368 601.98 C 408.936 585.67 414.333 569.814 421.458 554.714 C 443.086 509.277 510.576 428.007 558.514 413.004 C 560.905 412.255 563.081 411.765 565.436 412.902 C 564.245 415.288 564.124 414.653 560.832 415.944 L 557.813 418.697 L 557.752 420.214 C 561.352 420.42 562.477 420.081 565.936 419.431 C 563.528 424.598 563.023 424.393 557.324 426.748 C 552.611 429.784 547.58 432.902 542.955 436.014 C 518.244 454.898 502.981 469.629 483.12 493.852 C 481.619 494.099 480.55 494.145 479.043 494.236 C 474.464 497.512 455.013 529.122 450.906 535.478 C 443.667 546.679 439.369 557.834 429.85 568.895 C 432.012 563.06 433.503 558.714 436.495 553.24 C 439.696 548.874 442.298 542.795 444.233 537.779 C 440.283 542.071 437.781 546.86 434.79 551.887 C 433.546 553.579 427.56 560.918 427.051 561.761 C 419.65 574.017 413.525 589.534 408.12 602.849 C 407.115 606.737 407.747 606.755 405.345 609.233 C 404.013 606.739 404.874 605.491 405.368 601.98 z" fill="rgb(243,236,220)" transform="translate(0,0)"></path>
<path d="M 445.456 530.495 C 447.865 533.644 447.099 534.945 444.233 537.779 C 441.295 533.49 441.838 533.882 445.456 530.495 z" fill="rgb(26,26,26)" transform="translate(0,0)"></path>
<path d="M 479.043 494.236 C 479.59 492.496 480.151 488.827 481.723 487.83 C 483.169 488.012 482.081 491.457 483.12 493.852 C 481.619 494.099 480.55 494.145 479.043 494.236 z" fill="rgb(84,82,81)" transform="translate(0,0)"></path>
<path d="M 541.213 434.014 C 531.819 439.587 517.511 448.369 508.303 455.427 C 508.05 455.621 507.509 455.403 507.17 455.175 C 506.937 454.655 506.787 454.48 507.182 454.169 C 515.177 447.858 545.92 425.759 553.462 423.876 C 551.378 428.152 545.255 431.343 541.213 434.014 z" fill="rgb(26,26,26)" transform="translate(0,0)"></path>
<path d="M 450.681 522.508 C 451.486 522.836 451.879 522.639 452.028 523.42 C 451.636 524.116 451.425 524.121 450.644 524.63 C 450.073 524.396 449.231 524.322 449.164 523.585 C 449.463 522.928 449.946 522.851 450.681 522.508 z" fill="rgb(26,26,26)" transform="translate(0,0)"></path>
<path d="M 729.539 841.044 C 730.525 839.272 734.09 832.913 736.854 833.517 C 738.944 836.452 730.7 839.99 732.548 843.544 C 732.937 844.292 732.19 845.918 731.894 846.648 C 729.018 851.24 726.418 856.123 723.609 860.766 C 722.894 863.234 722.738 863.955 721.616 866.24 C 717.038 873.241 709.322 888.472 705.653 892.693 C 698.575 900.836 692.509 914.637 686.451 920.505 L 685.333 920.253 L 685.327 921.078 L 685.891 920.86 L 685.248 920.219 C 685.112 913.808 722.96 848.645 729.539 841.044 z" fill="rgb(243,236,220)" transform="translate(0,0)"></path>
<path d="M 380.464 574.36 C 383.068 570.184 396.56 541.369 399.426 541.871 C 401.403 544.103 396.618 552.024 395.632 553.966 C 394.679 555.533 380.062 586.386 380.464 574.36 z" fill="rgb(243,236,220)" transform="translate(0,0)"></path>
<path d="M 500.735 1050.85 C 504.137 1054.16 484.721 1074.14 482.116 1077.27 C 478.765 1073.99 495.481 1054.8 499.167 1052.05 L 500.735 1050.85 z" fill="rgb(243,236,220)" transform="translate(0,0)"></path>
<path d="M 593.982 378.95 C 597.54 376.605 599.717 375.408 604.489 374.769 C 607.23 374.402 617.75 371.122 620.254 373.24 C 622.12 374.819 614.346 376.206 614.016 376.109 C 610.476 376.815 607.008 377.451 603.512 378.157 C 600.462 378.788 597.419 379.453 594.384 380.153 L 593.982 378.95 z" fill="rgb(243,236,220)" transform="translate(0,0)"></path>
<path d="M 517.126 1031.55 C 521.889 1033.46 511.76 1044.07 509.814 1046.21 C 503.745 1041.34 512.719 1034.67 517.126 1031.55 z" fill="rgb(243,236,220)" transform="translate(0,0)"></path>
<path d="M 635.814 376.203 C 637.209 376.497 637.668 376.413 638.306 377.74 C 637.13 381.241 628.828 381.105 625.883 381.368 C 619.731 379.204 635.243 376.328 635.814 376.203 z" fill="rgb(243,236,220)" transform="translate(0,0)"></path>
<path d="M 600.498 1056.6 C 605.739 1058.18 599.046 1063.15 596.442 1066.49 L 595.805 1067.32 C 589.311 1069.42 600.332 1056.77 600.498 1056.6 z" fill="rgb(243,236,220)" transform="translate(0,0)"></path>
<path d="M 473.77 1083.79 C 476.387 1086.45 468.242 1093.63 466.012 1096.04 C 463.528 1093.5 471.794 1085.94 473.77 1083.79 z" fill="rgb(243,236,220)" transform="translate(0,0)"></path>
<path d="M 838.83 700.747 C 842.241 703.721 838.611 705.967 836.024 708.075 C 833.173 703.6 834.455 703.883 838.83 700.747 z" fill="rgb(243,236,220)" transform="translate(0,0)"></path>
<path d="M 377.975 585.38 C 378.417 585.629 378.657 585.649 378.83 586.014 C 378.602 586.273 378.125 586.617 377.714 586.876 C 377.256 586.663 376.874 586.614 376.662 586.232 C 376.918 585.986 377.527 585.616 377.975 585.38 z" fill="rgb(175,174,173)" transform="translate(0,0)"></path>
<path d="M 1060.6 345.95 L 1062.18 345.731 C 1072.02 344.291 1083.13 336.007 1091.62 340.092 C 1095.5 341.955 1095.04 348.495 1095.24 352.507 C 1109.61 366.557 1125.5 371.53 1140.62 388.828 C 1156.79 404.513 1173.56 425.426 1176.03 448.495 C 1176.48 452.696 1175.09 465.603 1175.89 468.564 C 1184.8 501.557 1171.86 520.896 1159.44 551.134 C 1151.15 571.32 1144.35 604.51 1148.46 627.28 C 1141.09 643.799 1141.16 664.282 1136.5 682.99 C 1133.57 694.763 1128.75 702.311 1126.88 711.362 C 1118.53 751.806 1114.12 793.385 1107.69 833.825 C 1107.16 838.043 1106.76 842.013 1105.82 846.167 C 1104.61 839.824 1105 836.153 1105.4 829.862 C 1106.15 823.008 1106.98 816.409 1107.13 809.509 C 1102.56 826.824 1099.24 853.069 1099.13 871.46 L 1100.35 871.612 L 1103.44 874.248 L 1102.38 884.634 C 1102.15 886.71 1101.66 892.252 1101.19 893.979 C 1096.35 946.838 1088.75 998.998 1086.66 1051.92 C 1085.95 1070.01 1082.26 1089.57 1082.13 1107.89 C 1081.73 1124.63 1082.58 1141.38 1082.86 1158.11 C 1083.03 1178.72 1083.01 1199.33 1082.78 1219.93 C 1082.67 1235.27 1082.61 1250.33 1080.86 1265.61 C 1080.31 1270.43 1075.28 1273.93 1075.09 1276.14 C 1073.5 1294.17 1064.34 1307.51 1056.13 1323.27 C 1052.61 1330.03 1052.57 1341.47 1048.9 1347.94 L 1047.74 1347.5 L 1046.41 1344.46 C 1044.44 1347.7 1040.17 1378 1039.82 1383.2 C 1039.95 1385.37 1039.93 1386.96 1039.16 1389.03 L 1039.31 1388.8 L 1038.75 1389.03 L 1038.66 1389.19 C 1036.51 1387.1 1036.89 1379.27 1036.98 1376.48 C 1037.28 1368.97 1038.45 1338.44 1032.79 1334.47 C 1028.35 1337.42 1027.51 1346.91 1026.64 1351.96 C 1026.43 1354.46 1026.02 1355.74 1025.4 1358.23 C 1023.8 1354.96 1023.73 1354.64 1024.71 1351.06 C 1024.1 1347.84 1024.64 1347.43 1022.7 1345.75 C 1020.39 1350 1020.84 1362.48 1020.95 1367.59 C 1019 1386.63 1013.1 1396.53 1011.9 1416.34 C 1012.37 1421.77 1010.69 1431.77 1009.87 1437.3 C 1008.71 1423.42 1008.24 1397.95 1009.1 1383.98 C 1007.76 1351.16 1007.32 1318.31 1004.65 1285.43 C 1003.85 1275.65 999.722 1263.12 999.259 1253.32 C 998.102 1228.78 1000.56 1204.85 999.566 1180.14 C 999.106 1168.74 996.087 1165.2 995.472 1156.83 L 989.892 1072 C 988.966 1059.04 988.692 1046.05 989.071 1033.06 C 989.616 1018.01 991.75 1001.83 987.055 987.307 C 983.794 977.215 988.404 974.231 988.532 965.323 C 988.688 954.525 988.417 943.691 989.349 932.831 C 990.816 906.939 990.883 881.461 989.341 855.604 C 989.216 853.512 992.376 848.747 993.548 846.923 C 991.851 825.249 996.591 779.348 1002.87 759.422 L 1002.55 758.481 C 993.97 732.202 1008.28 676.453 1006.85 647.268 C 1002.64 645.58 1003.09 645.926 1001.52 642.16 C 998.379 637.043 996.899 635.9 998.28 630.401 C 998.728 628.638 999.224 626.888 999.767 625.151 C 984.138 640.434 970.908 645.737 957.269 657.647 C 956.231 658.346 954.593 659.016 953.403 659.573 L 952.934 658.76 L 955.637 655.555 C 960.963 649.569 963.79 645.341 967.883 638.577 C 962.892 641.196 956.507 645.232 951.535 648.176 L 943.448 653.363 L 942.486 651.501 L 948.249 646.513 C 955.67 637.886 959.049 632.032 963.309 621.312 C 947.2 631.634 927.057 649.292 910.791 660.197 C 902.247 665.925 889.405 671.949 880.055 676.445 C 886.722 669.172 892.86 667.724 899.061 660.146 C 889.038 660.74 887.47 660.861 878.257 665.713 L 877.006 663.905 C 914.061 636.503 929.028 624.157 952.275 583.919 C 956.536 576.544 961.346 566.84 965.495 560.023 C 975.312 543.893 987.388 532.269 990.18 512.99 C 993.147 492.498 994.271 464.776 1010 450.307 C 1014.53 446.141 1022.49 436.482 1025.01 430.767 C 1027.85 424.315 1027.77 412.601 1029.6 406.324 C 1034.21 390.458 1048.61 356.046 1060.6 345.95 z" fill="rgb(26,26,26)" transform="translate(0,0)"></path>
<path d="M 1009.1 1383.98 C 1009.95 1391.22 1009.36 1414.49 1010.39 1418.14 C 1011 1417.61 1011.26 1417.05 1011.9 1416.34 C 1012.37 1421.77 1010.69 1431.77 1009.87 1437.3 C 1008.71 1423.42 1008.24 1397.95 1009.1 1383.98 z" fill="rgb(112,110,110)" transform="translate(0,0)"></path>
<path d="M 1036.98 1376.48 C 1037.3 1378.28 1037.61 1383.01 1038.57 1384.2 C 1038.99 1383.87 1039.4 1383.53 1039.82 1383.2 C 1039.95 1385.37 1039.93 1386.96 1039.16 1389.03 L 1039.31 1388.8 L 1038.75 1389.03 L 1038.66 1389.19 C 1036.51 1387.1 1036.89 1379.27 1036.98 1376.48 z" fill="rgb(112,110,110)" transform="translate(0,0)"></path>
<path d="M 1024.71 1351.06 C 1025.53 1352.61 1025.21 1352.61 1026.64 1351.96 C 1026.43 1354.46 1026.02 1355.74 1025.4 1358.23 C 1023.8 1354.96 1023.73 1354.64 1024.71 1351.06 z" fill="rgb(112,110,110)" transform="translate(0,0)"></path>
<path d="M 1044.43 866.267 L 1044.54 865.413 C 1045.49 856.999 1043.52 847.294 1048.24 842.6 L 1049.51 843.595 C 1050.21 852.778 1046.46 865.181 1046.72 878.625 C 1047.03 892.206 1044.59 901.397 1044.32 912.543 C 1043.56 943.434 1040.09 991.384 1044.28 1020.89 C 1044.38 1025.88 1044.06 1046.71 1045.57 1049.71 C 1053.02 1055.09 1049.97 1066.6 1051.04 1075.42 L 1050.94 1113.2 C 1050.34 1124.56 1050.15 1140.58 1046.45 1150.98 L 1045.45 1151.48 L 1045.14 1150.95 L 1045.97 1151.3 L 1046.4 1150.3 L 1044.75 1149.62 C 1043.18 1140.55 1042.57 1134.61 1041.92 1125.39 L 1039.94 1125.88 C 1039.66 1130.23 1039.45 1134.86 1039.03 1139.17 C 1039.07 1142.67 1039.6 1146.99 1037.87 1149.76 C 1036.36 1146.98 1036.45 1143.87 1036.66 1140.57 C 1035.37 1137.8 1031.63 1132.32 1031.39 1129.34 C 1028.55 1093.9 1032.05 1058.22 1030.53 1022.74 C 1029.71 1009.13 1031.09 995.669 1032.59 982.162 C 1033.27 975.979 1031.76 964.772 1034.97 960.122 L 1035.1 959.188 C 1032.08 954.191 1033.73 946.195 1034.28 940.123 C 1035.18 933.23 1036.27 930.177 1039.62 924.131 C 1038.65 914.559 1041.66 875.443 1044.43 866.267 z" fill="rgb(243,236,220)" transform="translate(0,0)"></path>
<path d="M 1038.6 943.076 C 1038.95 950.803 1037.94 996.372 1037.75 1007.68 C 1037.75 1008.14 1036.76 1008.14 1036.59 1007.63 C 1032.91 996.595 1039.3 969.621 1034.97 960.122 L 1035.1 959.188 C 1037.81 951.628 1035.62 948.436 1038.6 943.076 z" fill="rgb(84,82,81)" transform="translate(0,0)"></path>
<path d="M 1040.19 1117.16 C 1040.66 1117.86 1041.37 1118.3 1042.04 1118.83 C 1041.97 1121.01 1041.93 1123.2 1041.92 1125.39 L 1039.94 1125.88 C 1039.93 1122.81 1040.02 1120.23 1040.19 1117.16 z" fill="rgb(112,110,110)" transform="translate(0,0)"></path>
<path d="M 1040.19 1117.16 L 1040.44 1115.81 C 1040.67 1115.23 1040.48 1114.1 1041.42 1114.18 C 1042.11 1115.24 1042 1117.67 1042.04 1118.83 C 1041.37 1118.3 1040.66 1117.86 1040.19 1117.16 z" fill="rgb(175,174,173)" transform="translate(0,0)"></path>
<path d="M 1071.65 1057.36 C 1071.62 1051.36 1070.51 1024.65 1074.03 1022.1 C 1079.16 1031.3 1073.05 1048.76 1074.96 1052.89 C 1077.82 1066.81 1077.18 1082.69 1077.68 1096.92 C 1078.16 1110.68 1078.67 1124.24 1078.76 1138.01 L 1077.82 1139.43 L 1075.6 1139.45 C 1076.04 1156.15 1077.19 1169.8 1077.03 1186.85 C 1076.98 1192.71 1077.42 1245.62 1076.43 1248.39 C 1073.11 1239.06 1072.14 1228.36 1073.13 1218.55 C 1073.53 1213.15 1075.25 1209.63 1070.91 1206.71 L 1070.21 1207.06 C 1067.95 1206.58 1068.81 1206.72 1066.62 1206.42 L 1065.12 1206.23 C 1065.08 1207.38 1065.25 1210.07 1063.78 1210.49 C 1060.71 1209.09 1062.45 1199.26 1062.97 1196.95 C 1063.31 1194.01 1062.13 1161.38 1062.06 1155.73 C 1062.15 1150.93 1062.46 1136.65 1060.92 1132.9 L 1059.73 1133.18 C 1059.29 1133.63 1059.15 1133.95 1058.55 1134.06 C 1058.01 1133.55 1057.31 1129.14 1056.98 1127.92 C 1056.31 1121.54 1055.01 1116.29 1053.59 1110.04 C 1052.9 1102.39 1053.17 1098.55 1053.68 1090.82 C 1055.8 1077.67 1057.69 1043.6 1060.23 1034.99 L 1060.92 1035.62 C 1061.87 1046.02 1061.78 1056.38 1061.86 1066.81 C 1062.02 1068.61 1062.28 1075.23 1062.48 1076.18 C 1063.97 1076.13 1063.23 1075.42 1064.96 1075.73 C 1066.14 1079.14 1068.26 1084.64 1068.75 1088.01 L 1071.18 1089 C 1070.22 1078.24 1072.08 1068.6 1071.65 1057.36 z" fill="rgb(243,236,220)" transform="translate(0,0)"></path>
<path d="M 1061.86 1066.81 C 1062.02 1068.61 1062.28 1075.23 1062.48 1076.18 C 1063.97 1076.13 1063.23 1075.42 1064.96 1075.73 L 1064.22 1078 C 1064.24 1084.2 1063.07 1093.75 1061.97 1099.84 C 1061.3 1090.81 1060.63 1084.64 1061.1 1075.48 C 1061.38 1071.95 1061.32 1070.43 1061.86 1066.81 z" fill="rgb(175,174,173)" transform="translate(0,0)"></path>
<path d="M 1061.86 1066.81 C 1062.02 1068.61 1062.28 1075.23 1062.48 1076.18 C 1063.97 1076.13 1063.23 1075.42 1064.96 1075.73 L 1064.22 1078 C 1063.97 1079.05 1063.2 1084.03 1062.5 1084.49 C 1062.12 1084.11 1061.29 1076.61 1061.1 1075.48 C 1061.38 1071.95 1061.32 1070.43 1061.86 1066.81 z" fill="rgb(84,82,81)" transform="translate(0,0)"></path>
<path d="M 1070.91 1206.71 C 1070.93 1203.08 1071.14 1190.75 1073.19 1188.29 C 1074.6 1194.78 1074.62 1212.01 1073.13 1218.55 C 1073.53 1213.15 1075.25 1209.63 1070.91 1206.71 z" fill="rgb(84,82,81)" transform="translate(0,0)"></path>
<path d="M 1068.75 1088.01 L 1071.18 1089 C 1072.3 1091.58 1071.88 1094.01 1072.46 1096.9 L 1071.18 1098 C 1071.35 1098.42 1071.59 1098.86 1071.57 1099.3 C 1069.85 1098.55 1069.11 1089.81 1068.75 1088.01 z" fill="rgb(150,148,146)" transform="translate(0,0)"></path>
<path d="M 1062.97 1196.95 C 1063.18 1201.52 1061.78 1203.54 1065.12 1206.23 C 1065.08 1207.38 1065.25 1210.07 1063.78 1210.49 C 1060.71 1209.09 1062.45 1199.26 1062.97 1196.95 z" fill="rgb(175,174,173)" transform="translate(0,0)"></path>
<path d="M 1022.44 979.701 C 1023.59 984.336 1024.59 996.204 1024.39 1001.08 C 1023.18 1030.35 1022.46 1059.54 1022.13 1088.84 C 1022.08 1093.48 1022 1097.91 1020.86 1102.45 C 1016.26 1093.75 1018.31 990.265 1022.44 979.701 z" fill="rgb(243,236,220)" transform="translate(0,0)"></path>
<path d="M 1008.61 1105.75 C 1007.2 1114.98 1007.49 1122.67 1007.87 1132.01 C 1007.9 1132.59 1008.52 1139.94 1006.6 1139.47 L 1006.69 1139.39 C 1004.8 1134.51 1000.26 1066.39 1002.59 1063.83 C 1002.94 1064.15 1003.02 1064.44 1003.27 1064.91 C 1005.7 1076.36 1007.5 1093.95 1008.61 1105.75 z" fill="rgb(243,236,220)" transform="translate(0,0)"></path>
<path d="M 1009.38 1034.43 C 1012.61 1049.55 1014.1 1078.62 1013.04 1094.13 C 1012.99 1094.85 1013.04 1096.68 1012.58 1097.36 C 1011.71 1097.72 1010.69 1096.49 1010.05 1096.05 L 1010.29 1094.61 C 1007.49 1086.77 1006.92 1072.43 1007.69 1064.29 C 1008.38 1054.31 1008.59 1044.6 1009.38 1034.43 z" fill="rgb(243,236,220)" transform="translate(0,0)"></path>
<path d="M 1046.69 995.506 C 1047.51 981.755 1046.04 971.02 1048.21 957.365 C 1051.56 975 1050.92 979.43 1048.73 996.964 L 1046.64 997.191 L 1046.69 995.506 z" fill="rgb(243,236,220)" transform="translate(0,0)"></path>
<path d="M 1046.78 1001.94 L 1048.79 1002.16 C 1051.16 1013.45 1050.02 1021.39 1049.18 1032.58 L 1046.88 1028.66 C 1046.99 1020.34 1046.82 1010.42 1046.78 1001.94 z" fill="rgb(243,236,220)" transform="translate(0,0)"></path>
<path d="M 1049.82 947.187 C 1049.68 947.952 1049.65 948.047 1049.4 948.766 L 1049.35 948.791 C 1047.37 945.702 1048.33 923.766 1050.27 927.691 C 1051.8 930.8 1050.91 941.079 1050.7 944.331 C 1050.83 945.982 1050.87 945.823 1049.82 947.187 z" fill="rgb(243,236,220)" transform="translate(0,0)"></path>
<path d="M 1049.82 947.187 C 1049.99 945.555 1049.79 945.468 1050.7 944.331 C 1050.83 945.982 1050.87 945.823 1049.82 947.187 z" fill="rgb(150,148,146)" transform="translate(0,0)"></path>
<path d="M 1056.98 1127.92 C 1057.31 1129.14 1058.01 1133.55 1058.55 1134.06 C 1059.15 1133.95 1059.29 1133.63 1059.73 1133.18 C 1059.87 1139.55 1060.47 1147.19 1059.08 1153.19 C 1057.64 1148.19 1056.92 1133.41 1056.98 1127.92 z" fill="rgb(150,148,146)" transform="translate(0,0)"></path>
<path d="M 1006.97 1015.48 C 1009.76 1019.5 1008.58 1023.01 1007.52 1027.7 C 1003.43 1023.99 1005.24 1020.52 1006.97 1015.48 z" fill="rgb(243,236,220)" transform="translate(0,0)"></path>
<path d="M 1097.37 885.087 C 1099.51 889.18 1099.22 889.435 1098.28 894.173 C 1093.61 895.61 1096.72 887.392 1097.37 885.087 z" fill="rgb(175,174,173)" transform="translate(0,0)"></path>
<path d="M 911.799 650.855 C 914.045 653.125 910.656 655.033 908.759 657.102 C 906.05 654.136 906.691 654.004 910.12 651.976 L 911.799 650.855 z" fill="rgb(243,236,220)" transform="translate(0,0)"></path>
<path d="M 1046.88 1028.66 L 1049.18 1032.58 C 1049.3 1035.76 1049.34 1035.94 1048.66 1039.08 C 1047.32 1035.84 1047.11 1032.12 1046.88 1028.66 z" fill="rgb(150,148,146)" transform="translate(0,0)"></path>
<path d="M 1111.8 765.449 C 1112.3 765.137 1112.85 764.581 1113.49 764.752 C 1113.93 765.231 1113.71 765.966 1113.64 766.543 L 1113.51 767.698 C 1111.59 767.786 1111.77 767.222 1111.8 765.449 z" fill="rgb(175,174,173)" transform="translate(0,0)"></path>
<path d="M 979.459 631.699 C 981.677 633.944 980.858 634.454 978.412 636.189 L 977.221 637.114 C 975.083 634.952 977.673 633.689 979.459 631.699 z" fill="rgb(175,174,173)" transform="translate(0,0)"></path>
<path d="M 1048.73 996.964 C 1048.66 999.106 1048.68 1000.02 1048.79 1002.16 L 1046.78 1001.94 C 1046.71 1000.33 1046.65 998.801 1046.64 997.191 L 1048.73 996.964 z" fill="rgb(150,148,146)" transform="translate(0,0)"></path>
<path d="M 995.066 1043.16 C 995.309 1043.06 995.648 1042.82 995.943 1042.92 C 996.161 1043.24 996.092 1043.46 996.125 1043.95 C 995.792 1044.09 995.361 1044.32 995.069 1044.2 C 994.99 1043.79 995.018 1044.08 995.066 1043.16 z" fill="rgb(175,174,173)" transform="translate(0,0)"></path>
<path d="M 723.968 1248.77 C 723.804 1243.58 723.501 1238.69 723.979 1233.51 L 726.882 1232.89 L 726.83 1231.31 C 724.645 1229.58 722.438 1227.89 720.21 1226.23 L 720.297 1224.85 C 723.277 1223.47 724.516 1223.61 725.518 1221.35 C 721.969 1218.49 719.013 1218.92 716.061 1215.94 L 716.545 1214.52 C 721.29 1213.1 727.383 1218.77 731.183 1219.02 C 746.883 1220.07 756.09 1221.72 770.095 1230.2 C 788.915 1241.58 809.742 1252.08 824.98 1268.18 C 830.097 1273.59 834.949 1286.28 839.656 1290.08 C 852.99 1300.86 871.305 1311.04 875.271 1329.44 C 876.548 1335.37 883.933 1341.55 887.961 1345.66 C 888.374 1353.9 890.521 1368.14 884.462 1374.4 C 869.598 1388.78 848.457 1375.73 833.356 1372.27 C 829.573 1371.4 797.3 1363.08 797.082 1363.12 C 769.622 1367.8 748.546 1355.28 721.729 1351.34 C 717.205 1350.68 713.045 1350.17 708.632 1350.64 C 702.484 1350.8 684.897 1359.19 682.507 1357.11 C 676.176 1351.62 670.185 1350.52 662.359 1348.21 C 662.501 1346.17 662.201 1347.21 663.54 1345.17 C 654.152 1339.62 608.136 1343.98 592.958 1339.07 C 585.401 1338.64 581.144 1339.55 572.095 1338.53 L 557.79 1336.59 L 558.119 1333.13 C 561.527 1331.91 571.855 1332.81 575.072 1335.14 C 582.884 1339.18 584.048 1334.06 594.3 1336.45 C 611.194 1328.63 661.382 1328.96 668.763 1320.18 C 663.753 1311.24 640.325 1312.23 631.093 1312.2 C 625.156 1312.17 617.095 1309.01 611.29 1309.13 C 590.022 1310.65 565.961 1309.24 544.993 1312.53 C 506.573 1318.57 460.154 1329.52 424.69 1344.38 C 389.691 1359.05 361.963 1385.73 327.054 1399.51 C 312.374 1405.31 298.179 1402.53 284.896 1395.84 L 281.466 1397 C 257.701 1389.02 249.123 1385.25 234.449 1364.39 C 222.03 1346.73 222.02 1332.67 212.681 1314.53 L 211.852 1312.94 C 215.055 1307.11 219.997 1299.57 223.542 1293.73 C 249.614 1277.62 251.234 1289.47 271.915 1283.03 C 305.275 1272.66 340.064 1264.77 373.036 1253.41 C 388.797 1249.34 407.134 1242.04 422.981 1239.46 C 484.075 1229.5 559.085 1215.85 620.009 1226.31 C 627.106 1227.11 632.529 1228.08 639.278 1230.71 C 625.44 1229.1 616.336 1229 602.412 1228.79 L 600.765 1228.89 C 591.88 1229.34 587.287 1227.37 579.067 1226.76 C 572.33 1226.25 562.787 1228.03 555.612 1228.15 C 548.568 1228.27 539.488 1225.03 534.425 1229.59 L 534.326 1231.71 C 537.269 1233.3 573.31 1231.55 581.94 1232.24 C 616.971 1235.08 650.613 1242.99 685.431 1245.62 C 700.686 1246.78 707.674 1249.32 723.968 1248.77 z" fill="rgb(26,26,26)" transform="translate(0,0)"></path>
<path d="M 523.971 1244.24 C 539.208 1244.14 604.915 1245.28 615.868 1250.85 L 615.013 1251.99 C 601.971 1254.31 579.347 1250.61 564.929 1250.14 C 538.868 1249.04 512.772 1249.1 486.715 1250.29 C 486.377 1250.26 479.453 1250.39 480.516 1248.41 C 480.95 1247.61 483.54 1247.42 484.346 1247.33 C 495.662 1244.73 512.459 1244.35 523.971 1244.24 z" fill="rgb(243,236,220)" transform="translate(0,0)"></path>
<path d="M 486.715 1250.29 C 486.377 1250.26 479.453 1250.39 480.516 1248.41 C 480.95 1247.61 483.54 1247.42 484.346 1247.33 C 484.706 1249.12 485.272 1249.23 486.715 1250.29 z" fill="rgb(243,236,220)" transform="translate(0,0)"></path>
<path d="M 569.643 1242.81 C 569.145 1242.35 568.62 1242.03 568.245 1241.48 C 570.55 1240.11 582.191 1241.2 585.773 1240.74 C 615.582 1241.31 625.519 1240.61 655.695 1247.36 C 634.543 1251.5 639.369 1250.69 618.752 1247.41 C 607.767 1245.42 581.751 1243.49 569.643 1242.81 z" fill="rgb(243,236,220)" transform="translate(0,0)"></path>
<path d="M 524.228 1242.19 C 523.561 1241.93 522.076 1241.58 521.954 1240.68 C 523.135 1239.76 583.378 1239.48 585.773 1240.74 C 582.191 1241.2 570.55 1240.11 568.245 1241.48 C 568.62 1242.03 569.145 1242.35 569.643 1242.81 C 558.868 1243.26 545.094 1241.63 534 1242.08 C 531.771 1242.17 530.471 1240.93 526.916 1241.65 L 524.228 1242.19 z" fill="rgb(175,174,173)" transform="translate(0,0)"></path>
<path d="M 560.857 1259.49 C 564.15 1259.27 585.624 1258.91 586.751 1261.61 L 586.363 1262.24 L 586.573 1261.69 L 586.098 1262.49 C 585.326 1262.83 585.302 1262.74 584.152 1262.93 C 579.025 1263.07 561.241 1264.9 557.909 1260.98 C 557.661 1259.62 560.024 1259.64 560.857 1259.49 z" fill="rgb(243,236,220)" transform="translate(0,0)"></path>
<path d="M 521.991 1229.32 C 524.094 1229.1 533.222 1227.88 527.715 1232.5 C 527.383 1232.78 517.417 1232.73 515.786 1232.75 C 514.496 1232.84 513.246 1232.93 511.91 1233.03 C 511.146 1232.95 509.07 1233.78 508.583 1232.77 C 508.044 1231.65 510.602 1231.14 510.992 1231.06 C 514.637 1230.3 518.324 1229.82 521.991 1229.32 z" fill="rgb(243,236,220)" transform="translate(0,0)"></path>
<path d="M 542.148 1259.52 C 542.902 1259.48 549.385 1258.69 549.51 1259.86 C 549.532 1260.07 549.479 1260.28 549.359 1260.45 C 548.561 1261.62 538.521 1262.92 536.285 1263.39 C 533.597 1263.94 530.447 1265.08 528.197 1263.18 C 528.1 1260.47 539.867 1259.86 542.148 1259.52 z" fill="rgb(243,236,220)" transform="translate(0,0)"></path>
<path d="M 496.412 1231.98 C 497.271 1232 501.627 1231.69 502.167 1232.58 C 501.914 1233.56 500.634 1234.09 499.84 1234.53 L 498.274 1235.42 C 493.459 1235.31 489.198 1235.13 496.412 1231.98 z" fill="rgb(243,236,220)" transform="translate(0,0)"></path>
<path d="M 1015.88 1492.04 C 1019.56 1491.95 1023.92 1491.91 1026.97 1494.33 C 1029.32 1496.21 1030.77 1499.79 1030.8 1502.77 C 1030.93 1518.3 1030.81 1533.97 1030.81 1549.49 L 1030.95 1642.64 L 1030.96 1696.39 C 1030.95 1706.55 1033.19 1725.09 1026.26 1732.77 C 1022.01 1737.49 1016.27 1735.46 1012.37 1731.55 C 1006.58 1725.75 1007.54 1720.64 1007.54 1713.1 C 981.648 1740.56 946.281 1742.6 916.091 1721.02 C 911.863 1717.21 907.766 1713.36 904.199 1708.92 C 881.868 1681.08 883.233 1637.07 906.688 1610.45 C 919.077 1596.31 936.656 1587.77 955.433 1586.78 C 977.983 1585.69 992.229 1592.93 1008.45 1607.68 C 1008.29 1584.04 1008.26 1560.4 1008.35 1536.76 C 1008.33 1525.04 1007.85 1511.5 1008.88 1499.86 C 1009.22 1496.01 1012.73 1494.12 1015.88 1492.04 z" fill="rgb(26,26,26)" transform="translate(0,0)"></path>
<path d="M 955.198 1610.34 C 983.049 1607.25 1008.18 1627.19 1011.52 1655.01 C 1014.85 1682.84 995.136 1708.15 967.343 1711.72 C 939.202 1715.35 913.505 1695.33 910.13 1667.16 C 906.755 1638.99 926.997 1613.47 955.198 1610.34 z" fill="rgb(243,236,220)" transform="translate(0,0)"></path>
<path d="M 421.929 1509.46 L 464.501 1509.11 C 490.673 1508.94 517.633 1508.16 536.927 1528.63 C 571.459 1565.29 552.738 1635.05 499.049 1640.15 C 479.905 1641.96 460.698 1641.1 441.75 1641 C 440.336 1640.97 439.202 1641.25 437.779 1641.48 C 432.917 1649.26 439.002 1707.74 435.883 1723.2 C 435.046 1727.35 433.173 1731.92 429.125 1733.89 C 426.503 1735.16 423.369 1735.09 420.627 1734.28 C 417.102 1733.23 414.185 1731 412.716 1727.58 C 410.3 1721.94 410.633 1542.12 411.304 1524.46 C 411.424 1521.3 411.52 1517.31 413.138 1514.5 C 415.012 1511.24 418.564 1510.27 421.929 1509.46 z" fill="rgb(26,26,26)" transform="translate(0,0)"></path>
<path d="M 436.393 1533 C 448.208 1532.75 490.901 1531.99 500.267 1534.48 C 507.078 1536.23 513.31 1539.74 518.339 1544.65 C 535.644 1561.62 532.432 1590.63 516.098 1607.18 C 496.534 1622.07 461.822 1617.51 436.217 1617.55 C 437.047 1589.5 436.353 1561.05 436.393 1533 z" fill="rgb(243,236,220)" transform="translate(0,0)"></path>
<path d="M 766.821 1588.31 C 807.081 1582.97 844.041 1611.29 849.359 1651.56 C 854.677 1691.82 826.338 1728.77 786.072 1734.06 C 745.834 1739.36 708.919 1711.04 703.604 1670.81 C 698.29 1630.57 726.588 1593.64 766.821 1588.31 z" fill="rgb(26,26,26)" transform="translate(0,0)"></path>
<path d="M 768.755 1610.78 C 796.606 1606.37 822.738 1625.43 827.034 1653.3 C 831.33 1681.17 812.153 1707.22 784.266 1711.4 C 756.545 1715.55 730.682 1696.52 726.411 1668.81 C 722.141 1641.11 741.07 1615.17 768.755 1610.78 z" fill="rgb(243,236,220)" transform="translate(0,0)"></path>
<path d="M 1095.17 1587.89 C 1104.38 1587.96 1108.28 1589.11 1109.96 1599.65 C 1111.54 1609.55 1109.34 1620.49 1110.05 1630.34 C 1111.75 1653.95 1103.03 1688.98 1121.57 1706.98 C 1129.09 1714.05 1144.98 1713.39 1153.94 1710.92 C 1181.54 1703.31 1179.44 1672.91 1179.28 1650.48 L 1178.94 1615.1 C 1178.81 1607.27 1177.71 1599.69 1181.58 1592.45 C 1185.71 1584.71 1201.08 1587.83 1201.66 1595.58 C 1202.67 1609.28 1202.2 1623.89 1202.15 1637.75 L 1202.3 1692.73 C 1202.32 1700.8 1207 1750.48 1183.24 1731.42 C 1177.73 1727 1178.68 1717.97 1178.97 1711.31 C 1163.75 1738.1 1133.11 1741.49 1107.02 1727.01 C 1091.04 1718.14 1086.77 1686.89 1087.41 1670.13 C 1088.32 1646.29 1085.84 1619.69 1087.9 1595.82 C 1088.21 1592.08 1092.35 1589.79 1095.17 1587.89 z" fill="rgb(26,26,26)" transform="translate(0,0)"></path>
<path d="M 1578.86 1587.22 C 1597.38 1586.59 1603.92 1589.41 1619.35 1599.28 C 1640.01 1612.49 1631.73 1635.31 1612.43 1624.95 C 1604.28 1620.59 1597.28 1606.84 1582.49 1609.38 C 1575.71 1610.55 1570.2 1611.98 1565.66 1617.74 C 1551.06 1639.81 1580.53 1647.85 1597.14 1650.83 C 1652.56 1660.74 1652.29 1731.55 1591.25 1735.16 C 1578.15 1735.2 1572.57 1734.6 1559.67 1729.4 C 1548.99 1725.09 1520.46 1698.85 1545.07 1693.16 C 1553.12 1691.86 1561.21 1702.34 1567.15 1707.34 C 1589.68 1726.28 1637.43 1698.4 1603.59 1677.54 C 1584.24 1665.61 1546.28 1669.05 1540.44 1638.61 C 1535.03 1610.48 1551.89 1591.35 1578.86 1587.22 z" fill="rgb(26,26,26)" transform="translate(0,0)"></path>
<path d="M 1314.83 1587.36 C 1337.4 1586.43 1356.77 1590.65 1373.84 1606.37 C 1379.63 1611.71 1384.69 1623.79 1377.44 1629.99 C 1359.36 1636.35 1341.08 1593.17 1301.33 1613.54 C 1288.91 1620.05 1279.65 1631.29 1275.62 1644.72 C 1271.41 1658.76 1272.97 1674.63 1280.2 1687.41 C 1286.91 1699.41 1298.27 1708.11 1311.59 1711.48 C 1326.81 1715.29 1337.72 1712.4 1350.56 1704.51 C 1355.57 1701.1 1361.82 1693.53 1366.51 1691.83 C 1383.21 1685.86 1384.35 1703.05 1376 1712.78 C 1352.01 1740.21 1306.81 1742.32 1278.57 1720.14 C 1246.24 1694.74 1241.87 1644.48 1266.89 1612.55 C 1279.11 1596.97 1295.31 1589.73 1314.83 1587.36 z" fill="rgb(26,26,26)" transform="translate(0,0)"></path>
<path d="M 1452.03 1521.05 C 1455.94 1520.96 1460.36 1520.77 1463.55 1523.46 C 1470.39 1529.24 1467.46 1579.18 1467.39 1589.86 C 1473.82 1589.88 1493.21 1588.27 1499.53 1591.61 C 1509.24 1596.74 1506.64 1610.76 1494.47 1611.79 C 1486.68 1612.45 1476.24 1611.94 1467.44 1611.76 L 1467.75 1686.87 C 1467.75 1698.34 1469.62 1723.21 1464.1 1732.21 C 1457.03 1735.28 1446.33 1735.67 1445.38 1725.67 C 1444.17 1712.77 1444.7 1699 1444.71 1685.95 C 1444.85 1661.2 1444.71 1636.45 1444.3 1611.71 C 1438.5 1611.63 1421.82 1613.06 1416.79 1609.26 C 1408.74 1603.17 1411.16 1591.17 1422.49 1590.05 C 1429.07 1589.4 1437.42 1589.66 1444.69 1589.75 C 1444.86 1570.65 1443.67 1549.27 1445.17 1530.33 C 1445.56 1525.38 1448.28 1523.56 1452.03 1521.05 z" fill="rgb(26,26,26)" transform="translate(0,0)"></path>
<path d="M 625.447 1604.96 C 632.216 1596.19 639.034 1590.75 650.026 1588.17 C 660.187 1585.79 677.127 1583.77 679.923 1597.22 C 683.371 1613.81 664.183 1609.99 654.536 1611.01 C 619.972 1614.64 621.586 1645.44 621.715 1671.49 L 621.931 1711.07 C 621.95 1716.3 622.352 1727.89 618.339 1731.37 C 611.554 1737.18 599.592 1734.09 599.505 1723.96 C 599.201 1688.52 599.464 1653.08 599.352 1617.64 C 600.024 1613.73 598.453 1598.25 600.075 1595.08 C 606.262 1583 618.425 1585.9 622.736 1597.55 C 622.09 1602.67 621.746 1603.52 622.844 1608.4 L 623.946 1608.28 L 625.447 1604.96 z" fill="rgb(26,26,26)" transform="translate(0,0)"></path>
<path d="M 722.859 934.269 C 725.899 929.847 735.426 915.519 739.309 912.457 C 738.923 912.843 726.191 933.878 724.459 936.439 C 718.868 945.785 699.072 972.906 700.763 980.646 C 705.185 980.451 708.053 976.679 711.005 973.465 C 713.003 971.284 714.982 969.085 716.94 966.868 C 712.051 977.48 703.24 989.344 696.037 998.688 C 693.202 1002.97 687.259 1013.3 683.163 1015.19 C 682.194 1012.21 692.594 1000.07 695.111 996.555 L 695.026 992.739 L 693.86 991.9 C 690.865 993.9 678.854 1012.59 673.833 1018.55 C 666.879 1026.84 662.201 1035.99 655.71 1044.51 C 646.709 1056.33 635.336 1065.98 625.367 1076.85 C 617.233 1085.71 609.244 1099.2 600.909 1107.5 L 603.666 1108.59 C 604.379 1108.51 604.785 1108.31 605.31 1108.6 C 605.9 1110.27 599.776 1116.35 598.479 1117.5 C 596.812 1117.5 596.03 1116.33 594.79 1115.2 L 590.446 1121.11 C 592.505 1120.49 593.723 1120.27 593.321 1122.96 C 590.736 1127.91 580.862 1140.42 575.917 1142.43 C 574.985 1141.14 574.489 1140.43 572.872 1140.29 L 571.625 1140.14 C 569.191 1143.15 568.305 1144.82 564.735 1146.33 C 565.909 1137.52 643.47 1049.72 654.799 1029.06 C 665.137 1015.34 680.198 994.543 687.709 979.148 C 677.394 987.39 661.37 1009.77 651.396 1021.5 C 642.219 1032.18 628.213 1050.57 619.408 1059.55 L 617.511 1058.64 C 626.74 1041.72 634.959 1036.23 642.882 1023.4 C 654.416 1011.44 675.054 978.493 684.476 963.828 C 694.147 948.776 703.324 935.541 713.635 920.795 L 714.989 921.688 C 717.627 924.243 717.822 924.424 720.926 926.354 L 720.279 927.468 C 710.891 943.357 701.208 952.583 695.199 971.299 C 707.133 959.584 712.705 946.535 722.859 934.269 z" fill="rgb(26,26,26)" transform="translate(0,0)"></path>
<path d="M 590.446 1121.11 C 592.505 1120.49 593.723 1120.27 593.321 1122.96 C 590.736 1127.91 580.862 1140.42 575.917 1142.43 C 574.985 1141.14 574.489 1140.43 572.872 1140.29 L 571.625 1140.14 C 574.332 1136.23 586.062 1125.58 590.446 1121.11 z" fill="rgb(243,236,220)" transform="translate(0,0)"></path>
<path d="M 575.917 1142.43 C 576.934 1138.28 588.828 1123.57 593.321 1122.96 C 590.736 1127.91 580.862 1140.42 575.917 1142.43 z" fill="rgb(26,26,26)" transform="translate(0,0)"></path>
<path d="M 600.909 1107.5 L 603.666 1108.59 C 604.379 1108.51 604.785 1108.31 605.31 1108.6 C 605.9 1110.27 599.776 1116.35 598.479 1117.5 C 596.812 1117.5 596.03 1116.33 594.79 1115.2 C 596.585 1112.65 598.92 1109.99 600.909 1107.5 z" fill="rgb(243,236,220)" transform="translate(0,0)"></path>
<path d="M 603.666 1108.59 C 604.379 1108.51 604.785 1108.31 605.31 1108.6 C 605.9 1110.27 599.776 1116.35 598.479 1117.5 C 598.578 1112.88 600.233 1111.24 603.666 1108.59 z" fill="rgb(26,26,26)" transform="translate(0,0)"></path>
<path d="M 749.036 886.75 L 750.527 885.897 C 756.254 882.563 755.584 885.247 762.012 884.766 C 769.484 884.208 774.82 888.8 774.259 896.494 C 773.144 909.482 752.258 908.251 752.014 895.577 C 752.004 895.004 751.873 894.879 751.636 894.251 L 751.782 894.451 L 751.604 894.304 C 747.729 896.05 750.941 897.593 743.901 897.125 C 745.384 893.196 748.165 889.539 749.036 886.75 z" fill="rgb(26,26,26)" transform="translate(0,0)"></path>
<path d="M 473.781 415.839 C 482.438 405.35 489.841 398.713 501.426 391.425 C 503.398 390.184 504.468 386.548 505.492 385.844 C 511.094 381.994 520.35 377.227 526.613 375.302 L 527.198 378.359 C 518.199 383.824 514.58 386.395 506.71 393.419 C 503.248 396.509 495.291 400.068 491.515 403.014 C 485.222 407.924 480.533 411.539 473.781 415.839 z" fill="rgb(26,26,26)" transform="translate(0,0)"></path>
<path d="M 1276.76 1451.68 C 1283.46 1456.58 1284.25 1472.18 1272.99 1476.1 L 1271.83 1476.53 C 1257.6 1466.61 1271.33 1460.16 1276.76 1451.68 z" fill="rgb(26,26,26)" transform="translate(0,0)"></path>
<path d="M 1090.22 1113.14 L 1091.56 1113.24 C 1093.66 1128.72 1090.87 1151.01 1090.82 1167.43 C 1091.04 1173.42 1091.15 1177.56 1090.16 1183.47 C 1090.09 1186.91 1090.73 1214.63 1088.98 1215.13 C 1088.11 1214.55 1088.05 1129.02 1089.04 1121.5 L 1090.22 1113.14 z" fill="rgb(26,26,26)" transform="translate(0,0)"></path>
<path d="M 1090.16 1183.47 C 1089.66 1176.59 1089.29 1173.95 1090.82 1167.43 C 1091.04 1173.42 1091.15 1177.56 1090.16 1183.47 z" fill="rgb(150,148,146)" transform="translate(0,0)"></path>
<path d="M 830.042 734.908 C 829.107 739.192 811.454 778.993 809.163 782.323 C 808.912 782.128 806.843 780.722 807.032 780.321 C 813.758 766.048 820.405 751.567 826.084 736.747 C 826.484 735.703 829.406 735.084 830.042 734.908 z" fill="rgb(26,26,26)" transform="translate(0,0)"></path>
<path d="M 1827.17 440.361 C 1830.96 439.682 1834.58 442.223 1835.23 446.02 C 1835.88 449.816 1833.31 453.414 1829.51 454.033 C 1825.75 454.644 1822.2 452.109 1821.56 448.355 C 1820.91 444.601 1823.42 441.032 1827.17 440.361 z" fill="rgb(26,26,26)" transform="translate(0,0)"></path>
<path d="M 575.868 350.376 C 579.853 349.357 589.674 351.082 583.613 353.877 C 580.71 355.215 577.271 355.762 573.276 357.903 L 570.348 359.476 C 568.946 359.916 567.081 360.384 565.649 359.878 C 565.119 358.838 565.866 357.948 564.476 357.002 C 560.486 354.288 565.007 350.515 568.387 351.537 C 571.343 352.431 573.191 351.413 575.868 350.376 z" fill="rgb(26,26,26)" transform="translate(0,0)"></path>
<path d="M 678.034 1020.58 C 678.11 1020.61 680.216 1021.39 679.802 1022.02 C 671.215 1035.07 660.442 1047.67 650.821 1060.15 C 650.039 1060.41 650.156 1060.46 649.467 1060.29 C 647.685 1058.3 654.448 1051.22 655.735 1049.81 C 664.121 1040.62 670.646 1030.44 678.034 1020.58 z" fill="rgb(26,26,26)" transform="translate(0,0)"></path>
<path d="M 605.877 1074.18 C 604.424 1079.51 576.667 1110.41 571.178 1114.93 C 571.717 1110.2 600.403 1078.96 605.877 1074.18 z" fill="rgb(26,26,26)" transform="translate(0,0)"></path>
<path d="M 999.916 646.361 L 1000.37 647.53 C 999.676 652.069 999.712 650.054 1001.81 651.89 C 1001.92 655.213 997.488 652.668 994.821 655.866 C 990.722 660.781 981.393 668.742 975.557 671.304 L 971.256 673.195 C 980.485 664.145 992.533 656.314 999.916 646.361 z" fill="rgb(26,26,26)" transform="translate(0,0)"></path>
<path d="M 1278.38 1297.78 C 1281.18 1300.62 1273.29 1323.82 1272.36 1330 C 1267.47 1325.66 1274.98 1302.8 1278.38 1297.78 z" fill="rgb(26,26,26)" transform="translate(0,0)"></path>
<path d="M 1143.21 691.5 C 1146.06 690.595 1149.1 692.173 1150 695.023 C 1150.9 697.873 1149.32 700.912 1146.46 701.807 C 1143.62 702.7 1140.59 701.121 1139.69 698.279 C 1138.79 695.436 1140.37 692.403 1143.21 691.5 z" fill="rgb(26,26,26)" transform="translate(0,0)"></path>
<path d="M 802.863 847.363 C 804.71 846.706 806.769 847.118 808.222 848.435 C 809.676 849.751 810.288 851.76 809.816 853.663 C 809.344 855.566 807.865 857.057 805.965 857.542 C 803.206 858.248 800.381 856.658 799.551 853.935 C 798.721 851.211 800.179 848.316 802.863 847.363 z" fill="rgb(26,26,26)" transform="translate(0,0)"></path>
<path d="M 657.795 341.919 C 661.513 342.224 679.08 346.131 678.44 350.129 C 673.792 349.852 668.346 347.997 665.003 348.241 C 658.773 348.696 658.059 349.311 657.795 341.919 z" fill="rgb(26,26,26)" transform="translate(0,0)"></path>
<path d="M 1654.67 719.494 C 1656.29 718.495 1658.32 718.469 1659.96 719.426 C 1661.6 720.383 1662.58 722.167 1662.51 724.065 C 1662.43 725.963 1661.32 727.665 1659.61 728.491 C 1657.14 729.679 1654.18 728.732 1652.87 726.335 C 1651.55 723.939 1652.35 720.932 1654.67 719.494 z" fill="rgb(26,26,26)" transform="translate(0,0)"></path>
<path d="M 405.826 1158.82 C 408.415 1159.35 408.4 1158.72 408.678 1160.44 C 405.061 1162.53 383.164 1178.82 381.016 1181.26 C 380.232 1181.76 375.79 1185.04 374.689 1184.58 L 374.652 1184.42 C 375.208 1183.27 402.16 1162.01 405.826 1158.82 z" fill="rgb(84,82,81)" transform="translate(0,0)"></path>
<path d="M 1301.96 1213.31 C 1303.84 1217.57 1301.23 1215.81 1304.83 1220.55 C 1304.84 1220.82 1300.67 1248.56 1301.17 1247.83 L 1300.55 1247.85 C 1299.39 1246.64 1301.27 1217 1301.96 1213.31 z" fill="rgb(84,82,81)" transform="translate(0,0)"></path>
<path d="M 444.69 422.313 C 445.846 422.785 447.535 423.134 447.689 424.62 C 447.816 424.339 434.125 436.929 432.709 438.395 C 428.447 439.839 430.099 434.125 432.532 433.183 C 437.272 431.349 440.803 425.927 444.69 422.313 z" fill="rgb(26,26,26)" transform="translate(0,0)"></path>
<path d="M 563.437 1123.8 C 564.613 1129.89 546.889 1146.26 542.14 1150.1 C 542.096 1148.39 542.059 1147.94 543.512 1146.6 C 550.916 1139.78 556.883 1131.31 563.437 1123.8 z" fill="rgb(84,82,81)" transform="translate(0,0)"></path>
<path d="M 440.33 472.183 C 438.822 476.794 423.751 496.593 420.216 500.171 C 418.529 498.031 436.415 474.397 440.33 472.183 z" fill="rgb(84,82,81)" transform="translate(0,0)"></path>
<path d="M 1830.65 474.516 C 1832.29 474.161 1834.01 474.722 1835.12 475.983 C 1836.24 477.244 1836.6 479.01 1836.05 480.604 C 1835.5 482.198 1834.13 483.373 1832.48 483.679 C 1829.97 484.142 1827.55 482.503 1827.05 479.999 C 1826.55 477.495 1828.15 475.053 1830.65 474.516 z" fill="rgb(26,26,26)" transform="translate(0,0)"></path>
<path d="M 1692.93 665.539 C 1694.33 664.693 1696.07 664.666 1697.5 665.469 C 1698.92 666.271 1699.81 667.778 1699.81 669.414 C 1699.81 671.05 1698.94 672.562 1697.52 673.37 C 1695.36 674.598 1692.61 673.862 1691.36 671.72 C 1690.1 669.577 1690.8 666.823 1692.93 665.539 z" fill="rgb(26,26,26)" transform="translate(0,0)"></path>
<path d="M 377.38 1191.43 C 374.418 1193.96 354.708 1210.38 352.783 1208.79 C 353.331 1207.25 372.482 1192.46 375.332 1190.4 L 377.38 1191.43 z" fill="rgb(175,174,173)" transform="translate(0,0)"></path>
<path d="M 791.66 757.668 C 793.183 763.147 783.606 781.201 780.363 786.246 C 779.772 782.214 789.385 761.505 791.66 757.668 z" fill="rgb(84,82,81)" transform="translate(0,0)"></path>
<path d="M 1105.89 1009.38 C 1107.89 1008.02 1110.61 1008.5 1112.01 1010.47 C 1113.41 1012.44 1112.97 1015.17 1111.03 1016.6 C 1109.74 1017.55 1108.04 1017.73 1106.58 1017.08 C 1105.12 1016.42 1104.13 1015.02 1103.98 1013.43 C 1103.84 1011.83 1104.57 1010.29 1105.89 1009.38 z" fill="rgb(26,26,26)" transform="translate(0,0)"></path>
<path d="M 592.605 346.077 C 595.97 345.886 609.86 343.284 605.67 349.69 C 599.559 350.498 591.409 353.793 592.605 346.077 z" fill="rgb(26,26,26)" transform="translate(0,0)"></path>
<path d="M 1302.56 1371.31 L 1304.28 1373.2 C 1301.35 1380.63 1298.75 1390.43 1295.62 1397.57 L 1294.61 1396.64 C 1296.04 1388.89 1299.63 1378.71 1302.56 1371.31 z" fill="rgb(84,82,81)" transform="translate(0,0)"></path>
<path d="M 1177.45 774.59 C 1179.54 773.489 1182.12 774.288 1183.22 776.374 C 1184.33 778.46 1183.53 781.045 1181.44 782.148 C 1179.36 783.253 1176.77 782.455 1175.67 780.367 C 1174.56 778.279 1175.36 775.691 1177.45 774.59 z" fill="rgb(26,26,26)" transform="translate(0,0)"></path>
<path d="M 1097.42 1091.4 C 1097.54 1089.62 1097.15 1081.82 1099.46 1081.14 C 1102.4 1082.65 1100.02 1098.53 1099.3 1101.12 L 1098.66 1101.67 C 1098 1101.14 1097.95 1100.38 1097.77 1099.58 C 1097.66 1096.87 1097.62 1094.09 1097.42 1091.4 z" fill="rgb(26,26,26)" transform="translate(0,0)"></path>
<path d="M 1278.01 1334.51 C 1280.3 1339.47 1275.46 1353.71 1273.19 1358.31 C 1271.2 1351.72 1275.7 1341.98 1278.01 1334.51 z" fill="rgb(26,26,26)" transform="translate(0,0)"></path>
<path d="M 622.269 342.5 C 625.863 341.678 629.947 347.049 614.764 347.204 C 613.568 347.128 612.365 347.223 611.546 346.241 C 611.502 343.21 620.038 342.904 622.269 342.5 z" fill="rgb(26,26,26)" transform="translate(0,0)"></path>
<path d="M 634.408 354.099 C 638.118 354.042 659.989 353.041 661.482 355.179 C 660.871 357.991 645.993 356.075 643.034 356.02 C 639.957 355.41 637.469 354.902 634.408 354.099 z" fill="rgb(84,82,81)" transform="translate(0,0)"></path>
<path d="M 1286.35 1269.65 C 1289.08 1274.52 1289.66 1277.32 1285.66 1280.72 C 1279.97 1275.96 1281.35 1275.32 1286.35 1269.65 z" fill="rgb(26,26,26)" transform="translate(0,0)"></path>
<path d="M 773.408 376.512 C 774.888 375.195 777.146 375.294 778.505 376.736 C 779.864 378.177 779.83 380.437 778.429 381.837 C 777.486 382.78 776.105 383.135 774.824 382.765 C 773.543 382.394 772.565 381.357 772.27 380.056 C 771.976 378.756 772.411 377.398 773.408 376.512 z" fill="rgb(26,26,26)" transform="translate(0,0)"></path>
<path d="M 1305.94 1281.09 C 1297.83 1277.74 1298.17 1271.51 1308.06 1273.3 C 1307.79 1277.05 1307.3 1277.51 1305.94 1281.09 z" fill="rgb(26,26,26)" transform="translate(0,0)"></path>
<path d="M 472.327 417.634 C 477.235 419.148 463.363 428.237 461.514 429.645 C 460.987 429.708 460.767 429.821 460.345 429.596 C 459.917 427.108 470.375 419.205 472.327 417.634 z" fill="rgb(26,26,26)" transform="translate(0,0)"></path>
<path d="M 724.681 905.35 C 724.33 910.445 718.34 917.803 714.989 921.688 L 713.635 920.795 C 716.465 915.957 720.926 909.421 724.681 905.35 z" fill="rgb(84,82,81)" transform="translate(0,0)"></path>
<path d="M 643.034 356.02 C 641.308 356.079 619.491 356.588 619.4 356.557 C 618.57 354.3 632.61 353.875 634.408 354.099 C 637.469 354.902 639.957 355.41 643.034 356.02 z" fill="rgb(150,148,146)" transform="translate(0,0)"></path>
<path d="M 1115.53 1043.38 C 1116.74 1042.88 1118.12 1043.11 1119.09 1043.97 C 1120.07 1044.84 1120.47 1046.18 1120.13 1047.43 C 1119.79 1048.69 1118.77 1049.64 1117.49 1049.89 C 1115.76 1050.23 1114.06 1049.21 1113.56 1047.52 C 1113.05 1045.84 1113.91 1044.05 1115.53 1043.38 z" fill="rgb(26,26,26)" transform="translate(0,0)"></path>
<path d="M 433.648 1118.31 C 440.747 1119.5 439.516 1119.51 436.395 1125.84 C 429.951 1125.79 431.668 1123.58 433.648 1118.31 z" fill="rgb(26,26,26)" transform="translate(0,0)"></path>
<path d="M 557.79 1336.59 C 555.358 1336.13 540.681 1333.71 540.228 1331.71 C 541.509 1330 552.39 1334.94 558.119 1333.13 L 557.79 1336.59 z" fill="rgb(84,82,81)" transform="translate(0,0)"></path>
<path d="M 642.552 1068.96 C 642.849 1073.17 635.078 1080.8 632 1083.36 C 631.117 1079.76 639.89 1071.69 642.552 1068.96 z" fill="rgb(84,82,81)" transform="translate(0,0)"></path>
<path d="M 353.872 1197.88 C 361.369 1198.38 344.314 1206.51 343.499 1206.99 C 343.155 1206.84 342.81 1206.7 342.466 1206.56 C 342.582 1205.97 343.457 1205.23 343.906 1204.89 C 347.153 1202.45 350.476 1200.11 353.872 1197.88 z" fill="rgb(84,82,81)" transform="translate(0,0)"></path>
<path d="M 394.179 478.541 C 398.074 481.517 393.459 485.221 391.027 488.686 C 387.727 486.909 392.808 480.469 394.179 478.541 z" fill="rgb(26,26,26)" transform="translate(0,0)"></path>
<path d="M 1287.38 1412.6 C 1290.3 1415.3 1286.77 1423.65 1285.69 1427.49 C 1282.82 1424.88 1286.32 1416.83 1287.38 1412.6 z" fill="rgb(112,110,110)" transform="translate(0,0)"></path>
<path d="M 601.146 359.116 C 610.771 358.689 594.405 363.414 594.213 363.467 C 586.008 361.938 599.511 359.505 601.146 359.116 z" fill="rgb(26,26,26)" transform="translate(0,0)"></path>
<path d="M 740.945 857.356 C 742.08 854.693 744.223 849.424 746.453 847.661 C 748.258 848.401 743.015 858.096 742.353 859.409 L 740.945 857.356 z" fill="rgb(84,82,81)" transform="translate(0,0)"></path>
<path d="M 1103.66 859.009 C 1103.73 861.597 1103.88 863.973 1104.05 866.55 C 1104.09 869.58 1103.91 871.246 1103.44 874.248 L 1100.35 871.612 C 1102.21 868.333 1102.98 862.818 1103.66 859.009 z" fill="rgb(84,82,81)" transform="translate(0,0)"></path>
<path d="M 1302.04 1305.33 C 1305.48 1306.94 1306.58 1307.41 1303.88 1310.54 L 1303.03 1311.7 C 1297.07 1313.05 1300.48 1308.06 1302.04 1305.33 z" fill="rgb(26,26,26)" transform="translate(0,0)"></path>
<path d="M 571.776 367.103 C 572.606 367.285 573.327 367.254 573.75 368.05 C 573.131 370.124 567.533 370.534 565.797 370.856 C 558.751 370.695 571.523 367.16 571.776 367.103 z" fill="rgb(26,26,26)" transform="translate(0,0)"></path>
<path d="M 1408.72 792.431 C 1409.85 791.53 1411.49 791.714 1412.39 792.842 C 1413.28 793.969 1413.1 795.611 1411.96 796.505 C 1410.84 797.394 1409.21 797.206 1408.31 796.084 C 1407.42 794.961 1407.6 793.328 1408.72 792.431 z" fill="rgb(26,26,26)" transform="translate(0,0)"></path>
<path d="M 530.093 812.918 C 535.313 814.43 536.383 814.917 541.439 817.183 C 537.009 816.458 531.403 815.895 527.196 814.648 L 530.093 812.918 z" fill="rgb(84,82,81)" transform="translate(0,0)"></path>
<path d="M 479.255 420.35 C 480.406 419.705 481.859 420.053 482.593 421.149 C 483.327 422.245 483.095 423.722 482.061 424.54 C 481.314 425.13 480.3 425.252 479.436 424.855 C 478.571 424.457 478.002 423.609 477.964 422.658 C 477.926 421.707 478.425 420.815 479.255 420.35 z" fill="rgb(26,26,26)" transform="translate(0,0)"></path>
<path d="M 865.051 671.357 C 868.992 668.808 872.927 666.231 877.006 663.905 L 878.257 665.713 C 874.609 668.259 869.309 669.845 865.051 671.357 z" fill="rgb(84,82,81)" transform="translate(0,0)"></path>
<path d="M 376.177 1239.11 C 365.62 1247.9 364.079 1244.81 374.015 1238.36 L 376.177 1239.11 z" fill="rgb(175,174,173)" transform="translate(0,0)"></path>
<path d="M 1335.92 912.49 C 1338.89 915.394 1337.26 916.559 1335.2 920.105 C 1332.42 916.903 1333.62 915.983 1335.92 912.49 z" fill="rgb(26,26,26)" transform="translate(0,0)"></path>
<path d="M 1383.6 772.491 C 1384.32 771.998 1385.26 771.952 1386.02 772.371 C 1386.79 772.791 1387.26 773.606 1387.23 774.479 C 1387.2 775.353 1386.68 776.136 1385.89 776.506 C 1384.8 777.018 1383.49 776.605 1382.9 775.556 C 1382.3 774.507 1382.6 773.174 1383.6 772.491 z" fill="rgb(26,26,26)" transform="translate(0,0)"></path>
<path d="M 575.793 364.49 C 580.182 363.951 582.582 363.235 586.432 364.952 C 581.297 366.518 580.26 366.735 575.793 364.49 z" fill="rgb(84,82,81)" transform="translate(0,0)"></path>
<path d="M 536.507 371.366 C 545.747 369.155 543.818 372.307 537.309 374.36 L 536.507 371.366 z" fill="rgb(26,26,26)" transform="translate(0,0)"></path>
<path d="M 541.957 379.809 C 543.939 379.08 546.559 378.555 548.225 377.622 L 549.519 376.958 L 550.69 378.117 C 548.65 379.201 546.595 380.221 544.518 381.232 L 541.957 379.809 z" fill="rgb(175,174,173)" transform="translate(0,0)"></path>
<path d="M 411.316 460.551 C 413.705 462.67 412.543 463.287 410.642 465.764 L 409.523 467.476 C 406.669 464.967 409.156 463.298 411.316 460.551 z" fill="rgb(26,26,26)" transform="translate(0,0)"></path>
<path d="M 380.353 1184.86 L 381.93 1186.85 C 380.455 1188.42 378.937 1189.95 377.38 1191.43 L 375.332 1190.4 C 377.145 1188.53 378.646 1186.82 380.353 1184.86 z" fill="rgb(26,26,26)" transform="translate(0,0)"></path>
<path d="M 521.154 801.113 C 524.1 800.952 528.675 799.457 528.585 803.119 C 526.149 804.132 523.435 802.173 521.154 801.113 z" fill="rgb(26,26,26)" transform="translate(0,0)"></path>
<path d="M 1621.43 708.546 C 1624.5 707.247 1624.16 708.768 1622.34 710.643 C 1619.65 711.628 1619.92 710.201 1621.43 708.546 z" fill="rgb(26,26,26)" transform="translate(0,0)"></path>
<path d="M 838.056 726.634 C 840.199 728.284 840.663 728.996 839.14 731.423 C 835.388 732.28 837.12 729.585 838.056 726.634 z" fill="rgb(84,82,81)" transform="translate(0,0)"></path>
<path d="M 553.837 361.843 L 554.133 362.886 C 554.605 364.35 553.97 364.838 552.991 365.942 C 548.366 364.325 550.221 363.202 553.837 361.843 z" fill="rgb(26,26,26)" transform="translate(0,0)"></path>
<path d="M 638.563 342.953 C 638.462 340.902 642.624 341.553 643.588 341.985 C 644.154 343.081 643.091 343.231 641.981 343.859 C 640.275 343.585 639.848 343.685 638.563 342.953 z" fill="rgb(84,82,81)" transform="translate(0,0)"></path>
<path d="M 559.605 360.121 C 560.868 359.55 561.731 359.032 563.121 359.368 C 565.018 361.13 559.589 364.393 558.652 365.045 C 558.961 363.392 559.256 361.767 559.605 360.121 z" fill="rgb(26,26,26)" transform="translate(0,0)"></path>
<path d="M 1103.66 859.009 C 1103.75 857.965 1103.88 855.616 1104.47 854.883 C 1105.04 855.257 1105.71 857.651 1105.89 858.132 C 1105.32 861.082 1104.76 863.645 1104.05 866.55 C 1103.88 863.973 1103.73 861.597 1103.66 859.009 z" fill="rgb(150,148,146)" transform="translate(0,0)"></path>
<path d="M 1292.15 1338.59 C 1293.64 1342.39 1292.52 1342.74 1290.52 1346.35 C 1289.67 1343.53 1289.78 1342.31 1291.4 1339.79 L 1292.15 1338.59 z" fill="rgb(84,82,81)" transform="translate(0,0)"></path>
<path d="M 1302.06 1357.5 C 1304.66 1358.15 1304.55 1358.21 1302.66 1360.38 C 1302.45 1360.44 1301.04 1360.99 1300.52 1360.72 C 1300.47 1360.66 1300.42 1360.59 1300.36 1360.53 C 1300.23 1359.85 1302.02 1357.57 1302.06 1357.5 z" fill="rgb(175,174,173)" transform="translate(0,0)"></path>
<path d="M 780.061 831.943 C 781.401 830.295 781.932 829.49 784.003 830.603 L 785.12 831.163 C 783.118 833.791 783.004 833.531 780.061 831.943 z" fill="rgb(26,26,26)" transform="translate(0,0)"></path>
<path d="M 541.957 379.809 L 544.518 381.232 C 543.276 381.69 538.619 383.932 537.692 383.561 C 536.847 382.048 541.138 380.15 541.957 379.809 z" fill="rgb(84,82,81)" transform="translate(0,0)"></path>
<path d="M 533.096 372.27 L 533.985 375.115 L 531.068 376.234 L 528.893 374.81 C 530.459 373.783 531.439 373.13 533.096 372.27 z" fill="rgb(26,26,26)" transform="translate(0,0)"></path>
<path d="M 390.463 503.631 C 392.227 505.142 392.736 506.068 390.602 507.58 C 389.575 507.566 389.025 507.912 388.577 507.118 C 388.746 506.344 390.071 504.358 390.463 503.631 z" fill="rgb(26,26,26)" transform="translate(0,0)"></path>
<path d="M 380.099 519.65 C 382.054 521.49 381.776 521.959 380.435 524.367 L 379.549 526.196 C 377.877 524.443 378.446 523.882 379.425 521.563 L 380.099 519.65 z" fill="rgb(84,82,81)" transform="translate(0,0)"></path>
<path d="M 1304.66 1314.28 C 1306.86 1313.96 1306.37 1314.49 1305.73 1315.76 C 1305.06 1315.99 1304.1 1316.66 1303.49 1316.13 C 1303.57 1315.39 1304.2 1314.84 1304.66 1314.28 z" fill="rgb(26,26,26)" transform="translate(0,0)"></path>
<path d="M 942.486 651.501 L 943.448 653.363 C 943.156 653.556 938.976 656.78 938.487 655.285 C 938.867 653.9 941.396 652.253 942.486 651.501 z" fill="rgb(150,148,146)" transform="translate(0,0)"></path>
<path d="M 526.613 375.302 C 527.373 375.138 528.133 374.974 528.893 374.81 L 531.068 376.234 C 529.793 376.97 528.503 377.678 527.198 378.359 L 526.613 375.302 z" fill="rgb(150,148,146)" transform="translate(0,0)"></path>
<path d="M 481.591 396.383 C 482.577 396.259 483.1 395.972 483.552 396.358 C 483.319 396.988 482.508 397.335 481.942 397.663 C 480.919 397.962 480.55 397.985 479.776 398.147 L 479.688 397.997 C 480.152 397.104 480.681 396.931 481.591 396.383 z" fill="rgb(26,26,26)" transform="translate(0,0)"></path>
<path d="M 671.265 968.378 C 673.062 966.187 673.646 965.839 675.916 964.043 C 675.12 965.952 674.367 967.581 673.462 969.453 L 671.265 968.378 z" fill="rgb(84,82,81)" transform="translate(0,0)"></path>
<path d="M 533.096 372.27 L 536.507 371.366 L 537.309 374.36 C 536.279 374.515 534.988 374.869 533.985 375.115 L 533.096 372.27 z" fill="rgb(150,148,146)" transform="translate(0,0)"></path>
<path d="M 630.505 342.544 C 631.948 341.892 632.513 341.482 633.664 342.681 C 631.768 344.156 631.213 345.079 630.505 342.544 z" fill="rgb(26,26,26)" transform="translate(0,0)"></path>
<path d="M 384.187 1199.06 C 384.862 1199.58 385.649 1200.54 386.213 1201.16 C 383.255 1203.84 382.61 1202.2 384.187 1199.06 z" fill="rgb(112,110,110)" transform="translate(0,0)"></path>
<path d="M 627.747 1086.51 C 628.391 1086.47 628.807 1086.34 629.351 1086.52 L 629.335 1086.62 C 628.89 1087.04 628.452 1087.26 627.9 1087.61 C 627.437 1087.6 626.974 1087.59 626.512 1087.58 L 626.501 1087.44 C 626.776 1087 627.306 1086.78 627.747 1086.51 z" fill="rgb(26,26,26)" transform="translate(0,0)"></path>
<path d="M 617.511 1058.64 L 619.408 1059.55 C 615.61 1063.14 613.382 1063.84 617.511 1058.64 z" fill="rgb(84,82,81)" transform="translate(0,0)"></path>
<path d="M 549.519 376.958 C 551.143 373.747 553.562 375.531 550.69 378.117 L 549.519 376.958 z" fill="rgb(84,82,81)" transform="translate(0,0)"></path>
<path d="M 832.956 740.512 C 833.101 740.594 833.245 740.676 833.39 740.758 C 833.455 741.094 833.448 740.858 833.291 741.571 C 833.112 741.444 832.933 741.317 832.753 741.191 C 832.72 740.79 832.698 741.025 832.956 740.512 z" fill="rgb(112,110,110)" transform="translate(0,0)"></path>
<path d="M 1093.95 1091.1 C 1093.71 1092.08 1093.2 1093.26 1092.84 1094.19 C 1092.31 1092.19 1092.05 1092.21 1093.95 1091.1 z" fill="rgb(84,82,81)" transform="translate(0,0)"></path>
<path d="M 1295.62 1397.57 C 1295.18 1398 1294.75 1398.44 1294.31 1398.88 C 1293.93 1398.08 1294.31 1397.49 1294.61 1396.64 L 1295.62 1397.57 z" fill="rgb(150,148,146)" transform="translate(0,0)"></path>
<metadata><recraft-signature>{"signed_by": "recraft", "signature_b64": "UgOnUr2eeli4xJuxC5uFZpfhbPGlDP8SnEq+vhRM08f4H3QO4GSrkrrUL3jcI+PjnH9pvrFtvy6ljul1/MyhCg==", "signing_algo": "Ed25519", "generation_timestamp": 1783841071, "identifier": "99dc660d-a061-4bb4-91b2-0bf63cd1125e"}</recraft-signature></metadata></svg>