<svg xmlns="http://www.w3.org/2000/svg" height="2048" preserveAspectRatio="none" style="display: block;" version="1.1" viewBox="0 0 2048 2048" width="2048">
<path d="M 991.238 250.351 C 1011.98 244.689 1081.02 240.256 1101.35 244.506 L 1089.7 244.704 C 1086.87 245.191 1070.58 244.917 1067.42 244.808 C 1045.18 245.564 1023.03 248.128 1001.21 252.475 L 1004.79 254.388 C 1059.78 250.31 1120.27 258.778 1172.64 275.89 C 1176.17 277.044 1180.16 275.781 1183.74 276.429 C 1188.57 278.263 1195.02 282.783 1199.85 285.323 C 1203.39 287.183 1211.6 288.017 1213.6 289.262 C 1218.77 292.49 1231.49 301.977 1237.89 299.884 C 1239.05 298.111 1238.92 298.622 1239.51 296.657 C 1236.73 294.665 1234.45 293.601 1233.33 290.477 C 1237.69 291.776 1238.3 291.94 1241.32 295.386 C 1243.11 296.705 1242.1 296.325 1244.35 296.501 L 1244.21 294.806 C 1240.8 290.522 1240.12 290.107 1235.4 287.267 C 1210.83 271.223 1196.4 265.807 1168.8 257.589 C 1159.54 254.079 1128.13 252.078 1123.8 247.605 C 1134.6 245.073 1154.78 252.848 1166.57 253.529 L 1168.07 253.606 C 1179.05 254.125 1198 262.073 1208.03 266.983 C 1215.2 270.489 1219.72 267.79 1223.52 269.62 C 1240.94 278.012 1256.11 290.982 1269.61 304.641 C 1273.06 308.137 1280.53 312.759 1283.5 316.531 C 1297.91 334.815 1310.11 363.911 1307.54 387.539 C 1306.67 395.559 1306.15 401.6 1305.9 409.509 C 1297.58 421.093 1288.24 431.703 1280.35 443.5 C 1269.71 459.393 1259.97 479.35 1246.67 493.029 C 1233.73 506.333 1212.66 513.721 1196.5 521.975 C 1188.12 526.252 1178.52 532.849 1169.86 536.238 C 1156.06 541.497 1141.64 545.905 1127.68 550.681 C 1122.6 552.42 1108.16 559.402 1103.93 559.488 C 1089.51 559.781 1083.62 567.985 1070.67 571.273 C 1069.85 571.444 1069.03 571.614 1068.21 571.784 C 1061.37 572.196 1039.99 580.317 1034.55 584.016 C 1055.24 583.88 1075.57 583.382 1096.19 583.849 C 1143.72 584.926 1190.79 590.207 1238.26 585.386 C 1248.87 584.308 1262.53 586.844 1271.86 581.723 C 1279 577.525 1284.16 574.393 1290.64 569.25 C 1304.8 558.013 1312.05 546.362 1329.34 540.175 C 1317.44 554.199 1289.24 573.987 1273.54 583.722 L 1274.55 585.016 C 1284.82 589.055 1304 566.839 1320.48 563.682 C 1319.1 567.389 1313.27 572.366 1310.29 575.675 C 1316.74 571.942 1319.14 570.442 1324.87 565.738 C 1343.47 547.594 1357.5 525.514 1376.81 507.325 C 1386.45 498.241 1389.92 488.349 1402.28 478.609 C 1394.95 488.59 1394.1 489.866 1390.96 501.968 C 1374.69 510.177 1376.35 519.634 1367.8 534.911 C 1360.11 548.66 1346.18 564.382 1340.06 578.49 C 1336.19 587.41 1326.56 593.482 1326.99 601.429 C 1333.84 602.513 1344.31 586.939 1348.58 587.269 C 1348.24 590.653 1332.57 606.411 1328.11 615.219 C 1331.42 612.445 1335.2 608.499 1339.17 607.671 C 1342.78 609.015 1343.06 609.857 1346.09 609.073 C 1353.92 598.723 1360.43 590.16 1369.02 580.462 L 1372.07 577.385 C 1376.03 572.487 1379.78 566.999 1385.65 564.563 L 1385.95 565.369 C 1374.67 581.209 1358.86 595.358 1348.26 611.219 C 1338.68 629.509 1328.7 639.486 1314.35 654.005 C 1312.72 655.655 1312.78 656.054 1312.96 658.059 C 1315.85 659.164 1318 658.843 1321.1 658.774 L 1321.41 659.524 C 1314.99 666.635 1303.31 670.759 1299.35 675.262 C 1306.86 675.173 1308.42 671.028 1314.84 671.037 L 1315.23 671.857 C 1309.1 676.096 1308.09 676.041 1300.68 676.784 C 1295.79 679.451 1279.69 688.739 1278 693.282 C 1280.54 694.424 1281.18 693.534 1284.67 692.602 L 1286.81 694.477 L 1281.2 701.1 C 1275.02 702.831 1260.88 708.143 1256.93 713.095 L 1257.4 715.252 C 1261.32 717.518 1263.72 715.121 1267.6 717.035 L 1265.54 719.085 C 1250.97 721.486 1252.43 732.288 1237.38 737.279 C 1227.11 740.684 1219.92 735.805 1211.28 737.551 C 1210.52 738.158 1207.38 740.659 1206.74 740.747 C 1204.65 741.039 1198.99 740.507 1196.79 740.265 C 1187.6 739.26 1177.22 739.054 1168.3 736.924 C 1157.2 734.275 1146.05 729.911 1135.11 726.591 C 1128 724.433 1119.95 724.367 1112.97 722.236 C 1083.01 713.085 1054.25 701.441 1022.79 697.943 C 992.31 694.554 960.435 695.199 929.913 698.587 C 919.189 699.778 923.036 704.363 918.166 704.259 C 910.687 703.726 905.624 703.785 898.725 707.446 C 894.018 709.944 890.344 710.301 885.042 710.623 C 857.021 736.676 843.705 727.911 811.758 718.936 C 807.843 717.836 796.965 720.104 791.915 719.107 C 779.079 716.573 765.305 717.714 752.697 714.393 C 750.952 713.938 740.869 701.299 737.987 699.362 C 734.175 696.799 730.017 697.561 727.412 693.664 C 715.527 679.382 711.074 675.745 716.742 657.467 C 721.568 637.391 736.141 629.064 751.218 617.234 C 775.21 598.407 800.017 581.091 827.386 567.506 C 852.049 555.264 876.971 545.31 902.596 535.453 C 914.632 530.823 926.376 524.379 938.439 519.965 C 970.171 508.354 1002.14 497.528 1032.47 482.462 C 1050.54 473.453 1068.5 463.182 1081.06 446.894 C 1094 430.123 1097.8 407.367 1094.75 386.895 C 1091.76 366.848 1080.21 353.265 1064.65 341.655 C 1042.79 324.612 1029.64 320.147 1001.07 325.176 C 966.461 331.992 925.204 342.421 901.28 370.045 C 898.585 373.157 899.315 376.208 900.099 379.752 C 897.942 383.594 897.815 384.173 896.634 388.486 L 898.292 390.718 L 896.583 389.591 L 897.127 390.728 C 899.841 390.655 900.225 388.823 904.207 387.484 C 906.67 391.355 907.775 394.962 912.409 395.059 C 914.39 392.457 914.497 392.264 916.986 390.184 L 918.511 391.055 L 918.331 392.66 C 914.202 398.321 912.495 396.63 910.017 398.976 C 896.992 411.299 884.996 422.3 881.341 439.819 L 867.479 444.269 C 858.8 440.525 859.123 439.65 852.79 432.215 C 848.328 425.706 839.396 432.989 835.385 431.579 C 821.387 426.658 792.743 415.189 795.713 396.039 C 796.637 390.082 801.761 376.379 806.57 372.649 L 809.188 374.755 L 811.25 374.466 C 816.076 369.444 824.029 352.899 828.782 345.798 C 834.259 337.615 840.343 330.699 845.648 322.933 C 840.007 322.124 837.655 326.591 830.828 330.631 C 832.919 327.2 839.235 320.786 842.221 317.563 C 882.918 278.545 937.25 262.006 991.238 250.351 z" fill="currentColor" transform="translate(0,0)"></path>
<path d="M 1067.42 244.808 C 1071.33 243.764 1087.08 242.067 1089.7 244.704 C 1086.87 245.191 1070.58 244.917 1067.42 244.808 z" fill="currentColor" transform="translate(0,0)"></path>
<path d="M 1001.21 252.475 L 1004.79 254.388 C 999.456 255.145 998.794 255.281 993.674 254.337 C 996.399 252.74 998.073 252.929 1001.21 252.475 z" fill="currentColor" transform="translate(0,0)"></path>
<path d="M 1052.16 562.348 C 1053.05 559.347 1057.88 559.476 1060.37 559.502 C 1057.41 562.228 1056.41 561.925 1052.16 562.348 z" fill="currentColor" transform="translate(0,0)"></path>
<path d="M 956.058 761.264 C 970.915 760.635 976.614 756.842 990.331 753.685 C 1031.47 744.216 1081.44 752.453 1117.67 774.245 C 1124.82 778.546 1128.14 774.985 1134.68 779.352 C 1144.82 787.256 1149.45 795.919 1160.96 802.31 C 1156.81 809.773 1154.36 812.212 1155.34 820.451 C 1158.36 819.732 1166.22 809.12 1171.09 805.823 C 1175.71 811.879 1176.71 813.739 1183.47 817.358 C 1164.28 844.02 1155.37 898.508 1153.03 931.119 C 1152.93 936.959 1153.08 943.374 1152.08 949.065 C 1151.75 987.179 1150.96 1021.81 1156.45 1059.73 C 1158.35 1072.35 1162.89 1095.55 1162.23 1106.92 C 1166.49 1106.45 1180.06 1108.94 1184.67 1109.67 C 1228.58 1116.68 1282.51 1137.4 1320.14 1160.9 C 1324.25 1170.55 1333.92 1176.42 1331.68 1187.54 C 1326.39 1195.26 1322.12 1188.66 1316.26 1192.22 C 1316.05 1197.94 1319.16 1195.22 1319.4 1200.74 C 1315.05 1203.29 1315.28 1201.13 1308.7 1202.2 C 1306.13 1204.39 1306.75 1203.04 1306.05 1205.91 C 1308.08 1208.74 1309.38 1209.92 1309.59 1213.37 C 1305.36 1222.08 1298.65 1215.4 1289.73 1220.64 C 1284.16 1226.49 1292.27 1227.61 1281.37 1234.55 C 1268.75 1242.57 1258.28 1244.11 1243.95 1246.77 C 1243.72 1246.81 1239.63 1255.44 1236.98 1253.99 C 1230.4 1255.27 1208.14 1254.56 1203.67 1257.39 C 1204.52 1260.17 1207.38 1261.67 1210.04 1263.82 L 1209.25 1264.54 C 1186.18 1262.44 1172.48 1251.56 1157.1 1247.46 C 1122.2 1238.16 1073.23 1236.76 1037.43 1237.96 C 1012.79 1238.63 988.234 1241 963.922 1245.03 C 951.97 1247.01 940.331 1249.17 928.678 1251.94 C 913.419 1255.57 871.386 1270.88 857.107 1265.68 C 840.964 1259.81 804.035 1242.49 793.24 1227.11 C 789.128 1221.25 789.409 1209.93 787.59 1203.84 C 786.757 1201.05 780.221 1194.02 778.791 1190.64 C 774.349 1180.14 781.706 1184.33 784.101 1177.06 C 783.903 1176.13 783.715 1175.21 783.537 1174.28 C 782.192 1167.1 783.223 1165.87 787.868 1160.55 C 793.492 1154.1 793.547 1156.21 791.746 1148.63 C 795.533 1142.2 801.279 1142.78 805.894 1133.24 C 810.947 1131.31 817.297 1128.09 822.324 1125.7 C 826.293 1126.68 828.684 1127.35 832.736 1126.89 C 861.464 1123.6 890.384 1122.71 919.013 1118.48 C 928.691 1117.05 938.457 1115.85 948.158 1114.52 C 941.778 1092.99 942.609 1080.63 939.315 1059.14 C 933.521 1021.35 925.672 966.387 933.482 928.573 C 920.761 930.696 915.698 926.131 903.091 926.511 C 890.142 926.902 827.321 940.507 818.694 932.849 C 819.374 931.136 820.146 930.005 821.246 928.531 C 816.736 926.67 806.042 926.017 799.704 924.501 C 796.491 917.416 789.032 917.693 782.702 911.059 C 777.152 905.244 771.418 896.808 768.001 889.655 L 768.623 887.955 C 776.403 882.443 801.572 881.019 813.406 878.174 C 825.879 875.128 838.094 871.105 849.937 866.144 C 864.57 859.851 922 828.537 929.292 814.114 C 935.826 801.193 950.674 774.614 956.058 761.264 z" fill="currentColor" transform="translate(0,0)"></path>
<path d="M 1148.24 859.238 C 1152.22 861.015 1153.32 861.835 1151.39 866.264 C 1148.55 872.751 1146.44 881.383 1145.49 888.39 C 1144.69 888.583 1144.96 888.557 1144.57 888.558 C 1142.18 887.249 1147.44 862.358 1148.24 859.238 z" fill="currentColor" transform="translate(0,0)"></path>
<path d="M 1106.94 1039.6 C 1111.16 1044.05 1110 1059.24 1110.66 1067.35 C 1106.11 1063.66 1106.98 1045.39 1106.94 1039.6 z" fill="currentColor" transform="translate(0,0)"></path>
<path d="M 1144.9 988.151 L 1144.98 992.279 L 1142.79 991.889 L 1142.42 989.446 L 1144.9 988.151 z" fill="currentColor" transform="translate(0,0)"></path>
<path d="M 1058.46 1029.72 L 1059.66 1030.38 C 1059.53 1030.81 1059.16 1032.44 1058.59 1032.46 C 1058.17 1031.68 1058.4 1030.56 1058.46 1029.72 z" fill="currentColor" transform="translate(0,0)"></path>
<path d="M 739.458 1483.25 C 744.512 1472.41 750.37 1463.5 756.848 1453.48 C 758.134 1451.49 755.644 1436.56 755.648 1436.56 C 760.143 1430.43 768.716 1425.9 771.926 1418.77 C 776.437 1408.76 774.036 1403.88 781.625 1395.2 C 788.957 1386.83 795.783 1381.59 804.596 1375.01 C 830.451 1348.67 839.278 1356.35 873.316 1352.73 C 936.428 1346.01 1000.57 1346.98 1064 1340.64 C 1113.5 1335.69 1162.17 1324.42 1208.81 1307.11 L 1210.26 1307.66 C 1218.25 1310.61 1224.48 1310.56 1232.45 1312.68 C 1232.62 1312.72 1239.5 1321.93 1241.94 1323.26 C 1256.4 1331.21 1281.76 1339.37 1292.05 1352.23 C 1305.16 1368.6 1312.03 1391.55 1322.77 1409.64 C 1324.4 1412.46 1324.55 1414.29 1323.76 1416.87 C 1319.96 1419.5 1316.39 1419.68 1314.15 1423.53 C 1312.27 1433.01 1320.95 1437.13 1311.32 1443.31 C 1302.61 1448.89 1288.42 1453.25 1280.74 1459.54 C 1271.48 1467.14 1263.49 1478.39 1254.43 1487.14 C 1235.02 1505.87 1213.16 1524.04 1193.98 1542.58 C 1172.18 1563.66 1150.32 1595.47 1134.07 1621.22 C 1128.52 1630.01 1123.58 1642.68 1118.39 1651.99 C 1116.05 1656.18 1109.85 1663.03 1108.33 1666.7 C 1102.42 1680.9 1103.95 1685.93 1094.14 1698.82 C 1093.05 1720.02 1081.83 1740.53 1075.39 1760.48 C 1071.84 1771.47 1064.21 1811 1048.69 1809.69 C 1046.07 1808.04 1044.47 1800.96 1043.16 1797.21 C 1041.73 1803.59 1041.82 1807.33 1035.89 1810.32 C 1028.63 1813.98 1026.53 1815.47 1020.49 1820.72 C 1000.02 1818.81 990.019 1846.96 964.212 1831.3 C 957.765 1827.39 950.498 1827.3 945.407 1818.4 C 944.259 1816.74 931.567 1815.59 928.262 1815.32 C 927.376 1815.24 926.49 1815.18 925.603 1815.12 C 924.243 1817.36 924.694 1816.41 924.642 1819.38 C 923.28 1819.54 874.074 1804.45 867.628 1802.49 C 864.273 1804.35 862.241 1806.09 858.575 1805.54 C 852.189 1800.8 845.427 1777.92 843.637 1770.1 C 847.249 1756.36 852.605 1748.44 858.392 1735.81 C 862.902 1725.97 866.02 1712.48 870.854 1703.06 C 894.275 1657.41 937.891 1609.21 958.954 1564.91 C 974.055 1555.84 976.651 1544.07 987.284 1530.68 C 992.722 1523.83 1006.53 1514.08 1010.32 1508.51 C 1026.41 1484.83 1050.14 1468.81 1068.34 1447.98 L 1067.78 1446.08 C 1063.5 1445.37 1059.17 1443.25 1055.24 1443.79 C 1054.49 1443.75 1053.74 1443.7 1052.99 1443.66 C 1038.6 1438.78 1017.74 1438.65 1002.55 1438.81 C 996.686 1439.16 989.457 1439.43 983.745 1437.95 C 962.699 1437.74 941.652 1438.11 920.625 1439.04 C 882.482 1440.67 844.857 1443.87 808.066 1454.76 C 777.069 1463.94 771.957 1482.66 739.458 1483.25 z" fill="currentColor" transform="translate(0,0)"></path>
<path d="M 971.438 1436.12 C 974.801 1435.98 985.454 1435.76 988.647 1436.83 C 1013.46 1437.65 1036.01 1436.47 1060.76 1441.48 C 1064.2 1442.18 1070.2 1441.65 1074.02 1441.74 L 1072.68 1442.66 C 1069.36 1444.92 1070.26 1442.28 1067.78 1446.08 C 1063.5 1445.37 1059.17 1443.25 1055.24 1443.79 C 1054.49 1443.75 1053.74 1443.7 1052.99 1443.66 C 1038.6 1438.78 1017.74 1438.65 1002.55 1438.81 C 996.686 1439.16 989.457 1439.43 983.745 1437.95 C 983.523 1437.53 973.564 1436.62 971.438 1436.12 z" fill="currentColor" transform="translate(0,0)"></path>
<path d="M 971.438 1436.12 C 974.801 1435.98 985.454 1435.76 988.647 1436.83 C 987.958 1437.07 986.736 1437.15 986.527 1437.59 C 992.512 1438.14 995.432 1437.43 1002.55 1438.81 C 996.686 1439.16 989.457 1439.43 983.745 1437.95 C 983.523 1437.53 973.564 1436.62 971.438 1436.12 z" fill="currentColor" transform="translate(0,0)"></path>
<path d="M 1023.53 1426.31 C 1028.78 1425.67 1036.34 1425.46 1040 1429.74 C 1034.66 1429.92 1028.22 1428.92 1023.53 1426.31 z" fill="currentColor" transform="translate(0,0)"></path>
<path d="M 1081.92 1636.48 C 1082.65 1636.51 1083.17 1636.21 1083.52 1636.82 C 1083.25 1637.37 1082.86 1637.47 1082.29 1637.81 C 1078.67 1638.18 1080.5 1637.25 1081.92 1636.48 z" fill="currentColor" transform="translate(0,0)"></path>
<path d="M 1032.74 1718.11 L 1034.39 1721.96 C 1031.03 1722.72 1028.31 1721.87 1031.8 1718.94 L 1032.74 1718.11 z" fill="currentColor" transform="translate(0,0)"></path>
<path d="M 1061.11 1676.58 C 1061.84 1676.54 1061.51 1676.53 1062.11 1676.58 C 1061.91 1676.71 1061.71 1676.85 1061.52 1676.99 C 1061.23 1676.89 1061.38 1676.99 1061.11 1676.58 z" fill="currentColor" transform="translate(0,0)"></path>
<path d="M 1052.99 1443.66 C 1053.74 1443.7 1054.49 1443.75 1055.24 1443.79 C 1044.46 1458.5 1029.58 1471.1 1018.26 1485.31 L 1016.97 1483.78 C 1025.2 1474.88 1046.4 1452.96 1052.99 1443.66 z" fill="currentColor" transform="translate(0,0)"></path>
<path d="M 1349.02 850.551 C 1359.68 852.781 1358.75 852.849 1356.51 863.163 C 1348.32 861.771 1348.89 857.606 1349.02 850.551 z" fill="currentColor" transform="translate(0,0)"></path>
<path d="M 703.949 1455.13 C 709.81 1455.21 716.288 1455.3 716.472 1462.94 C 711.346 1461.98 704.657 1460.93 703.949 1455.13 z" fill="currentColor" transform="translate(0,0)"></path>
<path d="M 1264.31 542.786 C 1265.65 542.853 1266.81 542.852 1267.89 543.792 C 1269.09 547.591 1261.18 548.607 1259.05 549.197 L 1257.23 549.711 C 1256.06 550.117 1255.8 550.368 1254.75 549.924 C 1254.31 548.573 1262.47 544.176 1264.31 542.786 z" fill="currentColor" transform="translate(0,0)"></path>
<path d="M 1397.92 535.758 C 1402.94 540.81 1396.65 543.243 1392.58 545.064 C 1388.7 541.282 1393.63 539.69 1397.92 535.758 z" fill="currentColor" transform="translate(0,0)"></path>
<path d="M 1169.33 1293.5 C 1173.59 1296.07 1172.3 1300.21 1170.79 1304.5 C 1165.54 1300.33 1166.43 1299.25 1169.33 1293.5 z" fill="currentColor" transform="translate(0,0)"></path>
<path d="M 1374.18 588.239 C 1375.31 587.89 1376.54 588.206 1377.37 589.056 C 1378.19 589.906 1378.46 591.146 1378.08 592.263 C 1377.69 593.381 1376.71 594.186 1375.54 594.347 C 1373.92 594.568 1372.4 593.511 1372.05 591.915 C 1371.69 590.32 1372.62 588.721 1374.18 588.239 z" fill="currentColor" transform="translate(0,0)"></path>
<path d="M 1461.73 429.854 C 1463.68 432.797 1462.57 434.897 1460.31 437.406 L 1459.01 438.915 C 1455.01 434.393 1457.66 433.088 1461.73 429.854 z" fill="currentColor" transform="translate(0,0)"></path>
<path d="M 1302.29 1074.74 C 1305.43 1078.18 1304.19 1080.79 1302.37 1084.7 C 1298.54 1080.68 1299.82 1079.7 1302.29 1074.74 z" fill="currentColor" transform="translate(0,0)"></path>
<path d="M 1269.42 1482.36 C 1273.76 1484.97 1271.6 1487.3 1269.08 1490.56 C 1264.78 1487.33 1266.5 1486.76 1269.42 1482.36 z" fill="currentColor" transform="translate(0,0)"></path>
<path d="M 1336.27 1388.61 C 1337.68 1388.69 1338.81 1389.83 1338.86 1391.24 C 1338.92 1392.66 1337.88 1393.88 1336.48 1394.06 C 1335.45 1394.19 1334.44 1393.73 1333.86 1392.87 C 1333.28 1392.01 1333.24 1390.9 1333.75 1390 C 1334.26 1389.1 1335.24 1388.56 1336.27 1388.61 z" fill="currentColor" transform="translate(0,0)"></path>
<path d="M 1481.1 519.386 C 1483.61 521.182 1484.14 521.269 1482.24 523.743 L 1481.41 524.977 C 1478.43 523.251 1477.55 523.152 1480.13 520.494 L 1481.1 519.386 z" fill="currentColor" transform="translate(0,0)"></path>
<path d="M 1285.76 1119.29 C 1288.54 1118.53 1287.7 1121.06 1287.57 1123.2 C 1284.04 1123.57 1284.84 1121.86 1285.76 1119.29 z" fill="currentColor" transform="translate(0,0)"></path>
<path d="M 1284.67 692.602 C 1289.83 690.89 1294.61 690.397 1286.81 694.477 L 1284.67 692.602 z" fill="currentColor" transform="translate(0,0)"></path>
<path d="M 1016.97 1483.78 L 1018.26 1485.31 C 1014.72 1490.56 1012.28 1489.7 1016.97 1483.78 z" fill="currentColor" transform="translate(0,0)"></path>
<path d="M 1322.58 1446.74 C 1323.02 1446.47 1323.47 1446.21 1323.91 1445.94 C 1324.3 1446.3 1324.24 1446.59 1324.4 1447.24 C 1323.77 1447.74 1323.49 1448.08 1323.01 1448.08 C 1322.72 1447.71 1322.69 1447.21 1322.58 1446.74 z" fill="currentColor" transform="translate(0,0)"></path>
<path d="M 905.551 377.66 C 906.379 377.137 906.607 376.898 907.381 376.635 L 907.387 376.705 C 906.81 377.213 906.707 377.213 905.887 377.701 C 905.385 378.18 904.883 378.659 904.381 379.138 C 904.459 378.477 905.104 378.072 905.551 377.66 z" fill="currentColor" transform="translate(0,0)"></path>
<path d="M 913.779 382.283 C 913.963 382.271 914.147 382.258 914.332 382.245 C 914.571 382.515 914.439 382.302 914.661 383.057 C 914.005 383.118 914.205 383.163 913.934 383.046 C 913.778 382.763 913.854 382.973 913.779 382.283 z" fill="currentColor" transform="translate(0,0)"></path>
<path d="M 1367.47 576.2 C 1367.42 575.903 1367.25 575.303 1367.34 574.994 L 1367.44 574.939 C 1367.86 575.046 1367.57 574.937 1368.43 575.434 C 1368.15 575.826 1367.88 575.929 1367.47 576.2 z" fill="currentColor" transform="translate(0,0)"></path>
<path d="M 1333.23 1000.42 C 1333.78 1000.87 1333.54 1000.86 1333.4 1001.69 C 1332.9 1001.16 1333.01 1001.36 1332.9 1001.04 C 1332.96 1000.74 1332.89 1000.93 1333.23 1000.42 z" fill="currentColor" transform="translate(0,0)"></path>
<metadata><recraft-signature>{"signed_by": "recraft", "signature_b64": "Igez9F6e8xDAf6Nh2rk4K9QQZ6CFBI7hpKUOMnFjxi+svHaPJVhW91WC2ucY7AJiH7fYXtGrGhWayNEog5z7Aw==", "signing_algo": "Ed25519", "generation_timestamp": 1783841198, "identifier": "ec304c0c-6d64-4582-a413-34e43ce44923"}</recraft-signature></metadata></svg>