<svg xmlns="http://www.w3.org/2000/svg" version="1.1" viewBox="396 444 1386 1167">
<path d="M 407.712 726 C 416.002 705.231 429.901 669.584 441.297 651.066 C 480.174 587.889 541.786 540.491 597.447 492.957 C 607.158 484.664 618.085 466.254 626.385 458.545 C 629.384 455.76 647.036 471.89 656.01 475.594 L 657.326 476.127 C 661.962 489.179 670.037 495.81 682.279 501.945 C 687.094 504.358 691.113 505.092 695.447 508.515 C 698.266 514.027 697.162 537.64 697.642 544.91 C 697.751 546.564 694.992 555.333 694.299 557.53 C 730.946 549.644 769.38 540.662 806.217 535.151 C 837.028 530.593 868.281 528.653 899.199 524.975 C 926.849 521.686 953.348 514.773 981.28 513.82 C 991.944 513.152 1002.62 512.681 1013.29 511.966 C 1072.07 508.032 1131.08 507.091 1189.96 505.064 C 1228.7 503.731 1267.4 505.495 1306.11 506.685 L 1387.03 509.792 C 1392.56 510.028 1398.18 510.35 1403.7 510.476 C 1456.09 511.67 1506.94 526.49 1559.07 530.65 C 1571.13 531.612 1584.72 532.786 1596.54 534.882 C 1601.34 535.956 1603.66 536.426 1608.19 538.178 L 1607.22 538.009 L 1606 538.806 C 1601.45 538.656 1598.1 538.532 1593.56 537.966 C 1575.98 537.44 1571.79 536.489 1558.11 547.74 C 1550.6 547.053 1529.5 544.196 1523.49 546.705 C 1527.3 550.118 1529.11 546.781 1529.83 549.973 C 1526.7 552.909 1510.84 553.764 1505.69 554.266 C 1501.62 552.244 1496.11 548.5 1492.39 549.376 C 1490.58 551.71 1490.47 552.864 1488.2 552.896 C 1476.93 553.052 1472.59 553.774 1461.88 556.131 C 1466.18 557.516 1469.31 558.168 1472.93 560.863 L 1472.88 562.015 C 1463.64 565.49 1410.99 566.46 1398.42 566.944 C 1376.15 567.801 1337.78 558.42 1315.73 566.046 L 1315.99 566.7 C 1328.6 570.07 1369.37 569.011 1384.77 569.576 C 1418.46 570.813 1453.78 572.422 1487.16 578.129 C 1474.34 579.186 1464.24 579.988 1451.29 579.807 C 1464.61 585.569 1513.52 586.603 1532.06 588.518 C 1526.52 590.501 1521.21 592.784 1515.32 592.955 C 1514.5 593.314 1511.32 594.291 1510.9 594.648 C 1511.1 595.047 1511.3 595.446 1511.49 595.845 C 1538.61 597.657 1570.47 594.152 1594.95 603.804 C 1586.07 605.979 1580.5 607.042 1571.16 607.014 C 1570.27 607.388 1567.69 608.105 1567.15 608.592 C 1567.36 608.919 1567.57 609.247 1567.78 609.574 C 1572.47 610.447 1587.7 612.276 1590.49 613.258 L 1590.33 614.303 C 1586.92 615.847 1586.52 615.766 1582.92 616.358 C 1582.28 617.023 1582.28 617.162 1581.82 618.034 L 1585.04 620.179 L 1585.32 621.769 C 1579.8 624.25 1574.25 621.995 1569.98 624.925 L 1570.17 626.469 C 1572.5 627.948 1574.54 629.198 1576.93 630.571 C 1573.89 632.135 1567.67 632.213 1563.88 632.552 C 1562.14 629.475 1561.25 626.867 1558.16 625.493 C 1548.67 624.729 1512.43 628.88 1503.47 631.572 C 1501.53 633.967 1498.46 638.038 1496.44 640.133 C 1481.96 637.128 1442.61 636.681 1427.62 638.901 C 1452.96 642.566 1470.74 641.705 1496.31 641.819 C 1512.72 643.931 1529.15 641.07 1545.67 641.053 C 1554.09 641.045 1554.98 638.138 1562.66 643.031 C 1574.66 642.943 1611.8 641.547 1621.19 644.76 L 1622.58 646.25 C 1618.96 652.025 1609.12 650.871 1602.55 651.664 C 1587.51 653.481 1563.78 662.51 1550.2 653.281 C 1547.09 651.134 1540.72 651.447 1537.61 652.194 C 1518.09 656.882 1496.7 657.608 1477.36 661.447 C 1493.34 663.067 1582.87 659.747 1586.15 662.224 L 1589.78 659.01 L 1591.52 659.151 C 1590.96 662.285 1590.18 662.56 1587.06 664.176 C 1578.64 673.357 1570.37 669.09 1559.98 667.052 C 1557.11 666.487 1553.26 669.079 1550.43 669.603 C 1545.14 670.542 1535.28 665.6 1531.47 670.267 C 1530.84 670.936 1530.22 671.605 1529.6 672.275 C 1511.2 673.689 1482.7 678.033 1464.83 676.503 C 1461.54 676.221 1462.58 664.767 1449.39 669.209 C 1448.27 672.015 1448.75 671.764 1450.75 673.954 L 1451.9 676 C 1449.78 677.995 1446.36 678.082 1443.27 678.12 C 1435.93 679.515 1425.39 679.013 1417.62 678.957 C 1417.28 678.756 1416.94 678.554 1416.59 678.352 C 1417.5 677.419 1421.23 676.963 1422.51 676.726 C 1424.13 676.866 1425.72 677.057 1427.34 677.24 L 1427.63 675.324 C 1422.74 671.785 1380.4 674.57 1375.2 677.893 L 1374.67 679.477 L 1376.51 681.191 C 1381.17 679.34 1384.09 677.734 1389.09 677.732 C 1392.07 679.054 1391.15 677.971 1392.43 680.53 C 1388.13 685.098 1371.48 684.376 1364.81 684.69 C 1352.46 685.316 1340.11 686.06 1327.77 686.921 L 1326.93 684.78 C 1333.31 680.449 1349.53 682.534 1357.71 680.81 C 1362.32 679.839 1364.7 678.872 1369.02 677.14 C 1353.91 676.423 1338.29 676.298 1323.15 676.235 C 1317.86 676.212 1315.77 676.412 1311.95 680.116 C 1308.73 680.865 1303.1 681.792 1299.8 682.265 C 1296.17 680.151 1295 678.593 1292.04 675.515 C 1278.83 675.911 1262.35 675.964 1249.76 679.441 C 1248.33 679.835 1240.9 685.907 1235.3 688.014 C 1239.65 687.954 1252.5 687.428 1255.91 689.215 C 1252.71 690.243 1248.17 691.456 1244.91 690.733 C 1232.42 687.96 1220.63 692.516 1208.35 693.589 C 1198.31 694.466 1187.47 694.931 1177.33 695.785 C 1172.4 696.201 1163.68 696.855 1158.97 695.702 C 1164.79 692.059 1171.88 692.903 1178.69 693.075 C 1187.16 686.302 1193.25 687.874 1204.43 685.308 L 1204.34 684.679 C 1182.61 681.157 1156.22 687.145 1134.08 690.807 C 1133.17 693.117 1133.49 692.568 1132.07 694.661 C 1120.71 696.144 1108.24 694.511 1096.95 695.898 C 1017.46 706.174 936.888 715.772 859.132 735.981 C 811.152 748.451 763.62 759.193 715.434 770.551 C 689.076 776.765 662.142 788.661 635.141 794.673 C 622.969 797.382 610.664 803.801 597.557 806.395 C 589.443 807.967 581.044 807.074 573.442 803.831 C 559.576 797.835 554.255 787.51 549.319 774.421 C 528.994 780.322 539.688 783.153 530.478 791.959 C 515.737 806.055 485.971 788.932 473.033 779.107 C 468.43 775.611 463.248 769.126 459 764.34 C 450.945 765.499 446.398 766.844 438.504 769.152 C 415.11 759.205 412.873 749.565 407.712 726 z" fill="rgb(30,26,22)" transform="translate(0,0)"></path>
<path d="M 1422.51 676.726 C 1424.13 676.866 1425.72 677.057 1427.34 677.24 C 1430.45 678.708 1438.75 677.901 1443.27 678.12 C 1435.93 679.515 1425.39 679.013 1417.62 678.957 C 1417.28 678.756 1416.94 678.554 1416.59 678.352 C 1417.5 677.419 1421.23 676.963 1422.51 676.726 z" fill="rgb(96,91,84)" transform="translate(0,0)"></path>
<path d="M 1417.62 678.957 C 1417.28 678.756 1416.94 678.554 1416.59 678.352 C 1417.5 677.419 1421.23 676.963 1422.51 676.726 C 1420.82 677.661 1419.4 678.206 1417.62 678.957 z" fill="rgb(164,158,146)" transform="translate(0,0)"></path>
<path d="M 1433.89 672.255 C 1438.61 671.29 1445 670.422 1449.39 669.209 C 1448.27 672.015 1448.75 671.764 1450.75 673.954 C 1445.83 672.604 1439.6 672.849 1433.89 672.255 z" fill="rgb(205,198,184)" transform="translate(0,0)"></path>
<path d="M 1567.78 609.574 C 1565.83 609.591 1563.9 609.386 1561.95 609.367 L 1561.09 608.223 L 1560.82 609.173 L 1560.88 608.149 L 1560.06 608.569 C 1560.03 606.26 1569.8 607.007 1571.16 607.014 C 1570.27 607.388 1567.69 608.105 1567.15 608.592 C 1567.36 608.919 1567.57 609.247 1567.78 609.574 z" fill="rgb(164,158,146)" transform="translate(0,0)"></path>
<path d="M 1581.82 618.034 C 1580.6 618.115 1573.45 618.894 1573.4 617.658 L 1574.24 618.06 L 1574.26 616.925 C 1577.15 615.756 1579.93 615.948 1582.92 616.358 C 1582.28 617.023 1582.28 617.162 1581.82 618.034 z" fill="rgb(205,198,184)" transform="translate(0,0)"></path>
<path d="M 1511.49 595.845 C 1509.44 595.928 1507.81 595.84 1505.93 595.046 L 1506.11 595.235 L 1505.95 594.726 L 1505.78 594.693 C 1506.77 593.515 1513.67 593.031 1515.32 592.955 C 1514.5 593.314 1511.32 594.291 1510.9 594.648 C 1511.1 595.047 1511.3 595.446 1511.49 595.845 z" fill="rgb(164,158,146)" transform="translate(0,0)"></path>
<path d="M 1459.86 661.23 C 1455.57 660.906 1429.17 663.254 1428.23 662.367 L 1428.26 662.107 C 1429.71 660.477 1454.82 658.073 1458.55 657.837 L 1459.86 661.23 z" fill="rgb(205,198,184)" transform="translate(0,0)"></path>
<path d="M 1458.55 657.837 C 1476.9 655.112 1472.02 667.547 1459.86 661.23 L 1458.55 657.837 z" fill="rgb(243,236,220)" transform="translate(0,0)"></path>
<path d="M 1469.63 671.3 C 1473.81 671.005 1480.87 668.761 1477.71 674.359 C 1474.35 674.715 1467.79 676.665 1469.63 671.3 z" fill="rgb(243,236,220)" transform="translate(0,0)"></path>
<path d="M 1513.73 667.357 C 1516.26 667.17 1520.03 666.096 1521.66 668.368 C 1518.34 669.833 1517.01 668.735 1513.73 667.357 z" fill="rgb(126,120,111)" transform="translate(0,0)"></path>
<path d="M 441.856 1033.11 C 469.304 1022.14 513.999 988.352 535.164 966.637 C 547.344 955.013 558.347 937.212 570.053 925.785 C 591.024 905.313 596.249 895.534 609.101 869.721 L 611.286 869.392 C 615.939 872.208 615.294 880.219 620.404 884.359 L 624.776 883.647 C 633.653 890.992 646.454 894.944 652.639 904.049 C 656.198 909.286 659.842 908.979 660.97 913.613 L 661.191 914.558 C 667.047 915.038 665.386 914.551 669.746 918.095 C 675.608 918.651 678.59 915.526 683.537 920.303 C 688.026 930.631 675.88 944.687 672.431 954.764 C 670.727 959.739 670.209 963.455 669.395 968.578 C 681.882 959.755 688.258 946.84 690.826 932.002 C 691.4 928.688 691.161 924.18 692.434 921.443 C 698.684 933.033 687.867 952.593 681.557 962.507 C 697.982 956.587 715.708 952.533 732.255 947.116 C 845.319 910.156 964.286 901.225 1082.09 891.606 C 1110.21 889.31 1142 892.116 1170.58 890 C 1180.09 889.295 1188.9 886.166 1197.93 885.961 C 1209.69 885.693 1222.34 889.056 1234.23 888.718 C 1253.16 888.485 1271.74 881.33 1290.39 887.433 C 1293.39 888.416 1300.51 890.179 1303.58 890.356 C 1309.79 891.154 1318.36 889.092 1324.35 889.713 C 1339.92 891.33 1358.65 888.028 1373.47 889.95 C 1387.16 891.726 1397.06 893.053 1410.69 893.52 C 1361.79 902.333 1307.86 891.233 1258.41 899.922 C 1253.08 900.859 1247.67 902.15 1242.4 903.388 L 1241.93 905.101 L 1240.08 904.409 C 1246.43 908.109 1358 907.118 1373.87 906.929 C 1377.65 907.072 1383.6 907.85 1375.66 909.55 C 1349.72 917.073 1313.2 915.501 1286.42 915.374 C 1272.86 915.31 1258.3 918.949 1244.75 919.922 C 1218.99 921.308 1198.05 923.549 1172.44 927.288 C 1154.41 929.347 1143.16 930.585 1125.02 931.423 L 1125.1 932.064 C 1136.46 937.503 1159.13 931.13 1172.56 929.465 C 1180.42 928.697 1189.67 930.513 1197.5 929.248 C 1218.97 925.263 1240.76 925.296 1262.2 922.639 C 1285.99 919.691 1308.32 921.633 1332.05 920.529 L 1412.24 917.273 C 1429.81 916.502 1441.6 915.032 1459.76 915.23 C 1486.91 915.541 1514.06 916.537 1541.16 918.218 C 1555.73 919.248 1569.07 922.214 1583.74 921.901 L 1589.13 924.209 C 1576.77 924.839 1573.65 924.476 1562.56 929.751 C 1572.48 931.63 1611.55 937.975 1618.43 941.586 C 1616.86 945.244 1616.13 945.042 1617.19 947.728 C 1621.08 949.214 1624.76 948.944 1626.21 950.64 C 1616.87 952.079 1606.38 950.643 1597.78 951.93 C 1571.52 955.866 1529.84 951.564 1505.26 957.539 C 1528.62 961.452 1537.26 957.741 1558.27 958.847 C 1586.39 960.328 1617.52 962.864 1645.59 963.849 C 1674.28 964.857 1696.81 961.935 1726.89 965.032 C 1728.64 965.006 1737.31 964.434 1738.2 965.954 L 1738.13 966.071 L 1738.65 966.46 C 1736.63 967.144 1737.36 966.974 1735.15 967.058 L 1733.9 967.299 C 1718.71 970.358 1720.6 973.621 1703.57 971.612 C 1693.31 970.401 1635.74 973.321 1629.16 976.251 L 1628.87 977.755 C 1632.22 979.972 1641.14 980.098 1646.02 980.639 C 1613.76 987.693 1577.99 989.004 1544.86 995.604 C 1545.46 996.227 1546.57 997.32 1547.03 997.988 C 1571.21 1001.37 1619.52 998.316 1638.19 1007.8 C 1634.1 1009.6 1620.92 1008.43 1615.57 1009.19 C 1599.06 1011.56 1582.62 1012.37 1565.96 1012.65 C 1555.55 1012.84 1540.86 1016.37 1530.94 1015.94 C 1484.31 1013.92 1439.97 1022.69 1394.09 1028.96 C 1380.7 1030.78 1365.8 1029.32 1352.3 1031.05 C 1345.31 1031.95 1339.25 1037.89 1331.81 1038.3 C 1294.3 1042.83 1256.71 1047.49 1219.33 1053 C 1188.25 1057.58 1157.22 1067.06 1126.25 1071.27 C 1095 1075.51 1064.62 1082.15 1033.68 1088.03 C 1021.1 1090.42 1009.74 1088.17 997.142 1088.52 C 979.35 1089.4 960.769 1093 943.168 1095.81 C 903.346 1103.69 861.538 1112.59 823.46 1126.59 C 810.436 1131.45 797.539 1136.65 784.781 1142.17 C 755.995 1154.43 760.404 1153.95 728.82 1152.53 L 728.322 1151.16 L 731.417 1147.65 C 726.372 1144.77 723.367 1146.16 715.785 1140.91 C 673.622 1155.61 629.377 1167.79 586.571 1180.3 C 558.568 1188.48 545.253 1203.16 519.645 1178.15 C 510.303 1169.02 507.073 1162.68 500.5 1151.71 C 487.742 1146.27 472.244 1164.75 465.609 1157.34 C 455.174 1145.68 447.145 1126.1 442.97 1111.02 C 442.695 1110.03 443.381 1095.43 443.61 1093.4 C 426.728 1072.67 445.215 1066.96 436.387 1045.49 C 438.648 1040.95 440.037 1037.84 441.856 1033.11 z" fill="rgb(30,26,22)" transform="translate(0,0)"></path>
<path d="M 1726.89 965.032 C 1728.64 965.006 1737.31 964.434 1738.2 965.954 L 1738.13 966.071 L 1738.65 966.46 C 1736.63 967.144 1737.36 966.974 1735.15 967.058 C 1732.37 966.314 1729.68 965.712 1726.89 965.032 z" fill="rgb(147,142,131)" transform="translate(0,0)"></path>
<path d="M 1373.87 906.929 C 1377.65 907.072 1383.6 907.85 1375.66 909.55 C 1375.4 907.899 1375.3 908.061 1373.87 906.929 z" fill="rgb(96,91,84)" transform="translate(0,0)"></path>
<path d="M 1547.03 997.988 C 1545.16 997.886 1540.8 997.624 1544.86 995.604 C 1545.46 996.227 1546.57 997.32 1547.03 997.988 z" fill="rgb(205,198,184)" transform="translate(0,0)"></path>
<path d="M 1133.66 900.398 C 1149.52 897.747 1166.3 896.225 1182.3 894.468 C 1186.05 894.197 1195.68 893.361 1199.06 895.509 C 1201.67 897.172 1194.97 898.203 1194.52 898.248 C 1177.9 899.903 1160.16 901.124 1143.52 902.164 C 1138.61 901.893 1137.58 903.072 1133.66 900.398 z" fill="rgb(243,236,220)" transform="translate(0,0)"></path>
<path d="M 678.076 917.518 C 682.768 921.075 679.012 933.159 677.317 937.721 C 675.046 936.509 677.251 920.223 678.076 917.518 z" fill="rgb(243,236,220)" transform="translate(0,0)"></path>
<path d="M 1143.52 902.164 C 1140.68 902.707 1120.29 905.025 1119.8 902.717 C 1119.94 902.354 1119.83 902.515 1120.14 902.244 L 1121.03 902.723 L 1121.3 901.841 C 1124 901.354 1130.96 900.488 1133.66 900.398 C 1137.58 903.072 1138.61 901.893 1143.52 902.164 z" fill="rgb(205,198,184)" transform="translate(0,0)"></path>
<path d="M 692.195 1337.49 C 724.925 1318.06 745.885 1298.69 771.082 1270.51 C 776.721 1264.21 790.205 1245.94 797.895 1245.23 L 799.106 1246.5 L 798.766 1251.51 C 799.315 1252.45 814.569 1268.62 815.504 1269 C 824.959 1272.84 829.318 1276.38 829.137 1289.57 C 829.946 1290.23 835.66 1294.31 836.147 1294.44 C 841.412 1295.83 843.27 1302.23 845.753 1303.68 C 848.824 1300.4 846.73 1298.81 849.152 1293.32 L 851.68 1293.24 L 852.915 1295 C 853.742 1303.85 850.022 1311.63 846.676 1319.67 C 857.652 1318.35 875.655 1313.85 886.939 1311.47 C 906.305 1307.31 925.853 1304.05 945.521 1301.7 C 959.58 1300.06 974.173 1299.26 987.956 1297.59 C 1145.43 1278.54 1306.4 1304.86 1460.72 1335.53 C 1483.78 1340.12 1494.47 1339.73 1516.28 1351.01 C 1507.09 1350.77 1487.56 1352.92 1479.46 1350.4 C 1466.19 1346.25 1455.11 1338.81 1440.1 1336.25 C 1416.8 1332.28 1392.36 1333 1368.72 1332.89 L 1363.32 1333.29 L 1362.71 1334.18 C 1363.91 1334.71 1365.46 1335.48 1366.65 1335.89 C 1402.31 1343.66 1439.69 1346.97 1475.35 1354.71 C 1495.45 1359.08 1516.47 1370.74 1536.86 1375.93 C 1544.17 1377.79 1573.83 1385.15 1576.75 1391.66 C 1568.7 1401.67 1540.94 1378.9 1526.49 1390.44 C 1523.01 1393.23 1481.51 1389.5 1474.02 1388.66 L 1465.44 1393.69 C 1475.76 1398.47 1486.83 1399.85 1497.72 1403.06 C 1504.48 1405.05 1510.69 1407.76 1517.13 1410.57 C 1512.56 1410.99 1505.78 1411.8 1501.38 1411.91 C 1498.14 1411.67 1496.72 1410.95 1494.5 1412.31 C 1496.37 1413.77 1496.52 1414.02 1498.67 1414.94 C 1514.99 1421.31 1535.91 1429.49 1552 1437.16 C 1554.28 1438.25 1556.78 1444.81 1558.45 1446.91 C 1560.15 1449.04 1563.84 1451.49 1566.16 1453.13 C 1556.28 1451.45 1538.3 1447.63 1529.28 1450.92 C 1528.88 1452 1528.35 1454.63 1527.16 1454.79 C 1518.83 1455.95 1509.16 1453.04 1500.7 1453.22 C 1470.53 1453.86 1437.63 1450.87 1407.8 1454.47 C 1423.18 1459.32 1437.65 1463.08 1452.51 1467.61 C 1441.29 1467.62 1430.21 1466.77 1419.02 1466.06 C 1418.59 1467.21 1418.42 1467.61 1418.12 1468.72 C 1423.32 1469.14 1434.31 1470.54 1437.5 1474.67 C 1428.82 1477.01 1432.8 1482.44 1420.8 1477.7 C 1414.62 1475.25 1374.04 1473.88 1371.19 1477.52 C 1372.4 1480.15 1377.86 1481.55 1380.6 1481.92 C 1396.18 1483.98 1404.74 1489.98 1416.58 1497.22 C 1422.77 1501.01 1435.51 1498.77 1443.96 1506.51 L 1443.85 1508.22 C 1438.43 1512.28 1428.1 1508.78 1421.44 1508.08 C 1414.14 1507.04 1403.93 1508.09 1396.94 1506.59 C 1361.94 1499.07 1325.86 1501.82 1290.3 1500.9 C 1280.77 1500.66 1270.25 1496.53 1260.56 1496.76 C 1247.96 1497.07 1234.74 1499.75 1222.48 1502.6 C 1214.27 1500.09 1211.69 1498.23 1204.68 1493.61 C 1202.15 1496.12 1200.66 1498.26 1197.26 1498.95 C 1194.43 1497.7 1194.43 1497.46 1191.41 1497.42 C 1190.02 1499.48 1189.66 1499.99 1187.97 1501.79 C 1178.57 1501.71 1170.47 1497.09 1161.5 1497.12 C 1154.2 1497.89 1146.39 1497.62 1139.15 1498.5 C 1090.48 1504.4 1040.98 1504.43 992.601 1511.44 C 969.853 1514.74 946.562 1523.93 925.357 1526.46 C 847.404 1535.76 770.708 1550.05 696.301 1575.4 C 685.113 1579.18 672.469 1587.17 662.326 1590.54 C 637.118 1598.9 616.983 1565.14 607.575 1546.14 C 600.023 1552.21 576.405 1561.7 566.77 1558.42 C 557.982 1555.43 547.757 1538.15 544.501 1528.31 C 537.446 1506.96 525.052 1476.71 530.58 1454.19 C 533.515 1446.37 552.688 1429.39 559.104 1421.68 C 572.083 1406.09 583.473 1390.19 596.706 1374.95 C 617.742 1350.72 644.978 1331.09 670.802 1312.22 C 675.581 1308.73 693.892 1295.71 698.058 1294.22 C 698.034 1296.8 694.519 1300.52 692.573 1302.08 C 667.894 1321.81 637.718 1344.58 618.307 1369.88 C 632.679 1362.26 639.176 1352.81 650.53 1342.22 C 657.494 1335.72 684.242 1317.99 693.248 1316.96 C 690.666 1320.51 690.017 1321.18 688.461 1325.19 C 691.197 1325.83 691.112 1325.57 694.053 1325.32 L 695.684 1326.78 C 696.222 1330.33 693.823 1334.06 692.195 1337.49 z" fill="rgb(30,26,22)" transform="translate(0,0)"></path>
<path d="M 1418.12 1468.72 C 1416.56 1468.73 1411.3 1468.14 1415.9 1466.89 L 1419.02 1466.06 C 1418.59 1467.21 1418.42 1467.61 1418.12 1468.72 z" fill="rgb(164,158,146)" transform="translate(0,0)"></path>
<path d="M 1284.96 1473.24 C 1289.36 1472.97 1302.99 1471.31 1305.47 1476.7 C 1305.01 1477.86 1303.43 1477.6 1302.25 1477.66 C 1300.61 1477.67 1266.46 1477.37 1284.96 1473.24 z" fill="rgb(243,236,220)" transform="translate(0,0)"></path>
<path d="M 1321.49 1477.79 C 1330.79 1476.02 1342.52 1477.07 1351.92 1477.85 C 1347.84 1478.6 1340.21 1479.96 1336.18 1480.03 C 1336.23 1480.03 1314.67 1481.54 1321.49 1477.79 z" fill="rgb(147,142,131)" transform="translate(0,0)"></path>
<path d="M 1321.49 1477.79 C 1324.7 1477.94 1336.41 1477.54 1338.15 1478.37 C 1337.71 1478.94 1336.9 1479.38 1336.18 1480.03 C 1336.23 1480.03 1314.67 1481.54 1321.49 1477.79 z" fill="rgb(243,236,220)" transform="translate(0,0)"></path>
<path d="M 1223.99 1070.95 C 1259.95 1060.11 1304 1061.07 1341.16 1057.42 C 1369.02 1054.69 1396.69 1053.08 1424.37 1050.88 C 1455.31 1048.42 1452.57 1043.39 1485.42 1050.74 C 1468.27 1055.52 1454.81 1054.68 1437.92 1057.2 C 1417.66 1060.94 1398.47 1063.88 1377.79 1064.03 C 1369.27 1064.09 1358.31 1067.69 1349.79 1068.17 C 1327.75 1069.39 1307.02 1072.42 1285.46 1076.75 C 1277.17 1078.41 1266.47 1077.39 1257.93 1078.88 C 1240.38 1082.34 1222.86 1084.34 1205.17 1086.77 C 1200.56 1087.41 1194.63 1089.55 1190.06 1089.86 C 1165.31 1091.52 1141.55 1099.23 1117.35 1102.9 C 1078.73 1108.76 1039.84 1113.47 1001.1 1118.44 C 996.163 1119.26 986.927 1121.07 982.382 1120.49 C 988.534 1117.77 992.756 1117.6 999.246 1116.06 C 999.976 1114.99 1000.71 1113.92 1001.44 1112.85 C 1010.71 1109.1 1023.56 1106.83 1032.91 1103.76 C 1042.98 1100.46 1052.17 1095.96 1061.89 1093.17 C 1072.64 1090.08 1084.11 1089.05 1094.94 1086.07 C 1109.34 1082.23 1123.64 1076.58 1138.13 1073.23 C 1148.56 1070.81 1161.29 1074.61 1172.08 1073.9 C 1189.48 1072.76 1206.87 1064.47 1223.99 1070.95 z" fill="rgb(30,26,22)" transform="translate(0,0)"></path>
<path d="M 1630.66 639.613 C 1636.28 640.546 1640.25 643.254 1645.68 642.798 C 1656.6 641.88 1667.48 643.163 1678.35 643.326 L 1677.53 642.514 C 1677.06 642.032 1676.58 641.551 1676.11 641.069 C 1676.04 641.008 1675.97 640.947 1675.9 640.886 L 1675.98 640.9 C 1682.06 649.324 1691.88 650.277 1692.57 651.484 C 1692.02 652.121 1689.74 652.549 1688.92 652.696 C 1684.78 653.227 1679.96 654.363 1675.91 653.503 C 1674.27 653.155 1670.97 652.385 1672.68 650.436 C 1673.17 649.881 1674.04 649.076 1673.86 648.284 C 1673.66 648.169 1634.63 655.086 1632.58 648.97 C 1633.04 647.709 1634.54 647.263 1634.9 645.948 C 1634.7 645.229 1631.45 640.833 1630.66 639.613 z" fill="rgb(30,26,22)" transform="translate(0,0)"></path>
<path d="M 1556.08 555.607 C 1562.42 559.329 1564.28 560.237 1571.5 562.155 C 1576.15 563.884 1588.83 559.669 1591.95 560.5 C 1595.55 561.456 1585.65 569.057 1583.93 570.655 C 1574.18 564.535 1576.99 568.938 1564.99 569.918 C 1563.62 570.03 1551.65 571.838 1551.09 570.662 C 1548.87 566.028 1554.02 565.764 1555.55 565.268 L 1555.61 565.114 C 1553.88 560.281 1551.63 564.505 1556.08 555.607 z" fill="rgb(30,26,22)" transform="translate(0,0)"></path>
<path d="M 1524.15 1041.19 C 1534.53 1041.41 1537.37 1047.29 1526.5 1049.78 C 1516.53 1052.07 1511.13 1052.99 1501.12 1053.42 C 1473.01 1052.88 1520.46 1041.93 1524.15 1041.19 z" fill="rgb(30,26,22)" transform="translate(0,0)"></path>
<path d="M 1381.65 1085.29 C 1389.05 1085.33 1397.61 1086.98 1405.67 1087.63 C 1396.26 1091.67 1393.65 1092.8 1383.48 1094.82 C 1378.32 1095.39 1373.44 1096.37 1368.6 1093.75 C 1366.93 1092.84 1363.6 1093.19 1363.41 1092.42 C 1366.09 1087.94 1376.86 1086.06 1381.65 1085.29 z" fill="rgb(30,26,22)" transform="translate(0,0)"></path>
<path d="M 1750.71 623.688 C 1763.3 631.113 1769.91 629.666 1753.55 640.98 C 1750.4 642.728 1743.71 635.638 1741.47 633.63 C 1745.15 629.149 1746.46 627.615 1750.71 623.688 z" fill="rgb(30,26,22)" transform="translate(0,0)"></path>
<path d="M 1299.8 682.265 C 1303.1 681.792 1308.73 680.865 1311.95 680.116 L 1313.01 682.286 C 1314.72 682.944 1316.23 683.574 1317.9 684.285 C 1318.43 684.586 1318.95 684.887 1319.47 685.188 L 1319.99 686.532 C 1318.38 686.89 1316.69 687.298 1315.07 687.566 C 1307.01 688.444 1299.43 687.452 1290.99 689.722 C 1289.06 690.243 1285.56 684.804 1296.16 684.22 C 1297.4 683.54 1298.55 682.914 1299.8 682.265 z" fill="rgb(30,26,22)" transform="translate(0,0)"></path>
<path d="M 1299.8 682.265 C 1303.1 681.792 1308.73 680.865 1311.95 680.116 L 1313.01 682.286 C 1309.37 683.168 1300.81 683.595 1296.16 684.22 C 1297.4 683.54 1298.55 682.914 1299.8 682.265 z" fill="rgb(96,91,84)" transform="translate(0,0)"></path>
<path d="M 1612.47 599.401 C 1630.8 599.913 1632.45 607.357 1611.32 606.009 C 1603.58 604.759 1599.67 604.171 1591.89 602.508 C 1594.07 601.936 1595.75 601.454 1598 601.196 L 1612.47 599.401 z" fill="rgb(30,26,22)" transform="translate(0,0)"></path>
<path d="M 1510.29 1497.37 C 1519.1 1498.82 1527.75 1497.21 1528.12 1506.55 L 1528.22 1510.05 C 1523.5 1508.98 1516.49 1506.26 1511.68 1504.62 C 1510.63 1504.26 1510.42 1498.51 1510.29 1497.37 z" fill="rgb(30,26,22)" transform="translate(0,0)"></path>
<path d="M 1613.52 1461.02 C 1622.45 1460.73 1633.32 1458.98 1629.94 1470.37 L 1628.26 1470.68 C 1620.3 1472.12 1614.66 1469.46 1613.52 1461.02 z" fill="rgb(30,26,22)" transform="translate(0,0)"></path>
<path d="M 1282.27 1502.84 C 1285.31 1503.34 1288.97 1504.23 1292 1505.03 C 1298.6 1506.79 1309.11 1501.33 1310.94 1510.52 C 1299.54 1513.67 1290.72 1510.77 1282.27 1502.84 z" fill="rgb(30,26,22)" transform="translate(0,0)"></path>
<path d="M 1437.86 893.338 C 1446.09 893.115 1450.62 893.718 1458.65 894.967 C 1451.71 896.322 1445.22 897.253 1438.31 898.813 C 1435.62 899.218 1417.66 898.764 1425.37 895.252 C 1425.91 895.007 1436.48 893.533 1437.86 893.338 z" fill="rgb(30,26,22)" transform="translate(0,0)"></path>
<path d="M 1331.4 1506.76 C 1333.34 1507.14 1344.9 1511.83 1346.36 1513.6 C 1346.17 1513.95 1345.99 1514.29 1345.8 1514.63 L 1346.54 1514.53 L 1345.95 1513.89 L 1344.85 1514.73 C 1344.18 1514.55 1343.51 1514.38 1342.84 1514.2 C 1335.69 1514.12 1328.66 1514.55 1321.46 1514.51 C 1325.55 1510.9 1326.9 1509.87 1331.4 1506.76 z" fill="rgb(30,26,22)" transform="translate(0,0)"></path>
<path d="M 1623.22 656.484 C 1629.73 660.639 1630.9 660.409 1638.64 661.3 C 1641.31 661.609 1638.67 663.16 1636.73 663.501 C 1630.71 664.427 1611.88 667.543 1623.22 656.484 z" fill="rgb(30,26,22)" transform="translate(0,0)"></path>
<path d="M 1683.95 571.994 C 1695.98 572.341 1698.22 571.771 1689.65 580.36 C 1685.99 580.187 1676.67 576.287 1683.95 571.994 z" fill="rgb(30,26,22)" transform="translate(0,0)"></path>
<path d="M 1430.19 1080.81 C 1441.66 1085.2 1431.17 1088.36 1426.42 1090.16 C 1417.22 1084.99 1418.8 1087.46 1430.19 1080.81 z" fill="rgb(30,26,22)" transform="translate(0,0)"></path>
<path d="M 1715.05 647.353 C 1729.85 651.253 1711.71 652.873 1706.94 653.161 C 1705.87 652.922 1699.58 651.919 1699.19 651.416 C 1699.43 650.357 1700.55 650.189 1701.48 650.019 L 1706.01 649.188 C 1709.31 648.617 1711.82 648.041 1715.05 647.353 z" fill="rgb(30,26,22)" transform="translate(0,0)"></path>
<path d="M 1654.48 932.61 C 1657.87 932.807 1663.9 937.496 1666.77 939.136 C 1668.11 939.9 1665.16 941.801 1664.02 942.292 C 1663.82 942.199 1648.16 935.007 1649.21 936.48 C 1649.5 935.247 1653.53 933.19 1654.48 932.61 z" fill="rgb(30,26,22)" transform="translate(0,0)"></path>
<path d="M 1514.86 559.376 C 1522.36 558.723 1532.48 556.164 1527.1 565.91 C 1524.23 565.06 1509.19 562.909 1514.86 559.376 z" fill="rgb(30,26,22)" transform="translate(0,0)"></path>
<path d="M 1586.24 1382.87 C 1590.61 1384.38 1600.59 1389.89 1603.24 1394.22 C 1600.62 1394.76 1599.55 1395.15 1597.01 1394.08 C 1592.06 1391.94 1588.18 1387.9 1586.24 1382.87 z" fill="rgb(30,26,22)" transform="translate(0,0)"></path>
<path d="M 1642.18 604.697 C 1651.3 605.9 1652.99 606.072 1647.76 613.713 C 1641.49 614.796 1640.31 609.681 1642.18 604.697 z" fill="rgb(30,26,22)" transform="translate(0,0)"></path>
<path d="M 1269.51 686.277 C 1270.69 686.17 1276.93 685.319 1277.51 685.788 C 1281.62 689.087 1277.11 690.812 1275.23 691.347 C 1269.54 691.096 1258.49 691.877 1269.51 686.277 z" fill="rgb(30,26,22)" transform="translate(0,0)"></path>
<path d="M 1336.19 1090.42 C 1340.54 1089.83 1351 1087.45 1350.75 1093.51 C 1346.9 1093.55 1337.23 1094.58 1336.19 1090.42 z" fill="rgb(30,26,22)" transform="translate(0,0)"></path>
<path d="M 730.95 1299.02 C 732.959 1302.03 729.901 1308.07 726.546 1309.64 C 720.848 1303.72 723.858 1305 730.95 1299.02 z" fill="rgb(30,26,22)" transform="translate(0,0)"></path>
<path d="M 1385.58 908.557 C 1390.86 907.385 1398.47 905.423 1401.64 910.614 C 1396.76 910.034 1389.48 910.11 1385.58 908.557 z" fill="rgb(96,91,84)" transform="translate(0,0)"></path>
<path d="M 1139.22 693.024 C 1143.46 693.354 1146.75 693.421 1149.39 696.892 C 1146.49 697.081 1139.26 698.719 1139.25 694.206 L 1139.22 693.024 z" fill="rgb(30,26,22)" transform="translate(0,0)"></path>
<path d="M 1552.89 1042.7 C 1557.46 1045.62 1553.74 1046.14 1550.71 1046.78 L 1548.99 1047.24 C 1544.78 1044.72 1550.68 1043.51 1552.89 1042.7 z" fill="rgb(30,26,22)" transform="translate(0,0)"></path>
<path d="M 1528.75 635.028 C 1533.28 633.676 1533.88 633.397 1538.4 634.989 C 1536.3 637.293 1531.37 635.722 1528.75 635.028 z" fill="rgb(126,120,111)" transform="translate(0,0)"></path>
<path d="M 1528.75 635.028 C 1533.28 633.676 1533.88 633.397 1538.4 634.989 C 1535.03 634.914 1532.14 634.929 1528.75 635.028 z" fill="rgb(205,198,184)" transform="translate(0,0)"></path>
<path d="M 1590.3 922.349 C 1592 922.254 1591.86 922.249 1593.42 923.093 C 1593.42 924.744 1590.5 924.201 1589.13 924.209 L 1583.74 921.901 C 1585.93 922.036 1588.12 922.185 1590.3 922.349 z" fill="rgb(96,91,84)" transform="translate(0,0)"></path>
<path d="M 1590.3 922.349 C 1592 922.254 1591.86 922.249 1593.42 923.093 C 1591.76 922.947 1591.52 923.108 1590.3 922.349 z" fill="rgb(164,158,146)" transform="translate(0,0)"></path>
<path d="M 1322.54 684.902 L 1322.97 686.891 L 1319.99 686.532 L 1319.47 685.188 L 1322.54 684.902 z" fill="rgb(126,120,111)" transform="translate(0,0)"></path>
<metadata><recraft-signature>{"signed_by": "recraft", "signature_b64": "K1DTrOgw8wnWKy8zwGqFKZvQaWnIUhPgFbvslz/CkOzz0NUwgr7jYbLPZ/odo3qU/1F297FwhOwJmAHXnzRoCA==", "signing_algo": "Ed25519", "generation_timestamp": 1784213943, "identifier": "03dd97b1-a3fa-4d9d-a64e-77c8605f836b"}</recraft-signature></metadata></svg>